<?xml version="1.0" encoding="UTF-8" standalone="no"?>
<svg
   xmlns:osb="http://www.openswatchbook.org/uri/2009/osb"
   xmlns:dc="http://purl.org/dc/elements/1.1/"
   xmlns:cc="http://creativecommons.org/ns#"
   xmlns:rdf="http://www.w3.org/1999/02/22-rdf-syntax-ns#"
   xmlns:svg="http://www.w3.org/2000/svg"
   xmlns="http://www.w3.org/2000/svg"
   xmlns:sodipodi="http://sodipodi.sourceforge.net/DTD/sodipodi-0.dtd"
   xmlns:inkscape="http://www.inkscape.org/namespaces/inkscape"
   inkscape:export-ydpi="211.0432"
   inkscape:export-xdpi="211.0432"
   inkscape:export-filename="/Users/jamespohare/Desktop/CIS 134/jamesPOHare_ios_prj_1/jamesPOHare_ios_prj_1/graphics/c_rose_wht_1-r.png"
   sodipodi:docname="c_rose_wht_1.svg"
   inkscape:version="1.0rc1 (09960d6, 2020-04-09)"
   id="svg16"
   version="1.1"
   viewBox="0 0 100 99.998589"
   height="99.998589mm"
   width="100mm">
  <defs
     id="defs10">
    <marker
       inkscape:isstock="true"
       style="overflow:visible"
       id="DiamondL"
       refX="0"
       refY="0"
       orient="auto"
       inkscape:stockid="DiamondL">
      <path
         inkscape:connector-curvature="0"
         transform="scale(0.8)"
         style="fill:#ffffff;fill-opacity:1;fill-rule:evenodd;stroke:#000000;stroke-width:1pt;stroke-opacity:0.99"
         d="M 0,-7.0710768 -7.0710894,0 0,7.0710589 7.0710462,0 Z"
         id="path3354" />
    </marker>
    <marker
       inkscape:isstock="true"
       style="overflow:visible"
       id="Arrow1Mend"
       refX="0"
       refY="0"
       orient="auto"
       inkscape:stockid="Arrow1Mend">
      <path
         inkscape:connector-curvature="0"
         transform="matrix(-0.4,0,0,-0.4,-4,0)"
         style="fill:#ffffff;fill-opacity:1;fill-rule:evenodd;stroke:#000000;stroke-width:1pt;stroke-opacity:0.99"
         d="M 0,0 5,-5 -12.5,0 5,5 Z"
         id="path3284" />
    </marker>
    <linearGradient
       osb:paint="solid"
       id="linearGradient3041">
      <stop
         id="stop3039"
         offset="0"
         style="stop-color:#ffffff;stop-opacity:1;" />
    </linearGradient>
    <linearGradient
       osb:paint="solid"
       id="linearGradient2936">
      <stop
         id="stop2934"
         offset="0"
         style="stop-color:#0000ff;stop-opacity:1;" />
    </linearGradient>
    <inkscape:perspective
       id="perspective880"
       inkscape:persp3d-origin="147.65872 : -37.173836 : 1"
       inkscape:vp_z="134.75114 : 182.39919 : 1"
       inkscape:vp_y="-992.30948 : 562.14417 : 0"
       inkscape:vp_x="58.571017 : -20.767296 : 1"
       sodipodi:type="inkscape:persp3d" />
    <linearGradient
       osb:paint="solid"
       id="linearGradient874">
      <stop
         id="stop872"
         offset="0"
         style="stop-color:#000000;stop-opacity:1;" />
    </linearGradient>
  </defs>
  <sodipodi:namedview
     inkscape:window-maximized="0"
     inkscape:window-y="23"
     inkscape:window-x="0"
     inkscape:window-height="943"
     inkscape:window-width="1252"
     showguides="false"
     showgrid="false"
     inkscape:document-rotation="0"
     inkscape:current-layer="layer1"
     inkscape:document-units="mm"
     inkscape:cy="209.49758"
     inkscape:cx="187.3834"
     inkscape:zoom="0.98994949"
     inkscape:pageshadow="2"
     inkscape:pageopacity="0.0"
     borderopacity="1.0"
     bordercolor="#666666"
     pagecolor="#ffffff"
     id="base" />
  <metadata
     id="metadata13">
    <rdf:RDF>
      <cc:Work
         rdf:about="">
        <dc:format>image/svg+xml</dc:format>
        <dc:type
           rdf:resource="http://purl.org/dc/dcmitype/StillImage" />
        <dc:title />
      </cc:Work>
    </rdf:RDF>
  </metadata>
  <g
     style="display:inline;opacity:1"
     transform="translate(-52.913942,-41.42135)"
     id="layer1"
     inkscape:groupmode="layer"
     inkscape:label="Layer 1">
    <path
       inkscape:connector-curvature="0"
       d="M 152.39303,95.760794 A 49.662532,49.662532 0 0 1 99.671363,140.98865 49.662532,49.662532 0 0 1 53.304223,89.266144 49.662532,49.662532 0 0 1 104.00286,41.781694 49.662532,49.662532 0 0 1 152.582,91.432404 h -49.66248 z m -0.56948,4.288276 a 49.662532,49.662532 0 0 1 -56.462877,40.46069 49.662532,49.662532 0 0 1 -41.68288,-55.566826 49.662532,49.662532 0 0 1 54.644297,-42.88503 49.662532,49.662532 0 0 1 44.06697,53.69564 l -49.47359,-4.32834 z m -0.94051,4.2245 a 49.662532,49.662532 0 0 1 -59.774417,35.38572 49.662532,49.662532 0 0 1 -36.6813,-58.988246 49.662532,49.662532 0 0 1 58.174107,-37.95936 49.662532,49.662532 0 0 1 39.21934,57.332056 l -48.90804,-8.623746 z m -1.30547,4.12422 A 49.662532,49.662532 0 0 1 86.946533,138.43917 49.662532,49.662532 0 0 1 55.546013,76.478394 49.662532,49.662532 0 0 1 116.80705,43.733664 49.662532,49.662532 0 0 1 150.88039,104.26581 L 102.91007,91.412194 Z m -1.65779,4.00997 A 49.662532,49.662532 0 0 1 82.908833,136.87614 49.662532,49.662532 0 0 1 57.028053,72.414404 49.662532,49.662532 0 0 1 120.90987,45.133544 49.662532,49.662532 0 0 1 149.57778,108.405 L 102.91032,91.419474 Z m -2.00177,3.83485 A 49.662532,49.662532 0 0 1 79.021853,134.9518 49.662532,49.662532 0 0 1 58.857733,68.479744 49.662532,49.662532 0 0 1 124.87415,46.870354 49.662532,49.662532 0 0 1 147.9185,112.3996 L 102.90898,91.411364 Z m -2.32871,3.6481 a 49.662532,49.662532 0 0 1 -68.272177,12.80765 49.662532,49.662532 0 0 1 -14.2939,-67.976586 49.662532,49.662532 0 0 1 67.648547,-15.77339 49.662532,49.662532 0 0 1 17.24538,67.288316 l -43.009,-24.831256 z m -2.63728,3.42899 a 49.662532,49.662532 0 0 1 -69.128657,6.80859 49.662532,49.662532 0 0 1 -8.315,-68.963726 49.662532,49.662532 0 0 1 68.765867,-9.81741 49.662532,49.662532 0 0 1 11.31523,68.535326 L 102.90829,91.397244 Z m -2.92778,3.22766 a 49.662532,49.662532 0 0 1 -69.459027,0.75769 49.662532,49.662532 0 0 1 -2.27276,-69.425916 49.662532,49.662532 0 0 1 69.359857,-3.7868 49.662532,49.662532 0 0 1 5.29895,69.260746 L 102.90749,91.430634 Z m -3.19268,2.91893 a 49.662532,49.662532 0 0 1 -69.260727,-5.29894 49.662532,49.662532 0 0 1 3.78673,-69.359856 49.662532,49.662532 0 0 1 69.425957,2.27279 49.662532,49.662532 0 0 1 -0.75773,69.458996 L 102.90911,91.422554 Z m -3.43598,2.63167 a 49.662532,49.662532 0 0 1 -68.535307,-11.31527 49.662532,49.662532 0 0 1 9.81741,-68.765866 49.662532,49.662532 0 0 1 68.963717,8.31498 49.662532,49.662532 0 0 1 -6.80857,69.128636 L 102.91038,91.416764 Z m -3.65103,2.32015 a 49.662532,49.662532 0 0 1 -67.288377,-17.24543 49.662532,49.662532 0 0 1 15.77347,-67.648586 49.662532,49.662532 0 0 1 67.976487,14.294 49.662532,49.662532 0 0 1 -12.80758,68.272156 L 102.9133,91.409104 Z m -3.84748,2.00619 A 49.662532,49.662532 0 0 1 58.367803,113.37996 49.662532,49.662532 0 0 1 79.977183,47.363564 49.662532,49.662532 0 0 1 146.44927,67.527654 49.662532,49.662532 0 0 1 127.7401,134.42375 L 102.90883,91.414774 Z m -3.99845,1.65096 A 49.662532,49.662532 0 0 1 56.627133,109.40734 49.662532,49.662532 0 0 1 83.907983,45.525514 49.662532,49.662532 0 0 1 148.36971,71.406304 49.662532,49.662532 0 0 1 123.90134,136.41729 L 102.913,91.407744 Z m -4.12877,1.29775 A 49.662532,49.662532 0 0 1 55.237643,105.29974 49.662532,49.662532 0 0 1 87.982393,44.038704 49.662532,49.662532 0 0 1 149.94315,75.439224 49.662532,49.662532 0 0 1 119.90179,138.07023 L 102.91618,91.402704 Z m -4.22448,0.93152 A 49.662532,49.662532 0 0 1 54.213293,101.0852 49.662532,49.662532 0 0 1 92.172633,42.911164 49.662532,49.662532 0 0 1 151.1609,79.592404 49.662532,49.662532 0 0 1 115.77517,139.3668 L 102.9216,91.396484 Z m -4.31259,0.60908 a 49.662532,49.662532 0 0 1 -53.695777,-44.066936 49.662532,49.662532 0 0 1 42.88513,-54.64424 49.662532,49.662532 0 0 1 55.566837,41.68279 49.662532,49.662532 0 0 1 -40.46075,56.462926 l -8.62384,-48.908036 z m -4.32197,0.18388 a 49.662532,49.662532 0 0 1 -49.650727,-48.579136 49.662532,49.662532 0 0 1 47.484447,-50.69871 49.662532,49.662532 0 0 1 51.72243,46.36718 49.662532,49.662532 0 0 1 -45.22778,52.721666 l -4.32839,-49.473586 z m -4.323737,-0.19267 a 49.662532,49.662532 0 0 1 -45.22777,-52.721646 49.662532,49.662532 0 0 1 51.722437,-46.36721 49.662532,49.662532 0 0 1 47.48443,50.69867 49.662532,49.662532 0 0 1 -49.65069,48.579126 l -1e-5,-49.662466 z m -4.2882,-0.56948 a 49.662532,49.662532 0 0 1 -40.46079,-56.462886 49.662532,49.662532 0 0 1 55.566857,-41.68283 49.662532,49.662532 0 0 1 42.88509,54.64426 49.662532,49.662532 0 0 1 -53.695747,44.066956 l 4.328387,-49.473556 z m -4.2369,-0.93625 A 49.662532,49.662532 0 0 1 54.676243,79.624634 49.662532,49.662532 0 0 1 113.6645,42.943414 49.662532,49.662532 0 0 1 151.62385,101.11745 49.662532,49.662532 0 0 1 94.291783,140.33683 l 8.623777,-48.907996 z m -4.12425,-1.30551 a 49.662532,49.662532 0 0 1 -30.04134,-62.631006 49.662532,49.662532 0 0 1 61.960757,-31.40049 49.662532,49.662532 0 0 1 32.74473,61.261026 49.662532,49.662532 0 0 1 -60.532117,34.0733 L 102.92334,91.426084 Z m -3.99703,-1.6598 a 49.662532,49.662532 0 0 1 -24.46838,-65.010956 49.662532,49.662532 0 0 1 64.461707,-25.88075 49.662532,49.662532 0 0 1 27.28081,63.881786 49.662532,49.662532 0 0 1 -63.271407,28.6679 L 102.92903,91.424234 Z m -3.83485,-2.0018 A 49.662532,49.662532 0 0 1 59.396613,67.535884 49.662532,49.662532 0 0 1 125.86871,47.371764 49.662532,49.662532 0 0 1 147.47808,113.38814 49.662532,49.662532 0 0 1 81.948833,136.4325 L 102.93709,91.422974 Z m -3.68701,-2.3228 a 49.662532,49.662532 0 0 1 -12.80764,-68.272206 49.662532,49.662532 0 0 1 67.976537,-14.29393 49.662532,49.662532 0 0 1 15.77345,67.648596 49.662532,49.662532 0 0 1 -67.288357,17.2454 L 102.90408,91.428044 Z m -3.42899,-2.63731 a 49.662532,49.662532 0 0 1 -6.80859,-69.128646 49.662532,49.662532 0 0 1 68.963677,-8.31498 49.662532,49.662532 0 0 1 9.81747,68.765816 49.662532,49.662532 0 0 1 -68.535367,11.31527 L 102.91231,91.428184 Z m -3.18832,-2.92677 a 49.662532,49.662532 0 0 1 -0.75769,-69.459016 49.662532,49.662532 0 0 1 69.425897,-2.27277 49.662532,49.662532 0 0 1 3.78673,69.359846 49.662532,49.662532 0 0 1 -69.260687,5.29892 L 102.91824,91.428404 Z m -2.91894,-3.19269 a 49.662532,49.662532 0 0 1 5.29894,-69.260746 49.662532,49.662532 0 0 1 69.359867,3.7868 49.662532,49.662532 0 0 1 -2.27282,69.425896 49.662532,49.662532 0 0 1 -69.458967,-0.75768 L 102.92627,91.429964 Z m -2.64386,-3.44061 a 49.662532,49.662532 0 0 1 11.31525,-68.535366 49.662532,49.662532 0 0 1 68.765857,9.81744 49.662532,49.662532 0 0 1 -8.31498,68.963696 49.662532,49.662532 0 0 1 -69.128647,-6.8086 L 102.91995,91.426514 Z m -2.32017,-3.65105 A 49.662532,49.662532 0 0 1 77.164003,48.972394 49.662532,49.662532 0 0 1 144.81256,64.745784 49.662532,49.662532 0 0 1 130.51861,132.72235 49.662532,49.662532 0 0 1 62.246403,119.91474 L 102.92755,91.429494 Z m -1.995,-3.84075 A 49.662532,49.662532 0 0 1 80.967903,46.890714 49.662532,49.662532 0 0 1 146.98428,68.500124 49.662532,49.662532 0 0 1 126.82019,134.97217 49.662532,49.662532 0 0 1 59.924093,116.26295 L 102.93309,91.431704 Z m -1.65093,-3.99849 A 49.662532,49.662532 0 0 1 84.940553,45.150064 49.662532,49.662532 0 0 1 148.82235,72.430924 49.662532,49.662532 0 0 1 122.94158,136.8926 49.662532,49.662532 0 0 1 57.930623,112.42422 L 102.94017,91.435944 Z m -1.34627,-4.15991 a 49.662532,49.662532 0 0 1 34.07338,-60.532126 49.662532,49.662532 0 0 1 61.260977,32.74469 49.662532,49.662532 0 0 1 -31.4005,61.960796 49.662532,49.662532 0 0 1 -62.631007,-30.04139 L 102.89666,91.408014 Z m -0.9315,-4.22439 A 49.662532,49.662532 0 0 1 93.214213,42.705074 49.662532,49.662532 0 0 1 151.38824,80.664434 49.662532,49.662532 0 0 1 114.70697,139.65267 49.662532,49.662532 0 0 1 54.932583,104.26702 L 102.90292,91.413354 Z m -0.5611,-4.291446 a 49.662532,49.662532 0 0 1 44.06696,-53.69575 49.662532,49.662532 0 0 1 54.644277,42.88505 49.662532,49.662532 0 0 1 -41.68284,55.566816 49.662532,49.662532 0 0 1 -56.462847,-40.4607 l 48.907967,-8.623806 z m -0.18379,-4.32202 a 49.662532,49.662532 0 0 1 48.579157,-49.65071 49.662532,49.662532 0 0 1 50.69864,47.48451 49.662532,49.662532 0 0 1 -46.36718,51.722426 49.662532,49.662532 0 0 1 -52.721687,-45.227826 l 49.473597,-4.32841 z m 0.18626,-4.33505 a 49.662532,49.662532 0 0 1 52.721657,-45.22789 49.662532,49.662532 0 0 1 46.36715,51.72245 49.662532,49.662532 0 0 1 -50.69865,47.484516 49.662532,49.662532 0 0 1 -48.579137,-49.650706 l 49.662567,-2e-5 z m 0.56948,-4.28828 A 49.662532,49.662532 0 0 1 110.4686,42.339694 49.662532,49.662532 0 0 1 152.15146,97.906474 49.662532,49.662532 0 0 1 97.507133,140.79156 49.662532,49.662532 0 0 1 53.440243,87.095824 l 49.473527,4.32835 z m 0.94053,-4.22457 a 49.662532,49.662532 0 0 1 59.774427,-35.3857 49.662532,49.662532 0 0 1 36.68123,58.988266 49.662532,49.662532 0 0 1 -58.174027,37.95934 49.662532,49.662532 0 0 1 -39.21936,-57.332106 l 48.908037,8.62385 z m 1.3055,-4.12419 a 49.662532,49.662532 0 0 1 62.630997,-30.04136 49.662532,49.662532 0 0 1 31.40052,61.960766 49.662532,49.662532 0 0 1 -61.261027,32.74469 49.662532,49.662532 0 0 1 -34.07332,-60.532146 l 47.970347,12.85365 z m 1.64727,-4.03435 a 49.662532,49.662532 0 0 1 65.010977,-24.46838 49.662532,49.662532 0 0 1 25.88077,64.461686 49.662532,49.662532 0 0 1 -63.881797,27.28084 49.662532,49.662532 0 0 1 -28.66793,-63.271426 l 46.667507,16.98555 z m 2.0018,-3.83489 a 49.662532,49.662532 0 0 1 66.896147,-18.70921 49.662532,49.662532 0 0 1 20.1641,66.472106 49.662532,49.662532 0 0 1 -66.016407,21.60938 49.662532,49.662532 0 0 1 -23.04433,-65.529306 l 45.009557,20.98829 z m 2.32868,-3.64811 a 49.662532,49.662532 0 0 1 68.272187,-12.8076 49.662532,49.662532 0 0 1 14.29391,67.976536 49.662532,49.662532 0 0 1 -67.648557,15.77342 49.662532,49.662532 0 0 1 -17.24539,-67.288316 l 43.008997,24.83126 z m 2.6373,-3.42897 a 49.662532,49.662532 0 0 1 69.128647,-6.80858 49.662532,49.662532 0 0 1 8.31504,68.963696 49.662532,49.662532 0 0 1 -68.765907,9.81746 49.662532,49.662532 0 0 1 -11.31521,-68.535386 l 40.681177,28.4853 z m 2.92928,-3.20115 a 49.662532,49.662532 0 0 1 69.458997,-0.7577 49.662532,49.662532 0 0 1 2.27276,69.425946 49.662532,49.662532 0 0 1 -69.359857,3.78675 49.662532,49.662532 0 0 1 -5.29892,-69.260676 l 38.043717,31.9224 z m 3.19269,-2.91894 a 49.662532,49.662532 0 0 1 69.260697,5.29892 49.662532,49.662532 0 0 1 -3.78673,69.359856 49.662532,49.662532 0 0 1 -69.425957,-2.27274 49.662532,49.662532 0 0 1 0.75773,-69.459046 l 35.116737,35.11676 z m 3.43594,-2.63164 a 49.662532,49.662532 0 0 1 68.535327,11.31528 49.662532,49.662532 0 0 1 -9.81739,68.765826 49.662532,49.662532 0 0 1 -68.963717,-8.31498 49.662532,49.662532 0 0 1 6.80856,-69.128646 l 31.922487,38.04367 z m 3.65103,-2.32015 A 49.662532,49.662532 0 0 1 145.3641,65.678884 49.662532,49.662532 0 0 1 129.59068,133.32742 49.662532,49.662532 0 0 1 61.614123,119.03347 49.662532,49.662532 0 0 1 74.421743,50.761304 l 28.485217,40.68116 z m 3.84423,-2.0474 a 49.662532,49.662532 0 0 1 65.529257,23.0444 49.662532,49.662532 0 0 1 -21.60937,66.016366 49.662532,49.662532 0 0 1 -66.472117,-20.16409 49.662532,49.662532 0 0 1 18.70925,-66.896116 l 24.831247,43.009 z m 3.99847,-1.65094 a 49.662532,49.662532 0 0 1 63.271467,28.66792 49.662532,49.662532 0 0 1 -27.28087,63.881826 49.662532,49.662532 0 0 1 -64.461737,-25.88078 49.662532,49.662532 0 0 1 24.46843,-65.010976 l 20.988277,45.00955 z m 4.12878,-1.2977 a 49.662532,49.662532 0 0 1 60.532167,34.07327 49.662532,49.662532 0 0 1 -32.74473,61.260996 49.662532,49.662532 0 0 1 -61.960737,-31.40049 49.662532,49.662532 0 0 1 30.04135,-62.631006 l 16.985617,46.6675 z m 4.22444,-0.93161 a 49.662532,49.662532 0 0 1 57.332107,39.21938 49.662532,49.662532 0 0 1 -37.95939,58.174066 49.662532,49.662532 0 0 1 -58.988237,-36.68127 49.662532,49.662532 0 0 1 35.38571,-59.774426 l 12.853617,47.97032 z m 4.3016,-0.56925 a 49.662532,49.662532 0 0 1 53.695747,44.06689 49.662532,49.662532 0 0 1 -42.88514,54.644326 49.662532,49.662532 0 0 1 -55.566807,-41.682866 49.662532,49.662532 0 0 1 40.46072,-56.46285 l 8.623847,48.90803 z m 4.321997,-0.18385 a 49.662532,49.662532 0 0 1 49.65067,48.57917 49.662532,49.662532 0 0 1 -47.48443,50.698646 49.662532,49.662532 0 0 1 -51.722437,-46.367186 49.662532,49.662532 0 0 1 45.22779,-52.72163 l 4.328397,49.47353 z m 4.32369,0.19262 a 49.662532,49.662532 0 0 1 45.22779,52.72167 49.662532,49.662532 0 0 1 -51.72246,46.367146 49.662532,49.662532 0 0 1 -47.484407,-50.698626 49.662532,49.662532 0 0 1 49.650707,-48.57917 v 49.66259 z m 4.28822,0.5695 a 49.662532,49.662532 0 0 1 40.46073,56.46289 49.662532,49.662532 0 0 1 -55.566797,41.682846 49.662532,49.662532 0 0 1 -42.88509,-54.644286 49.662532,49.662532 0 0 1 53.695747,-44.06692 l -4.3284,49.47353 z m 4.25912,0.92172 a 49.662532,49.662532 0 0 1 35.38572,59.774416 49.662532,49.662532 0 0 1 -58.988257,36.68122 49.662532,49.662532 0 0 1 -37.95935,-58.173976 49.662532,49.662532 0 0 1 57.332067,-39.21938 l -8.62378,48.908 z m 4.12425,1.30547 a 49.662532,49.662532 0 0 1 30.04135,62.631026 49.662532,49.662532 0 0 1 -61.960797,31.40047 49.662532,49.662532 0 0 1 -32.7447,-61.260996 49.662532,49.662532 0 0 1 60.532137,-34.07329 l -12.85359,47.97034 z m 3.99704,1.65978 A 49.662532,49.662532 0 0 1 148.35593,111.41277 49.662532,49.662532 0 0 1 83.894223,137.29354 49.662532,49.662532 0 0 1 56.613393,73.411764 49.662532,49.662532 0 0 1 119.8848,44.743834 l -16.98554,46.66753 z m 3.83484,2.00183 a 49.662532,49.662532 0 0 1 18.70922,66.896116 49.662532,49.662532 0 0 1 -66.472097,20.16409 49.662532,49.662532 0 0 1 -21.60934,-66.016366 49.662532,49.662532 0 0 1 65.529207,-23.04437 l -20.98825,45.00955 z m 3.66117,2.3289 A 49.662532,49.662532 0 0 1 144.1912,119.00472 49.662532,49.662532 0 0 1 76.214663,133.29864 49.662532,49.662532 0 0 1 60.441213,65.650104 49.662532,49.662532 0 0 1 127.72954,48.404624 l -24.83125,43.00902 z m 3.429,2.63732 a 49.662532,49.662532 0 0 1 6.80857,69.128616 49.662532,49.662532 0 0 1 -68.963707,8.315 49.662532,49.662532 0 0 1 -9.81741,-68.765856 49.662532,49.662532 0 0 1 68.535297,-11.31525 l -28.48521,40.68117 z m 3.1883,2.92677 a 49.662532,49.662532 0 0 1 0.75769,69.459006 49.662532,49.662532 0 0 1 -69.425957,2.27276 49.662532,49.662532 0 0 1 -3.78671,-69.359826 49.662532,49.662532 0 0 1 69.260677,-5.29893 l -31.92243,38.04367 z m 2.91888,3.1927 a 49.662532,49.662532 0 0 1 -5.29887,69.260696 49.662532,49.662532 0 0 1 -69.359857,-3.78675 49.662532,49.662532 0 0 1 2.27277,-69.425916 49.662532,49.662532 0 0 1 69.458997,0.75767 l -35.11673,35.11674 z m -2.90541,67.057086 a 49.662532,49.662532 0 0 1 -69.459047,0.75767 49.662532,49.662532 0 0 1 -2.27272,-69.425886 49.662532,49.662532 0 0 1 69.359877,-3.78678 49.662532,49.662532 0 0 1 5.2989,69.260736 L 102.89759,91.429714 Z m -3.19268,2.91893 a 49.662532,49.662532 0 0 1 -69.260727,-5.29892 49.662532,49.662532 0 0 1 3.78673,-69.359866 49.662532,49.662532 0 0 1 69.425967,2.2728 49.662532,49.662532 0 0 1 -0.75773,69.458976 L 102.8992,91.421614 Z m -3.43598,2.63164 a 49.662532,49.662532 0 0 1 -68.535297,-11.31521 49.662532,49.662532 0 0 1 9.81741,-68.765926 49.662532,49.662532 0 0 1 68.963727,8.31503 49.662532,49.662532 0 0 1 -6.80861,69.128636 L 102.90047,91.415814 Z m -3.65103,2.32021 a 49.662532,49.662532 0 0 1 -67.288367,-17.24544 49.662532,49.662532 0 0 1 15.77347,-67.648596 49.662532,49.662532 0 0 1 67.976507,14.29398 49.662532,49.662532 0 0 1 -12.8076,68.272186 L 102.90337,91.408164 Z m -3.84746,2.00616 A 49.662532,49.662532 0 0 1 58.357913,113.37899 49.662532,49.662532 0 0 1 79.967303,47.362644 49.662532,49.662532 0 0 1 146.43937,67.526704 49.662532,49.662532 0 0 1 127.73018,134.4228 L 102.89893,91.413814 Z m -3.99848,1.65098 A 49.662532,49.662532 0 0 1 56.617233,109.40639 49.662532,49.662532 0 0 1 83.898073,45.524554 49.662532,49.662532 0 0 1 148.35983,71.405334 49.662532,49.662532 0 0 1 123.89145,136.41631 L 102.90312,91.406784 Z m -4.12878,1.29773 A 49.662532,49.662532 0 0 1 55.227763,105.29876 49.662532,49.662532 0 0 1 87.972513,44.037764 49.662532,49.662532 0 0 1 149.93323,75.438284 49.662532,49.662532 0 0 1 119.89189,138.06925 L 102.90627,91.401754 Z m -4.22445,0.9315 A 49.662532,49.662532 0 0 1 54.203413,101.08422 49.662532,49.662532 0 0 1 92.162763,42.910214 49.662532,49.662532 0 0 1 151.151,79.591464 49.662532,49.662532 0 0 1 115.76528,139.36589 L 102.91172,91.395544 Z m -4.31749,0.59063 A 49.662532,49.662532 0 0 1 53.522273,96.827244 49.662532,49.662532 0 0 1 96.407323,42.182974 49.662532,49.662532 0 0 1 151.97415,83.865784 49.662532,49.662532 0 0 1 111.51343,140.3287 l -8.62377,-48.908046 z m -4.322,0.18385 a 49.662532,49.662532 0 0 1 -49.650697,-48.579146 49.662532,49.662532 0 0 1 47.484487,-50.69868 49.662532,49.662532 0 0 1 51.72244,46.3672 49.662532,49.662532 0 0 1 -45.22785,52.721626 l -4.32838,-49.473576 z m -4.323667,-0.19264 a 49.662532,49.662532 0 0 1 -45.22783,-52.721676 49.662532,49.662532 0 0 1 51.722427,-46.36714 49.662532,49.662532 0 0 1 47.4845,50.69862 49.662532,49.662532 0 0 1 -49.6507,48.579146 l -2e-5,-49.662496 z m -4.28824,-0.56949 a 49.662532,49.662532 0 0 1 -40.46074,-56.462916 49.662532,49.662532 0 0 1 55.566837,-41.68281 49.662532,49.662532 0 0 1 42.88504,54.64422 49.662532,49.662532 0 0 1 -53.695677,44.066986 l 4.328337,-49.473526 z m -4.23694,-0.93627 a 49.662532,49.662532 0 0 1 -35.38566,-59.774446 49.662532,49.662532 0 0 1 58.988247,-36.68122 49.662532,49.662532 0 0 1 37.95934,58.174026 49.662532,49.662532 0 0 1 -57.332097,39.21939 l 8.623837,-48.908026 z m -4.12417,-1.30547 A 49.662532,49.662532 0 0 1 55.881603,75.443124 49.662532,49.662532 0 0 1 117.84238,44.042644 49.662532,49.662532 0 0 1 150.58705,105.30364 49.662532,49.662532 0 0 1 90.054943,139.37696 L 102.90856,91.406614 Z m -3.99705,-1.6598 A 49.662532,49.662532 0 0 1 57.457493,71.403374 49.662532,49.662532 0 0 1 121.91922,45.522604 49.662532,49.662532 0 0 1 149.20007,109.40439 49.662532,49.662532 0 0 1 85.928643,138.07231 L 102.9142,91.404804 Z m -3.83486,-2.00184 A 49.662532,49.662532 0 0 1 59.381843,67.516414 49.662532,49.662532 0 0 1 125.85393,47.352324 49.662532,49.662532 0 0 1 147.46329,113.36869 49.662532,49.662532 0 0 1 81.934063,136.41302 L 102.92234,91.403504 Z m -3.69518,-2.30547 a 49.662532,49.662532 0 0 1 -12.80764,-68.272236 49.662532,49.662532 0 0 1 67.976547,-14.2939 49.662532,49.662532 0 0 1 15.77346,67.648556 49.662532,49.662532 0 0 1 -67.288347,17.24542 L 102.88115,91.425884 Z m -3.42899,-2.63731 a 49.662532,49.662532 0 0 1 -6.80859,-69.128666 49.662532,49.662532 0 0 1 68.963707,-8.31502 49.662532,49.662532 0 0 1 9.81742,68.765896 49.662532,49.662532 0 0 1 -68.535317,11.31525 L 102.88938,91.426024 Z m -3.18832,-2.9268 a 49.662532,49.662532 0 0 1 -0.75769,-69.458996 49.662532,49.662532 0 0 1 69.425917,-2.27277 49.662532,49.662532 0 0 1 3.78677,69.359856 49.662532,49.662532 0 0 1 -69.260727,5.29892 L 102.89529,91.426244 Z m -2.91889,-3.19266 a 49.662532,49.662532 0 0 1 5.29889,-69.260726 49.662532,49.662532 0 0 1 69.359867,3.78674 49.662532,49.662532 0 0 1 -2.27282,69.425936 49.662532,49.662532 0 0 1 -69.458967,-0.75769 L 102.90337,91.427824 Z m -2.64386,-3.44064 a 49.662532,49.662532 0 0 1 11.31523,-68.535376 49.662532,49.662532 0 0 1 68.765837,9.81747 49.662532,49.662532 0 0 1 -8.31495,68.963686 49.662532,49.662532 0 0 1 -69.128627,-6.80856 L 102.89694,91.424374 Z m -2.3202,-3.65106 A 49.662532,49.662532 0 0 1 77.141053,48.970244 49.662532,49.662532 0 0 1 144.78961,64.743654 49.662532,49.662532 0 0 1 130.49566,132.72022 49.662532,49.662532 0 0 1 62.223513,119.91257 L 102.90465,91.427334 Z m -1.99499,-3.84072 a 49.662532,49.662532 0 0 1 23.04435,-65.529246 49.662532,49.662532 0 0 1 66.016397,21.60936 49.662532,49.662532 0 0 1 -20.16412,66.472056 49.662532,49.662532 0 0 1 -66.896087,-18.7092 L 102.91018,91.429594 Z m -1.65091,-3.99848 A 49.662532,49.662532 0 0 1 84.917583,45.147954 49.662532,49.662532 0 0 1 148.7994,72.428794 49.662532,49.662532 0 0 1 122.91861,136.89047 49.662532,49.662532 0 0 1 57.907643,112.42209 L 102.91716,91.433774 Z m -1.33141,-4.14934 A 49.662532,49.662532 0 0 1 88.991653,43.737924 49.662532,49.662532 0 0 1 150.25266,76.482594 49.662532,49.662532 0 0 1 118.85217,138.44335 49.662532,49.662532 0 0 1 56.221163,108.402 L 102.88867,91.416424 Z m -0.93152,-4.22442 A 49.662532,49.662532 0 0 1 93.206163,42.713514 49.662532,49.662532 0 0 1 151.38022,80.672854 49.662532,49.662532 0 0 1 114.69895,139.66111 49.662532,49.662532 0 0 1 54.924553,104.27543 L 102.89486,91.421814 Z m -0.56107,-4.291476 a 49.662532,49.662532 0 0 1 44.06695,-53.69569 49.662532,49.662532 0 0 1 54.644257,42.88506 49.662532,49.662532 0 0 1 -41.68285,55.566826 49.662532,49.662532 0 0 1 -56.462837,-40.4607 l 48.908047,-8.623856 z m -0.1838,-4.32196 a 49.662532,49.662532 0 0 1 48.579147,-49.65072 49.662532,49.662532 0 0 1 50.69864,47.48446 49.662532,49.662532 0 0 1 -46.36719,51.722466 49.662532,49.662532 0 0 1 -52.721617,-45.227816 l 49.473537,-4.32839 z m 0.18625,-4.33509 A 49.662532,49.662532 0 0 1 106.14987,41.869254 49.662532,49.662532 0 0 1 152.517,93.591704 49.662532,49.662532 0 0 1 101.81836,141.07618 49.662532,49.662532 0 0 1 53.239263,91.425454 h 49.662497 z m 0.56949,-4.28823 A 49.662532,49.662532 0 0 1 110.46058,42.348134 49.662532,49.662532 0 0 1 152.1434,97.914884 49.662532,49.662532 0 0 1 97.499143,140.79999 49.662532,49.662532 0 0 1 53.432213,87.104244 l 49.473517,4.32839 z m 0.94051,-4.2246 a 49.662532,49.662532 0 0 1 59.774437,-35.38567 49.662532,49.662532 0 0 1 36.68122,58.988236 49.662532,49.662532 0 0 1 -58.173987,37.95936 49.662532,49.662532 0 0 1 -39.21935,-57.332136 l 48.908037,8.62386 z m 1.30552,-4.12416 a 49.662532,49.662532 0 0 1 62.630967,-30.04136 49.662532,49.662532 0 0 1 31.40052,61.960736 49.662532,49.662532 0 0 1 -61.260997,32.74468 49.662532,49.662532 0 0 1 -34.07329,-60.532096 l 47.970307,12.8536 z m 1.64263,-4.05204 a 49.662532,49.662532 0 0 1 65.011007,-24.4684 49.662532,49.662532 0 0 1 25.88073,64.461696 49.662532,49.662532 0 0 1 -63.881787,27.28085 49.662532,49.662532 0 0 1 -28.66792,-63.271446 l 46.667497,16.98557 z m 2.00181,-3.8349 a 49.662532,49.662532 0 0 1 66.896147,-18.70921 49.662532,49.662532 0 0 1 20.16409,66.472126 49.662532,49.662532 0 0 1 -66.016377,21.60936 49.662532,49.662532 0 0 1 -23.04441,-65.529266 l 45.009567,20.98825 z m 2.32866,-3.6481 a 49.662532,49.662532 0 0 1 68.272197,-12.8076 49.662532,49.662532 0 0 1 14.29397,67.976536 49.662532,49.662532 0 0 1 -67.648577,15.77343 49.662532,49.662532 0 0 1 -17.2454,-67.288316 l 43.008967,24.83122 z m 2.63734,-3.42896 a 49.662532,49.662532 0 0 1 69.128677,-6.80857 49.662532,49.662532 0 0 1 8.31498,68.963676 49.662532,49.662532 0 0 1 -68.765907,9.81744 49.662532,49.662532 0 0 1 -11.31524,-68.535356 l 40.681177,28.48529 z m 2.92926,-3.20116 a 49.662532,49.662532 0 0 1 69.459017,-0.75769 49.662532,49.662532 0 0 1 2.27273,69.425916 49.662532,49.662532 0 0 1 -69.359827,3.78678 49.662532,49.662532 0 0 1 -5.29894,-69.260696 l 38.043737,31.92242 z m 3.19269,-2.91895 a 49.662532,49.662532 0 0 1 69.260697,5.29895 49.662532,49.662532 0 0 1 -3.78672,69.359866 49.662532,49.662532 0 0 1 -69.425947,-2.27279 49.662532,49.662532 0 0 1 0.75772,-69.459016 l 35.116727,35.11675 z m 3.43594,-2.63163 a 49.662532,49.662532 0 0 1 68.535347,11.31526 49.662532,49.662532 0 0 1 -9.81748,68.765886 49.662532,49.662532 0 0 1 -68.963637,-8.31504 49.662532,49.662532 0 0 1 6.80858,-69.128626 l 31.922417,38.0437 z m 3.65105,-2.32017 A 49.662532,49.662532 0 0 1 145.35144,65.669644 49.662532,49.662532 0 0 1 129.578,133.31821 49.662532,49.662532 0 0 1 61.601463,119.02423 49.662532,49.662532 0 0 1 74.409093,50.752044 l 28.485227,40.68117 z m 3.85511,-2.03164 a 49.662532,49.662532 0 0 1 65.529297,23.04439 49.662532,49.662532 0 0 1 -21.60937,66.016316 49.662532,49.662532 0 0 1 -66.472097,-20.16405 49.662532,49.662532 0 0 1 18.70922,-66.896136 l 24.831227,43.00902 z m 3.99848,-1.65096 A 49.662532,49.662532 0 0 1 149.18815,73.409564 49.662532,49.662532 0 0 1 121.9073,137.29133 49.662532,49.662532 0 0 1 57.445573,111.41058 49.662532,49.662532 0 0 1 81.913983,46.399624 l 20.988297,45.00955 z m 4.12883,-1.29777 A 49.662532,49.662532 0 0 1 150.57761,77.517164 49.662532,49.662532 0 0 1 117.83292,138.7782 49.662532,49.662532 0 0 1 55.872163,107.37767 49.662532,49.662532 0 0 1 85.913523,44.746684 l 16.985607,46.66745 z m 4.22442,-0.93148 a 49.662532,49.662532 0 0 1 57.332107,39.21936 49.662532,49.662532 0 0 1 -37.95937,58.174016 49.662532,49.662532 0 0 1 -58.988237,-36.68128 49.662532,49.662532 0 0 1 35.3857,-59.774376 l 12.853587,47.97033 z m 4.3016,-0.56935 a 49.662532,49.662532 0 0 1 53.695717,44.06699 49.662532,49.662532 0 0 1 -42.88508,54.644206 49.662532,49.662532 0 0 1 -55.566807,-41.682796 49.662532,49.662532 0 0 1 40.46069,-56.46286 l 8.623867,48.90801 z m 4.321977,-0.18379 A 49.662532,49.662532 0 0 1 152.5442,90.338364 49.662532,49.662532 0 0 1 105.05976,141.037 49.662532,49.662532 0 0 1 53.337263,94.669834 49.662532,49.662532 0 0 1 98.565113,41.948204 l 4.328387,49.47355 z m 4.32365,0.19262 A 49.662532,49.662532 0 0 1 152.445,94.673454 49.662532,49.662532 0 0 1 100.72257,141.04064 49.662532,49.662532 0 0 1 53.238073,90.341984 49.662532,49.662532 0 0 1 102.88881,41.762854 v 49.66251 z m 4.28827,0.56949 a 49.662532,49.662532 0 0 1 40.46071,56.46284 49.662532,49.662532 0 0 1 -55.566757,41.682876 49.662532,49.662532 0 0 1 -42.88509,-54.644286 49.662532,49.662532 0 0 1 53.695737,-44.06695 l -4.3284,49.47359 z m 4.26086,0.90261 a 49.662532,49.662532 0 0 1 35.38572,59.774446 49.662532,49.662532 0 0 1 -58.988257,36.68124 49.662532,49.662532 0 0 1 -37.95935,-58.174026 49.662532,49.662532 0 0 1 57.332067,-39.21938 l -8.62378,48.90803 z m 4.12424,1.30552 a 49.662532,49.662532 0 0 1 30.04136,62.631006 49.662532,49.662532 0 0 1 -61.960797,31.4005 49.662532,49.662532 0 0 1 -32.7447,-61.260976 49.662532,49.662532 0 0 1 60.532117,-34.07332 l -12.8536,47.9703 z m 3.99704,1.65981 A 49.662532,49.662532 0 0 1 148.35591,111.4002 49.662532,49.662532 0 0 1 83.894223,137.28097 49.662532,49.662532 0 0 1 56.613393,73.399194 49.662532,49.662532 0 0 1 119.8848,44.731254 l -16.98552,46.66755 z m 3.83485,2.00178 a 49.662532,49.662532 0 0 1 18.70922,66.896146 49.662532,49.662532 0 0 1 -66.472097,20.16408 49.662532,49.662532 0 0 1 -21.60934,-66.016416 49.662532,49.662532 0 0 1 65.529207,-23.04433 l -20.98825,45.00957 z m 3.66117,2.32891 a 49.662532,49.662532 0 0 1 12.80765,68.272186 49.662532,49.662532 0 0 1 -67.976557,14.29392 49.662532,49.662532 0 0 1 -15.77345,-67.648536 49.662532,49.662532 0 0 1 67.288317,-17.24545 l -24.83124,43.00902 z m 3.42902,2.63731 a 49.662532,49.662532 0 0 1 6.80855,69.128646 49.662532,49.662532 0 0 1 -68.963707,8.31498 49.662532,49.662532 0 0 1 -9.81741,-68.765886 49.662532,49.662532 0 0 1 68.535297,-11.31518 l -28.48521,40.68115 z m 3.18827,2.92677 a 49.662532,49.662532 0 0 1 0.7577,69.458996 49.662532,49.662532 0 0 1 -69.425957,2.27277 49.662532,49.662532 0 0 1 -3.78671,-69.359856 49.662532,49.662532 0 0 1 69.260667,-5.29889 l -31.92242,38.04369 z m 2.91889,3.1927 a 49.662532,49.662532 0 0 1 -5.29887,69.260696 49.662532,49.662532 0 0 1 -69.359857,-3.78672 49.662532,49.662532 0 0 1 2.27278,-69.425966 49.662532,49.662532 0 0 1 69.459007,0.75769 l -35.11675,35.11677 z m 2.67025,3.44376 a 49.662532,49.662532 0 0 1 -11.31524,68.535356 49.662532,49.662532 0 0 1 -68.765837,-9.81747 49.662532,49.662532 0 0 1 8.31497,-68.963696 49.662532,49.662532 0 0 1 69.128657,6.80859 l -38.04369,31.92244 z m 2.32021,3.65104 a 49.662532,49.662532 0 0 1 -17.24545,67.288346 49.662532,49.662532 0 0 1 -67.648567,-15.7734 49.662532,49.662532 0 0 1 14.29395,-67.976556 49.662532,49.662532 0 0 1 68.272207,12.80762 l -40.68117,28.48526 z m 1.99499,3.84073 a 49.662532,49.662532 0 0 1 -23.04434,65.529266 49.662532,49.662532 0 0 1 -66.016407,-21.60936 49.662532,49.662532 0 0 1 20.16412,-66.472066 49.662532,49.662532 0 0 1 66.896087,18.70921 l -43.009,24.83125 z m 1.65091,3.9985 a 49.662532,49.662532 0 0 1 -28.66789,63.271426 49.662532,49.662532 0 0 1 -63.881817,-27.28084 49.662532,49.662532 0 0 1 25.88079,-64.461696 49.662532,49.662532 0 0 1 65.010967,24.46839 l -45.00952,20.98828 z m 1.30766,4.13738 a 49.662532,49.662532 0 0 1 -34.07328,60.532116 49.662532,49.662532 0 0 1 -61.260997,-32.7447 49.662532,49.662532 0 0 1 31.40047,-61.960796 49.662532,49.662532 0 0 1 62.631007,30.04137 l -46.66753,16.9856 z m 0.93152,4.22439 a 49.662532,49.662532 0 0 1 -39.21937,57.332086 49.662532,49.662532 0 0 1 -58.173997,-37.95933 49.662532,49.662532 0 0 1 36.68125,-58.988236 49.662532,49.662532 0 0 1 59.774387,35.38567 l -47.97035,12.85362 z m 0.56107,4.29142 A 49.662532,49.662532 0 0 1 108.28947,140.7597 49.662532,49.662532 0 0 1 53.645183,97.874584 49.662532,49.662532 0 0 1 95.328013,42.307844 49.662532,49.662532 0 0 1 151.7909,82.768574 l -48.90805,8.62377 z m 0.18384,4.32202 a 49.662532,49.662532 0 0 1 -48.57913,49.650726 49.662532,49.662532 0 0 1 -50.698647,-47.484486 49.662532,49.662532 0 0 1 46.36719,-51.72243 49.662532,49.662532 0 0 1 52.721617,45.22783 l -49.47361,4.32836 z"
       style="opacity:1;fill:#ffffff;fill-opacity:0;stroke:#000000;stroke-width:0.60065;stroke-miterlimit:4;stroke-dasharray:none;stroke-dashoffset:13.8784;stroke-opacity:1"
       id="path3923-3-3-8-8-4-2-3"
       inkscape:export-xdpi="139.70197"
       inkscape:export-ydpi="139.70197" />
    <g
       style="opacity:1"
       id="g3837" />
    <circle
       r="49.311451"
       cy="91.384201"
       cx="102.87679"
       id="path4171"
       style="opacity:1;fill:#ffffff;fill-opacity:0;stroke:#ffffff;stroke-width:1.3028;stroke-miterlimit:4;stroke-dasharray:none;stroke-dashoffset:13.8784;stroke-opacity:1"
       inkscape:export-xdpi="139.70197"
       inkscape:export-ydpi="139.70197" />
    <text
       id="text4419"
       y="151.98903"
       x="205.04785"
       style="font-style:normal;font-variant:normal;font-weight:bold;font-stretch:normal;font-size:8.46667px;line-height:1.25;font-family:sans-serif;-inkscape-font-specification:'sans-serif, Bold';font-variant-ligatures:normal;font-variant-caps:normal;font-variant-numeric:normal;font-variant-east-asian:normal;fill:#000000;fill-opacity:1;stroke:none;stroke-width:0.264583"
       xml:space="preserve"><tspan
         style="font-style:normal;font-variant:normal;font-weight:bold;font-stretch:normal;font-size:8.46667px;font-family:sans-serif;-inkscape-font-specification:'sans-serif, Bold';font-variant-ligatures:normal;font-variant-caps:normal;font-variant-numeric:normal;font-variant-east-asian:normal;stroke-width:0.264583"
         y="151.98903"
         x="205.04785"
         id="tspan4417"
         sodipodi:role="line">N</tspan></text>
    <path
       inkscape:connector-curvature="0"
       d="m 145.65894,116.08918 a 49.395882,49.394741 30 0 1 -61.680507,20.93694 49.395882,49.394741 30 0 1 -28.81022,-58.419726 49.395882,49.394741 30 0 1 54.159577,-36.18753 49.395882,49.394741 30 0 1 42.94864,48.97288 l -49.39555,-4.9e-4 z m -18.07899,18.08985 a 49.395882,49.394741 60 0 1 -63.885337,-12.70834 49.395882,49.394741 60 0 1 4.25949,-64.998116 49.395882,49.394741 60 0 1 64.997317,-4.25951 49.395882,49.394741 60 0 1 12.70819,63.886066 L 102.882,91.401004 Z m -24.69172,6.6046 A 49.394741,49.395882 0 0 1 53.916073,97.835264 49.394741,49.395882 0 0 1 90.103923,43.675004 49.394741,49.395882 0 0 1 148.52306,72.484764 49.394741,49.395882 0 0 1 127.58559,134.16588 L 102.88816,91.387864 Z m -24.705747,-6.6119 a 49.394741,49.395882 30 0 1 -20.93693,-61.680506 49.394741,49.395882 30 0 1 58.419717,-28.81021 49.394741,49.395882 30 0 1 36.18757,54.15956 49.394741,49.395882 30 0 1 -48.97287,42.948666 l 4.8e-4,-49.395616 z m -18.07826,-18.07852 a 49.394741,49.395882 60 0 1 12.70834,-63.885316 49.394741,49.395882 60 0 1 64.998077,4.2595 49.394741,49.395882 60 0 1 4.25957,64.997296 49.394741,49.395882 60 0 1 -63.886117,12.70817 L 102.88233,91.395274 Z m -6.62679,-24.701746 a 49.395882,49.394741 0 0 1 42.94843,-48.97215 49.395882,49.394741 0 0 1 54.160217,36.18787 49.395882,49.394741 0 0 1 -28.80975,58.419086 49.395882,49.394741 0 0 1 -61.681067,-20.93745 L 102.87329,91.391394 Z m 6.62612,-24.68602 a 49.395882,49.394741 30 0 1 61.680457,-20.93688 49.395882,49.394741 30 0 1 28.81021,58.419716 49.395882,49.394741 30 0 1 -54.159527,36.18755 49.395882,49.394741 30 0 1 -42.94867,-48.972916 l 49.395587,4.9e-4 z m 18.07895,-18.08982 a 49.395882,49.394741 60 0 1 63.885357,12.70837 49.395882,49.394741 60 0 1 -4.2595,64.998046 49.395882,49.394741 60 0 1 -64.997297,4.25955 49.395882,49.394741 60 0 1 -12.70819,-63.886116 l 42.777607,24.69824 z m -18.07827,67.469396 a 49.394741,49.395882 60 0 1 12.70833,-63.885336 49.394741,49.395882 60 0 1 64.998077,4.25951 49.394741,49.395882 60 0 1 4.25957,64.997296 49.394741,49.395882 60 0 1 -63.886097,12.70818 L 102.88233,91.387104 Z m -6.6268,-24.701796 A 49.395882,49.394741 0 0 1 96.425883,42.411064 49.395882,49.394741 0 0 1 150.5861,78.598984 49.395882,49.394741 0 0 1 121.77635,137.01805 49.395882,49.394741 0 0 1 60.095283,116.08063 L 102.87331,91.383164 Z m 6.62612,-24.68595 a 49.395882,49.394741 30 0 1 61.680477,-20.93694 49.395882,49.394741 30 0 1 28.81019,58.419726 49.395882,49.394741 30 0 1 -54.159517,36.18756 49.395882,49.394741 30 0 1 -42.94868,-48.972926 l 49.395617,4.9e-4 z m 18.07895,-18.08982 a 49.395882,49.394741 60 0 1 63.885367,12.70829 49.395882,49.394741 60 0 1 -4.25951,64.998076 49.395882,49.394741 60 0 1 -64.997287,4.25956 49.395882,49.394741 60 0 1 -12.7082,-63.886076 l 42.777607,24.69819 z m 24.695577,-6.61701 a 49.394741,49.395882 0 0 1 48.97219,42.94846 49.394741,49.395882 0 0 1 -36.18787,54.160186 49.394741,49.395882 0 0 1 -58.419107,-28.80978 49.394741,49.395882 0 0 1 20.93744,-61.681056 l 24.697337,42.77806 z m 24.70575,6.61195 a 49.394741,49.395882 30 0 1 20.93695,61.680486 49.394741,49.395882 30 0 1 -58.419747,28.81018 49.394741,49.395882 30 0 1 -36.18751,-54.159526 49.394741,49.395882 30 0 1 48.972837,-42.94867 l -4.8e-4,49.39562 z m 18.06565,18.08131 a 49.394743,49.395882 60 0 1 -12.70833,63.885356 49.394743,49.395882 60 0 1 -64.998057,-4.2595 49.394743,49.395882 60 0 1 -4.25954,-64.997306 49.394743,49.395882 60 0 1 63.886037,-12.70821 l -24.69819,42.77761 z m 6.62674,24.70178 a 49.395882,49.394743 0 0 1 -42.9484,48.972196 49.395882,49.394743 0 0 1 -54.160247,-36.18787 49.395882,49.394743 0 0 1 28.80979,-58.419116 49.395882,49.394743 0 0 1 61.681087,20.93745 l -42.77806,24.69734 z"
       style="opacity:1;fill:#ffffff;fill-opacity:0;stroke:#000000;stroke-width:1.12692;stroke-miterlimit:4;stroke-dasharray:none;stroke-dashoffset:13.8784;stroke-opacity:1"
       id="path3923-8-4-5-0-1-5"
       inkscape:export-xdpi="139.70197"
       inkscape:export-ydpi="139.70197" />
    <g
       transform="translate(-3.08e-4)"
       style="opacity:1"
       id="g877">
      <path
         inkscape:connector-curvature="0"
         id="path879"
         d="m 142.51271,91.384201 c 0,21.890309 -17.74561,39.635919 -39.63592,39.635919 -21.890313,0 -39.635918,-17.74561 -39.635919,-39.635919 0,-21.890314 17.745605,-39.63592 39.635919,-39.635921 21.89031,10e-7 39.63592,17.745607 39.63592,39.635921"
         style="color:#000000;font-style:normal;font-variant:normal;font-weight:normal;font-stretch:normal;font-size:medium;line-height:normal;font-family:sans-serif;font-variant-ligatures:normal;font-variant-position:normal;font-variant-caps:normal;font-variant-numeric:normal;font-variant-alternates:normal;font-variant-east-asian:normal;font-feature-settings:normal;font-variation-settings:normal;text-indent:0;text-align:start;text-decoration:none;text-decoration-line:none;text-decoration-style:solid;text-decoration-color:#000000;letter-spacing:normal;word-spacing:normal;text-transform:none;writing-mode:lr-tb;direction:ltr;text-orientation:mixed;dominant-baseline:auto;baseline-shift:baseline;text-anchor:start;white-space:normal;shape-padding:0;shape-margin:0;inline-size:0;clip-rule:nonzero;display:inline;overflow:visible;visibility:visible;isolation:auto;mix-blend-mode:normal;color-interpolation:sRGB;color-interpolation-filters:linearRGB;solid-color:#000000;solid-opacity:1;vector-effect:none;fill:#ffffff;fill-opacity:1;fill-rule:nonzero;stroke:none;stroke-width:0.668718;stroke-linecap:butt;stroke-linejoin:miter;stroke-miterlimit:4;stroke-dasharray:none;stroke-dashoffset:13.8784;stroke-opacity:1;color-rendering:auto;image-rendering:auto;shape-rendering:auto;text-rendering:auto;enable-background:accumulate;stop-color:#000000;stop-opacity:1" />
      <path
         inkscape:connector-curvature="0"
         id="path881"
         d="m 102.87695,51.414062 c -22.071012,2e-6 -39.9707,17.899689 -39.9707,39.970704 10e-7,22.071014 17.899689,39.968744 39.9707,39.968754 22.07102,0 39.97071,-17.89774 39.97071,-39.968754 0,-22.071016 -17.89969,-39.970703 -39.97071,-39.970704 z m 0,0.667969 c 21.70962,10e-7 39.30078,17.593121 39.30078,39.302735 0,21.709614 -17.59116,39.300784 -39.30078,39.300784 -21.709609,0 -39.300777,-17.59117 -39.300778,-39.300784 0,-21.709613 17.591168,-39.302734 39.300778,-39.302735 z"
         style="color:#000000;font-style:normal;font-variant:normal;font-weight:normal;font-stretch:normal;font-size:medium;line-height:normal;font-family:sans-serif;font-variant-ligatures:normal;font-variant-position:normal;font-variant-caps:normal;font-variant-numeric:normal;font-variant-alternates:normal;font-variant-east-asian:normal;font-feature-settings:normal;font-variation-settings:normal;text-indent:0;text-align:start;text-decoration:none;text-decoration-line:none;text-decoration-style:solid;text-decoration-color:#000000;letter-spacing:normal;word-spacing:normal;text-transform:none;writing-mode:lr-tb;direction:ltr;text-orientation:mixed;dominant-baseline:auto;baseline-shift:baseline;text-anchor:start;white-space:normal;shape-padding:0;shape-margin:0;inline-size:0;clip-rule:nonzero;display:inline;overflow:visible;visibility:visible;isolation:auto;mix-blend-mode:normal;color-interpolation:sRGB;color-interpolation-filters:linearRGB;solid-color:#000000;solid-opacity:1;vector-effect:none;fill:#000000;fill-opacity:0;fill-rule:nonzero;stroke:none;stroke-width:0.668718;stroke-linecap:butt;stroke-linejoin:miter;stroke-miterlimit:4;stroke-dasharray:none;stroke-dashoffset:13.8784;stroke-opacity:1;color-rendering:auto;image-rendering:auto;shape-rendering:auto;text-rendering:auto;enable-background:accumulate;stop-color:#000000;stop-opacity:1" />
    </g>
    <g
       style="stroke:#030000;stroke-opacity:1"
       id="g3467">
      <text
         inkscape:export-ydpi="139.70197"
         inkscape:export-xdpi="139.70197"
         xml:space="preserve"
         style="font-style:normal;font-variant:normal;font-weight:normal;font-stretch:normal;font-size:12.7905px;line-height:1.25;font-family:sans-serif;-inkscape-font-specification:'sans-serif, Normal';font-variant-ligatures:normal;font-variant-caps:normal;font-variant-numeric:normal;font-variant-east-asian:normal;fill:#000000;fill-opacity:1;stroke:#030000;stroke-width:0.399707;stroke-opacity:1"
         x="98.030449"
         y="64.710388"
         id="text4423"><tspan
           sodipodi:role="line"
           id="tspan4421"
           x="98.030449"
           y="64.710388"
           style="font-style:normal;font-variant:normal;font-weight:normal;font-stretch:normal;font-size:12.7905px;font-family:sans-serif;-inkscape-font-specification:'sans-serif, Normal';font-variant-ligatures:normal;font-variant-caps:normal;font-variant-numeric:normal;font-variant-east-asian:normal;stroke:#030000;stroke-width:0.399707;stroke-opacity:1">N</tspan></text>
      <text
         inkscape:export-ydpi="139.70197"
         inkscape:export-xdpi="139.70197"
         xml:space="preserve"
         style="font-style:normal;font-variant:normal;font-weight:normal;font-stretch:normal;font-size:12.7905px;line-height:1.25;font-family:sans-serif;-inkscape-font-specification:'sans-serif, Normal';font-variant-ligatures:normal;font-variant-caps:normal;font-variant-numeric:normal;font-variant-east-asian:normal;fill:#000000;fill-opacity:1;stroke:#030000;stroke-width:0.399707;stroke-opacity:1"
         x="65.430573"
         y="96.332901"
         id="text4455"><tspan
           sodipodi:role="line"
           id="tspan4453"
           x="65.430573"
           y="96.332901"
           style="font-style:normal;font-variant:normal;font-weight:normal;font-stretch:normal;font-size:12.7905px;font-family:sans-serif;-inkscape-font-specification:'sans-serif, Normal';font-variant-ligatures:normal;font-variant-caps:normal;font-variant-numeric:normal;font-variant-east-asian:normal;stroke:#030000;stroke-width:0.399707;stroke-opacity:1">W</tspan></text>
      <text
         inkscape:export-ydpi="139.70197"
         inkscape:export-xdpi="139.70197"
         xml:space="preserve"
         style="font-style:normal;font-variant:normal;font-weight:normal;font-stretch:normal;font-size:12.7905px;line-height:1.25;font-family:sans-serif;-inkscape-font-specification:'sans-serif, Normal';font-variant-ligatures:normal;font-variant-caps:normal;font-variant-numeric:normal;font-variant-east-asian:normal;fill:#000000;fill-opacity:1;stroke:#030000;stroke-width:0.399707;stroke-opacity:1"
         x="130.83983"
         y="96.332916"
         id="text4459"><tspan
           sodipodi:role="line"
           id="tspan4457"
           x="130.83983"
           y="96.332916"
           style="font-style:normal;font-variant:normal;font-weight:normal;font-stretch:normal;font-size:12.7905px;font-family:sans-serif;-inkscape-font-specification:'sans-serif, Normal';font-variant-ligatures:normal;font-variant-caps:normal;font-variant-numeric:normal;font-variant-east-asian:normal;stroke:#030000;stroke-width:0.399707;stroke-opacity:1">E</tspan></text>
      <text
         inkscape:export-ydpi="139.70197"
         inkscape:export-xdpi="139.70197"
         xml:space="preserve"
         style="font-style:normal;font-variant:normal;font-weight:normal;font-stretch:normal;font-size:12.7905px;line-height:1.25;font-family:sans-serif;-inkscape-font-specification:'sans-serif, Normal';font-variant-ligatures:normal;font-variant-caps:normal;font-variant-numeric:normal;font-variant-east-asian:normal;fill:#000000;fill-opacity:1;stroke:#030000;stroke-width:0.399707;stroke-opacity:1"
         x="97.731407"
         y="126.61491"
         id="text4463"><tspan
           sodipodi:role="line"
           id="tspan4461"
           x="97.731407"
           y="126.61491"
           style="font-style:normal;font-variant:normal;font-weight:normal;font-stretch:normal;font-size:12.7905px;font-family:sans-serif;-inkscape-font-specification:'sans-serif, Normal';font-variant-ligatures:normal;font-variant-caps:normal;font-variant-numeric:normal;font-variant-east-asian:normal;stroke:#030000;stroke-width:0.399707;stroke-opacity:1">S</tspan></text>
    </g>
  </g>
</svg>
