<?xml version="1.0" encoding="UTF-8" standalone="no"?>
<svg
   xmlns:osb="http://www.openswatchbook.org/uri/2009/osb"
   xmlns:dc="http://purl.org/dc/elements/1.1/"
   xmlns:cc="http://creativecommons.org/ns#"
   xmlns:rdf="http://www.w3.org/1999/02/22-rdf-syntax-ns#"
   xmlns:svg="http://www.w3.org/2000/svg"
   xmlns="http://www.w3.org/2000/svg"
   xmlns:sodipodi="http://sodipodi.sourceforge.net/DTD/sodipodi-0.dtd"
   xmlns:inkscape="http://www.inkscape.org/namespaces/inkscape"
   width="793.70081"
   height="1122.5197"
   viewBox="0 0 210 297"
   version="1.1"
   id="svg16"
   inkscape:version="1.0rc1 (09960d6, 2020-04-09)"
   sodipodi:docname="c_rose_wht_0.svg">
  <defs
     id="defs10">
    <inkscape:path-effect
       fuse_tolerance="0"
       hide_knot="false"
       vertical_pattern="false"
       prop_units="false"
       tang_offset="0"
       normal_offset="0"
       spacing="15.65"
       scale_y_rel="false"
       prop_scale="1"
       copytype="repeated_stretched"
       pattern="#path15662"
       lpeversion="1"
       is_visible="true"
       id="path-effect16097"
       effect="skeletal" />
    <inkscape:path-effect
       fuse_tolerance="0"
       hide_knot="false"
       vertical_pattern="false"
       prop_units="false"
       tang_offset="0"
       normal_offset="0"
       spacing="0"
       scale_y_rel="false"
       prop_scale="1"
       copytype="repeated_stretched"
       pattern="M 0,0 H 1"
       lpeversion="1"
       is_visible="true"
       id="path-effect16081"
       effect="skeletal" />
    <marker
       inkscape:isstock="true"
       style="overflow:visible"
       id="marker15978"
       refX="0"
       refY="0"
       orient="auto"
       inkscape:stockid="Arrow1Lstart">
      <path
         inkscape:connector-curvature="0"
         transform="matrix(0.8,0,0,0.8,10,0)"
         style="fill-rule:evenodd;stroke:#000000;stroke-width:1pt"
         d="M 0,0 5,-5 -12.5,0 5,5 Z"
         id="path15976" />
    </marker>
    <marker
       inkscape:isstock="true"
       style="overflow:visible"
       id="Arrow1Lstart"
       refX="0"
       refY="0"
       orient="auto"
       inkscape:stockid="Arrow1Lstart">
      <path
         inkscape:connector-curvature="0"
         transform="matrix(0.8,0,0,0.8,10,0)"
         style="fill-rule:evenodd;stroke:#000000;stroke-width:1pt"
         d="M 0,0 5,-5 -12.5,0 5,5 Z"
         id="path15694" />
    </marker>
    <inkscape:path-effect
       effect="skeletal"
       id="path-effect15686"
       is_visible="true"
       lpeversion="1"
       pattern="#path15662"
       copytype="repeated_stretched"
       prop_scale="1"
       scale_y_rel="false"
       spacing="15.75"
       normal_offset="0"
       tang_offset="0"
       prop_units="false"
       vertical_pattern="false"
       hide_knot="false"
       fuse_tolerance="0" />
    <inkscape:path-effect
       fuse_tolerance="0"
       hide_knot="false"
       vertical_pattern="false"
       prop_units="false"
       tang_offset="0"
       normal_offset="0"
       spacing="2.63"
       scale_y_rel="false"
       prop_scale="1"
       copytype="repeated_stretched"
       pattern="#path15662"
       lpeversion="1"
       is_visible="true"
       id="path-effect15488"
       effect="skeletal" />
    <marker
       inkscape:stockid="DiamondL"
       orient="auto"
       refY="0"
       refX="0"
       id="DiamondL"
       style="overflow:visible"
       inkscape:isstock="true">
      <path
         inkscape:connector-curvature="0"
         id="path3354"
         d="M 0,-7.0710768 -7.0710894,0 0,7.0710589 7.0710462,0 Z"
         style="fill:#ffffff;fill-opacity:0;fill-rule:evenodd;stroke:#000000;stroke-width:1pt;stroke-opacity:1"
         transform="scale(0.8)" />
    </marker>
    <marker
       inkscape:stockid="Arrow1Mend"
       orient="auto"
       refY="0"
       refX="0"
       id="Arrow1Mend"
       style="overflow:visible"
       inkscape:isstock="true">
      <path
         inkscape:connector-curvature="0"
         id="path3284"
         d="M 0,0 5,-5 -12.5,0 5,5 Z"
         style="fill:#ffffff;fill-opacity:0;fill-rule:evenodd;stroke:#000000;stroke-width:1pt;stroke-opacity:1"
         transform="matrix(-0.4,0,0,-0.4,-4,0)" />
    </marker>
    <linearGradient
       id="linearGradient3041"
       osb:paint="solid">
      <stop
         style="stop-color:#ffffff;stop-opacity:1;"
         offset="0"
         id="stop3039" />
    </linearGradient>
    <linearGradient
       id="linearGradient2936"
       osb:paint="solid">
      <stop
         style="stop-color:#0000ff;stop-opacity:1;"
         offset="0"
         id="stop2934" />
    </linearGradient>
    <inkscape:perspective
       sodipodi:type="inkscape:persp3d"
       inkscape:vp_x="58.571016 : 176.23411 : 1"
       inkscape:vp_y="-992.30947 : 562.14418 : 0"
       inkscape:vp_z="134.75114 : 379.4006 : 1"
       inkscape:persp3d-origin="147.65872 : 159.82757 : 1"
       id="perspective880" />
    <linearGradient
       id="linearGradient874"
       osb:paint="solid">
      <stop
         style="stop-color:#000000;stop-opacity:1;"
         offset="0"
         id="stop872" />
    </linearGradient>
  </defs>
  <sodipodi:namedview
     units="px"
     id="base"
     pagecolor="#ffffff"
     bordercolor="#666666"
     borderopacity="1.0"
     inkscape:pageopacity="0.0"
     inkscape:pageshadow="2"
     inkscape:zoom="1.231503"
     inkscape:cx="278.74286"
     inkscape:cy="430.10263"
     inkscape:document-units="mm"
     inkscape:current-layer="layer1"
     inkscape:document-rotation="0"
     showgrid="false"
     showguides="false"
     inkscape:window-width="1593"
     inkscape:window-height="943"
     inkscape:window-x="0"
     inkscape:window-y="23"
     inkscape:window-maximized="0">
    <inkscape:grid
       id="grid16162"
       type="xygrid" />
  </sodipodi:namedview>
  <metadata
     id="metadata13">
    <rdf:RDF>
      <cc:Work
         rdf:about="">
        <dc:format>image/svg+xml</dc:format>
        <dc:type
           rdf:resource="http://purl.org/dc/dcmitype/StillImage" />
        <dc:title></dc:title>
      </cc:Work>
    </rdf:RDF>
  </metadata>
  <g
     inkscape:label="Layer 1"
     inkscape:groupmode="layer"
     id="layer1">
    <g
       id="g3837"
       style="opacity:1" />
    <circle
       r="32.874119"
       cy="37.150463"
       cx="165.17256"
       id="path3923-8"
       style="opacity:1;fill:#ffffff;fill-opacity:1;stroke:#000000;stroke-width:0.397597;stroke-miterlimit:4;stroke-dasharray:none;stroke-dashoffset:13.8784;stroke-opacity:1" />
    <path
       d="M 120.47367,36.90377 A 32.874119,32.874119 0 0 1 85.574546,66.84235 32.874119,32.874119 0 0 1 54.881817,32.60465 32.874119,32.874119 0 0 1 88.441788,1.1723044 32.874119,32.874119 0 0 1 120.59876,34.0386 H 87.724656 Z m -0.37696,2.83861 A 32.874119,32.874119 0 0 1 82.721079,66.52537 32.874119,32.874119 0 0 1 55.129117,29.7429 32.874119,32.874119 0 0 1 91.300897,1.3551244 32.874119,32.874119 0 0 1 120.47104,36.89899 L 87.721997,34.03384 Z m -0.62258,2.79643 A 32.874119,32.874119 0 0 1 79.906447,65.9624 32.874119,32.874119 0 0 1 55.625277,26.9151 32.874119,32.874119 0 0 1 94.133598,1.7879144 32.874119,32.874119 0 0 1 120.09485,39.73889 L 87.720177,34.03038 Z m -0.86415,2.73002 A 32.874119,32.874119 0 0 1 77.151358,65.15473 32.874119,32.874119 0 0 1 56.365777,24.13977 32.874119,32.874119 0 0 1 96.917538,2.4644244 32.874119,32.874119 0 0 1 119.47237,42.53367 L 87.718399,34.02522 Z m -1.09737,2.6544 A 32.874119,32.874119 0 0 1 74.478588,64.12008 32.874119,32.874119 0 0 1 57.346827,21.44964 32.874119,32.874119 0 0 1 99.633378,3.3910744 32.874119,32.874119 0 0 1 118.61012,45.27361 L 87.718568,34.03002 Z m -1.32508,2.5385 A 32.874119,32.874119 0 0 1 71.905608,62.84627 32.874119,32.874119 0 0 1 58.557977,18.84507 32.874119,32.874119 0 0 1 102.25755,4.5407444 32.874119,32.874119 0 0 1 117.51176,47.91784 L 87.717687,34.02466 Z m -1.54148,2.41484 A 32.874119,32.874119 0 0 1 69.453267,61.35459 32.874119,32.874119 0 0 1 59.991397,16.35749 32.874119,32.874119 0 0 1 104.77137,5.9162844 32.874119,32.874119 0 0 1 116.18697,50.4578 L 87.717147,34.02076 Z m -1.74577,2.26983 A 32.874119,32.874119 0 0 1 67.140568,59.65333 32.874119,32.874119 0 0 1 61.636457,14.0028 32.874119,32.874119 0 0 1 107.15603,7.5041544 32.874119,32.874119 0 0 1 114.64616,52.87113 L 87.717248,34.01532 Z m -1.93803,2.13655 A 32.874119,32.874119 0 0 1 64.983837,57.78451 32.874119,32.874119 0 0 1 63.479387,11.82799 32.874119,32.874119 0 0 1 109.39214,9.3213544 32.874119,32.874119 0 0 1 112.89978,55.1685 L 87.716737,34.03742 Z m -2.1134,1.93218 A 32.874119,32.874119 0 0 1 63.001697,55.70751 32.874119,32.874119 0 0 1 65.508337,9.7947344 32.874119,32.874119 0 0 1 111.46485,11.2992 32.874119,32.874119 0 0 1 110.96329,57.2776 L 87.717767,34.03208 Z m -2.27443,1.74202 A 32.874119,32.874119 0 0 1 61.207437,53.46703 32.874119,32.874119 0 0 1 67.706097,7.9474444 32.874119,32.874119 0 0 1 113.35662,13.45156 32.874119,32.874119 0 0 1 108.84968,59.21126 L 87.718608,34.02825 Z m -2.41681,1.53584 A 32.874119,32.874119 0 0 1 59.616057,51.07738 32.874119,32.874119 0 0 1 70.057297,6.2974044 32.874119,32.874119 0 0 1 115.05437,15.75928 32.874119,32.874119 0 0 1 106.57638,60.95207 L 87.720558,34.02315 Z M 101.61078,63.821 A 32.874119,32.874119 0 0 1 58.233667,48.56678 32.874119,32.874119 0 0 1 72.537997,4.8672344 32.874119,32.874119 0 0 1 116.5392,18.21484 32.874119,32.874119 0 0 1 104.15466,62.49675 L 87.717587,34.02694 Z m -2.646782,1.09284 A 32.874119,32.874119 0 0 1 57.081437,45.9371 32.874119,32.874119 0 0 1 75.139997,3.6505444 32.874119,32.874119 0 0 1 117.81044,20.78232 32.874119,32.874119 0 0 1 101.61358,63.81634 L 87.720357,34.02227 Z m -2.73307,0.85906 A 32.874119,32.874119 0 0 1 56.161667,43.21807 32.874119,32.874119 0 0 1 77.837027,2.6663244 32.874119,32.874119 0 0 1 118.85197,23.4519 32.874119,32.874119 0 0 1 98.966077,64.91052 L 87.722479,34.01895 Z m -2.79636,0.61661 A 32.874119,32.874119 0 0 1 55.483577,40.42826 32.874119,32.874119 0 0 1 80.610767,1.9199644 32.874119,32.874119 0 0 1 119.65805,26.20111 32.874119,32.874119 0 0 1 96.234487,65.76877 L 87.726048,34.01482 Z m -2.854729,0.4032 A 32.874119,32.874119 0 0 1 55.035927,37.62258 32.874119,32.874119 0 0 1 83.423717,1.4508144 32.874119,32.874119 0 0 1 120.2062,29.04277 32.874119,32.874119 0 0 1 93.423207,66.41838 L 87.714658,34.04369 Z M 87.718896,66.9144 A 32.874119,32.874119 0 0 1 54.852587,34.75742 32.874119,32.874119 0 0 1 86.284947,1.1974144 32.874119,32.874119 0 0 1 120.52262,31.8902 32.874119,32.874119 0 0 1 90.584067,66.7893 L 87.718888,34.04027 Z M 84.856827,66.78687 A 32.874119,32.874119 0 0 1 54.918257,31.88778 32.874119,32.874119 0 0 1 89.155946,1.1950144 32.874119,32.874119 0 0 1 120.5883,34.75499 32.874119,32.874119 0 0 1 87.722008,66.91196 l -1.1e-5,-32.8741 z M 82.018229,66.4099 A 32.874119,32.874119 0 0 1 55.235227,29.03429 32.874119,32.874119 0 0 1 92.017709,1.4423244 32.874119,32.874119 0 0 1 120.40549,37.61412 32.874119,32.874119 0 0 1 84.861587,66.78424 L 87.726757,34.0352 Z M 79.213617,65.79015 A 32.874119,32.874119 0 0 1 55.790037,26.22246 32.874119,32.874119 0 0 1 94.837328,1.9413144 32.874119,32.874119 0 0 1 119.96452,40.44961 32.874119,32.874119 0 0 1 82.013538,66.41089 l 5.70852,-32.37468 z M 76.483578,64.92599 A 32.874119,32.874119 0 0 1 56.597707,23.46737 32.874119,32.874119 0 0 1 97.612649,2.6818044 32.874119,32.874119 0 0 1 119.28801,43.23355 32.874119,32.874119 0 0 1 79.218758,65.78837 L 87.727207,34.03441 Z M 73.837737,63.82728 A 32.874119,32.874119 0 0 1 57.640887,20.79326 32.874119,32.874119 0 0 1 100.31134,3.6614844 32.874119,32.874119 0 0 1 118.36987,45.94806 32.874119,32.874119 0 0 1 76.487338,64.92477 L 87.730959,34.03321 Z m -2.53848,-1.32509 A 32.874119,32.874119 0 0 1 58.914687,18.22029 32.874119,32.874119 0 0 1 102.9159,4.8726644 32.874119,32.874119 0 0 1 117.22022,48.5722 32.874119,32.874119 0 0 1 73.843117,63.82644 l 13.89321,-29.79408 z m -2.44063,-1.5376 A 32.874119,32.874119 0 0 1 60.380617,15.77179 32.874119,32.874119 0 0 1 105.3777,6.3099344 32.874119,32.874119 0 0 1 115.81893,51.08993 32.874119,32.874119 0 0 1 71.277398,62.50551 L 87.714457,34.0357 Z m -2.26982,-1.74575 A 32.874119,32.874119 0 0 1 62.081867,13.45911 32.874119,32.874119 0 0 1 107.7324,7.9549944 32.874119,32.874119 0 0 1 114.23106,53.47456 32.874119,32.874119 0 0 1 68.864067,60.96469 L 87.719896,34.03578 Z m -2.1105,-1.93739 A 32.874119,32.874119 0 0 1 63.976747,11.30304 32.874119,32.874119 0 0 1 109.93326,9.7985944 32.874119,32.874119 0 0 1 112.43989,55.71135 32.874119,32.874119 0 0 1 66.592747,59.21897 L 87.723828,34.03593 Z m -1.93218,-2.1134 A 32.874119,32.874119 0 0 1 66.053747,9.3209044 32.874119,32.874119 0 0 1 111.96651,11.82754 32.874119,32.874119 0 0 1 110.46204,57.78405 32.874119,32.874119 0 0 1 64.483647,57.28249 l 23.24551,-23.24552 z m -1.7501,-2.27752 A 32.874119,32.874119 0 0 1 68.286147,7.5235444 32.874119,32.874119 0 0 1 113.80573,14.0222 32.874119,32.874119 0 0 1 108.30162,59.67272 32.874119,32.874119 0 0 1 62.541897,55.16578 L 87.724937,34.0347 Z m -1.53584,-2.41681 A 32.874119,32.874119 0 0 1 70.675797,5.9321844 32.874119,32.874119 0 0 1 115.45577,16.3734 32.874119,32.874119 0 0 1 105.9939,61.37049 32.874119,32.874119 0 0 1 60.801107,52.89248 l 26.92891,-18.85583 z m -1.32061,-2.54237 A 32.874119,32.874119 0 0 1 73.193807,4.5542244 32.874119,32.874119 0 0 1 116.89335,18.85856 32.874119,32.874119 0 0 1 103.54573,62.85976 32.874119,32.874119 0 0 1 59.263837,50.4752 l 28.46982,-16.43707 z m -1.09283,-2.64681 A 32.874119,32.874119 0 0 1 75.823487,3.4019944 32.874119,32.874119 0 0 1 118.11005,21.46055 32.874119,32.874119 0 0 1 100.97827,64.13099 32.874119,32.874119 0 0 1 57.944257,47.93414 l 29.79407,-13.8932 z M 55.955597,42.5309 A 32.874119,32.874119 0 0 1 78.510458,2.4616244 32.874119,32.874119 0 0 1 119.06217,24.137 32.874119,32.874119 0 0 1 98.276607,65.15196 32.874119,32.874119 0 0 1 56.817997,45.26605 l 30.89156,-11.24361 z m -0.61662,-2.79636 A 32.874119,32.874119 0 0 1 81.300248,1.7835544 32.874119,32.874119 0 0 1 119.80855,26.91075 32.874119,32.874119 0 0 1 95.527388,65.95802 32.874119,32.874119 0 0 1 55.959707,42.53448 L 87.713687,34.026 Z m -0.37142,-2.84072 A 32.874119,32.874119 0 0 1 84.137676,1.3499144 32.874119,32.874119 0 0 1 120.30949,29.7377 32.874119,32.874119 0 0 1 92.717508,66.52016 32.874119,32.874119 0 0 1 55.341907,39.73718 l 32.37468,-5.70854 z m -0.12167,-2.86094 A 32.874119,32.874119 0 0 1 87.002868,1.1665744 32.874119,32.874119 0 0 1 120.56286,32.59893 32.874119,32.874119 0 0 1 89.870078,66.83662 32.874119,32.874119 0 0 1 54.970977,36.89805 l 32.749041,-2.86518 z m 0.12332,-2.86962 A 32.874119,32.874119 0 0 1 89.868308,1.2246744 32.874119,32.874119 0 0 1 120.56106,35.46236 32.874119,32.874119 0 0 1 87.001087,66.89472 32.874119,32.874119 0 0 1 54.844117,34.02843 h 32.87411 z m 0.37696,-2.83863 A 32.874119,32.874119 0 0 1 92.721797,1.5416644 32.874119,32.874119 0 0 1 120.31376,38.32411 32.874119,32.874119 0 0 1 84.141968,66.71192 32.874119,32.874119 0 0 1 54.971847,31.168 l 32.749021,2.86517 z m 0.62259,-2.79643 A 32.874119,32.874119 0 0 1 95.536429,2.1046244 32.874119,32.874119 0 0 1 119.81758,41.15192 32.874119,32.874119 0 0 1 81.309288,66.27909 32.874119,32.874119 0 0 1 55.348037,28.32812 l 32.37468,5.70853 z m 0.86417,-2.73002 A 32.874119,32.874119 0 0 1 98.291517,2.9123044 32.874119,32.874119 0 0 1 119.0771,43.92724 32.874119,32.874119 0 0 1 78.525348,65.60259 32.874119,32.874119 0 0 1 55.970527,25.53335 l 31.753949,8.50846 z m 1.0904,-2.67054 A 32.874119,32.874119 0 0 1 100.95736,3.9307844 32.874119,32.874119 0 0 1 118.08913,46.60122 32.874119,32.874119 0 0 1 75.802568,64.65979 32.874119,32.874119 0 0 1 56.825827,22.77723 l 30.891561,11.24362 z m 1.32509,-2.53849 A 32.874119,32.874119 0 0 1 103.53035,5.2045844 32.874119,32.874119 0 0 1 116.87796,49.2058 32.874119,32.874119 0 0 1 73.178398,63.51013 32.874119,32.874119 0 0 1 57.924187,20.13301 l 29.79408,13.8932 z m 1.54147,-2.41487 A 32.874119,32.874119 0 0 1 105.98268,6.6962744 32.874119,32.874119 0 0 1 115.44455,51.69337 32.874119,32.874119 0 0 1 70.664567,62.13458 32.874119,32.874119 0 0 1 59.248977,17.59305 l 28.4698,16.43706 z m 1.74577,-2.2698 A 32.874119,32.874119 0 0 1 108.29539,8.3975244 32.874119,32.874119 0 0 1 113.7995,54.04805 32.874119,32.874119 0 0 1 68.279917,60.54671 32.874119,32.874119 0 0 1 60.789797,15.17972 l 26.928912,18.85583 z m 1.93903,-2.11901 a 32.874119,32.874119 0 0 1 45.978413,-0.501566 32.874119,32.874119 0 0 1 1.50444,45.956516 32.874119,32.874119 0 0 1 -45.912753,2.50665 32.874119,32.874119 0 0 1 -3.50764,-45.84715 l 25.183051,21.13106 z m 2.1134,-1.9321856 A 32.874119,32.874119 0 0 1 112.43524,12.3609 32.874119,32.874119 0 0 1 109.92859,58.27368 32.874119,32.874119 0 0 1 63.972077,56.76923 32.874119,32.874119 0 0 1 64.473657,10.79081 l 23.24552,23.24551 z m 2.27442,-1.74201 A 32.874119,32.874119 0 0 1 114.2295,14.60139 32.874119,32.874119 0 0 1 107.73085,60.12096 32.874119,32.874119 0 0 1 62.080317,54.61685 32.874119,32.874119 0 0 1 66.587257,8.8571444 L 87.718328,34.04017 Z m 2.41681,-1.53583 A 32.874119,32.874119 0 0 1 115.82087,16.99103 32.874119,32.874119 0 0 1 105.37964,61.771 32.874119,32.874119 0 0 1 60.382557,52.30914 32.874119,32.874119 0 0 1 68.860567,7.1163644 L 87.716378,34.04526 Z m 2.544681,-1.35527 A 32.874119,32.874119 0 0 1 117.20111,19.4744 32.874119,32.874119 0 0 1 102.89679,63.17394 32.874119,32.874119 0 0 1 58.895567,49.82633 32.874119,32.874119 0 0 1 71.280147,5.5444244 L 87.717198,34.01425 Z m 2.64679,-1.09284 A 32.874119,32.874119 0 0 1 118.35335,22.10406 32.874119,32.874119 0 0 1 100.29479,64.39064 32.874119,32.874119 0 0 1 57.624337,47.25886 32.874119,32.874119 0 0 1 73.821197,4.2248344 L 87.714398,34.01891 Z m 2.73307,-0.85905 A 32.874119,32.874119 0 0 1 119.27312,24.8231 32.874119,32.874119 0 0 1 97.597758,65.37485 32.874119,32.874119 0 0 1 56.582817,44.58928 32.874119,32.874119 0 0 1 76.468697,3.1306744 L 87.712319,34.02223 Z m 2.79635,-0.61663 A 32.874119,32.874119 0 0 1 119.95121,27.61293 32.874119,32.874119 0 0 1 94.823999,66.12124 32.874119,32.874119 0 0 1 55.776717,41.84006 32.874119,32.874119 0 0 1 79.200288,2.2723844 L 87.708747,34.02635 Z m 2.847449,-0.37686 A 32.874119,32.874119 0 0 1 120.39156,30.44491 32.874119,32.874119 0 0 1 92.003747,66.6167 32.874119,32.874119 0 0 1 55.221297,39.02475 32.874119,32.874119 0 0 1 82.004277,1.6491444 L 87.712819,34.02381 Z m 2.86095,-0.12168 A 32.874119,32.874119 0 0 1 120.57489,33.3101 32.874119,32.874119 0 0 1 89.142537,66.87009 32.874119,32.874119 0 0 1 54.904847,36.17732 32.874119,32.874119 0 0 1 84.843429,1.2782244 l 2.86517,32.7490256 z m 2.862051,0.12752 A 32.874119,32.874119 0 0 1 120.50923,36.17973 32.874119,32.874119 0 0 1 86.271528,66.87249 32.874119,32.874119 0 0 1 54.839197,33.31251 32.874119,32.874119 0 0 1 87.705487,1.1555444 V 34.02966 Z m 2.838611,0.37698 A 32.874119,32.874119 0 0 1 120.19225,39.03321 32.874119,32.874119 0 0 1 83.409786,66.62518 32.874119,32.874119 0 0 1 55.022007,30.4534 32.874119,32.874119 0 0 1 90.565898,1.2832744 L 87.700727,34.0323 Z m 2.819318,0.61011 A 32.874119,32.874119 0 0 1 119.65216,41.83541 32.874119,32.874119 0 0 1 80.604878,66.11657 32.874119,32.874119 0 0 1 55.477677,27.60826 32.874119,32.874119 0 0 1 93.428668,1.6469944 L 87.720137,34.02167 Z m 2.730032,0.86416 A 32.874119,32.874119 0 0 1 118.8445,44.5905 32.874119,32.874119 0 0 1 77.829548,65.37607 32.874119,32.874119 0 0 1 56.154197,24.82433 32.874119,32.874119 0 0 1 96.223449,2.2694944 L 87.715007,34.02346 Z m 2.645851,1.09871 A 32.874119,32.874119 0 0 1 117.80133,47.26461 32.874119,32.874119 0 0 1 75.130868,64.3964 32.874119,32.874119 0 0 1 57.072317,22.10983 32.874119,32.874119 0 0 1 98.954859,3.1331044 L 87.711247,34.02466 Z m 2.53847,1.32511 A 32.874119,32.874119 0 0 1 116.52751,49.83759 32.874119,32.874119 0 0 1 72.526287,63.18523 32.874119,32.874119 0 0 1 58.221977,19.48566 32.874119,32.874119 0 0 1 101.59908,4.2314444 L 87.705879,34.02552 Z m 2.42351,1.5416 A 32.874119,32.874119 0 0 1 115.04446,52.29009 32.874119,32.874119 0 0 1 70.047377,61.75195 32.874119,32.874119 0 0 1 59.606147,16.97199 32.874119,32.874119 0 0 1 104.14769,5.5563744 L 87.710628,34.02619 Z m 2.26982,1.74577 A 32.874119,32.874119 0 0 1 113.34321,54.60279 32.874119,32.874119 0 0 1 67.692687,60.1069 32.874119,32.874119 0 0 1 61.194027,14.58732 32.874119,32.874119 0 0 1 106.56101,7.0972044 L 87.705188,34.02611 Z m 2.11051,1.9373656 A 32.874119,32.874119 0 0 1 111.44834,56.75885 32.874119,32.874119 0 0 1 65.491817,58.2633 32.874119,32.874119 0 0 1 62.985197,12.35054 32.874119,32.874119 0 0 1 108.83234,8.8429244 L 87.701257,34.02596 Z m 1.93217,2.11341 A 32.874119,32.874119 0 0 1 109.37134,58.741 32.874119,32.874119 0 0 1 63.458567,56.23436 32.874119,32.874119 0 0 1 64.963027,10.277854 32.874119,32.874119 0 0 1 110.94142,10.77941 L 87.695917,34.02492 Z M 110.9557,57.28231 A 32.874119,32.874119 0 0 1 64.977277,57.78387 32.874119,32.874119 0 0 1 63.472847,11.82736 32.874119,32.874119 0 0 1 109.38561,9.3207244 32.874119,32.874119 0 0 1 112.89322,55.16787 L 87.710189,34.0368 Z m -2.1134,1.93219 A 32.874119,32.874119 0 0 1 62.995147,55.70688 32.874119,32.874119 0 0 1 65.501787,9.7941044 32.874119,32.874119 0 0 1 111.4583,11.29857 32.874119,32.874119 0 0 1 110.95675,57.27696 L 87.711208,34.03145 Z m -2.27443,1.74201 A 32.874119,32.874119 0 0 1 61.200887,53.46641 32.874119,32.874119 0 0 1 67.699547,7.9468044 32.874119,32.874119 0 0 1 113.35007,13.45093 32.874119,32.874119 0 0 1 108.84312,59.21064 L 87.712049,34.02762 Z m -2.41681,1.53585 A 32.874119,32.874119 0 0 1 59.609517,51.07675 32.874119,32.874119 0 0 1 70.050747,6.2967644 32.874119,32.874119 0 0 1 115.04784,15.75865 32.874119,32.874119 0 0 1 106.56983,60.95144 L 87.713988,34.02253 Z m -2.54683,1.32801 A 32.874119,32.874119 0 0 1 58.227117,48.56616 32.874119,32.874119 0 0 1 72.531457,4.8666144 32.874119,32.874119 0 0 1 116.53265,18.21421 32.874119,32.874119 0 0 1 104.1481,62.49612 L 87.711038,34.02631 Z m -2.646791,1.09285 A 32.874119,32.874119 0 0 1 57.074887,45.93647 32.874119,32.874119 0 0 1 75.133437,3.6499044 32.874119,32.874119 0 0 1 117.8039,20.78169 32.874119,32.874119 0 0 1 101.60703,63.8157 L 87.713816,34.02164 Z m -2.733072,0.85904 A 32.874119,32.874119 0 0 1 56.155117,43.21744 32.874119,32.874119 0 0 1 77.830487,2.6656944 32.874119,32.874119 0 0 1 118.84541,23.45127 32.874119,32.874119 0 0 1 98.959529,64.90986 L 87.715917,34.01831 Z m -2.79635,0.61663 A 32.874119,32.874119 0 0 1 55.477037,40.42764 32.874119,32.874119 0 0 1 80.604228,1.9193244 32.874119,32.874119 0 0 1 119.6515,26.20048 32.874119,32.874119 0 0 1 96.227939,65.76816 L 87.719497,34.0142 Z m -2.857971,0.39095 A 32.874119,32.874119 0 0 1 55.026147,37.6097 32.874119,32.874119 0 0 1 83.413938,1.4379344 32.874119,32.874119 0 0 1 120.1964,29.02989 32.874119,32.874119 0 0 1 93.413418,66.4055 L 87.704887,34.03081 Z m -2.860939,0.12168 A 32.874119,32.874119 0 0 1 54.842807,34.74453 32.874119,32.874119 0 0 1 86.275158,1.1845544 32.874119,32.874119 0 0 1 120.51285,31.87732 32.874119,32.874119 0 0 1 90.574277,66.77642 L 87.709107,34.02738 Z M 84.847037,66.774 A 32.874119,32.874119 0 0 1 54.908477,31.8749 32.874119,32.874119 0 0 1 89.146167,1.1821344 32.874119,32.874119 0 0 1 120.57851,34.74212 32.874119,32.874119 0 0 1 87.712218,66.89908 l -10e-6,-32.8741 z m -2.83859,-0.37698 A 32.874119,32.874119 0 0 1 55.225447,29.02141 32.874119,32.874119 0 0 1 92.007909,1.4294544 32.874119,32.874119 0 0 1 120.3957,37.60123 32.874119,32.874119 0 0 1 84.851808,66.77136 l 2.86517,-32.74903 z M 79.203818,65.77727 A 32.874119,32.874119 0 0 1 55.780257,26.20959 32.874119,32.874119 0 0 1 94.827528,1.9284444 32.874119,32.874119 0 0 1 119.95473,40.43673 32.874119,32.874119 0 0 1 82.003759,66.39801 l 5.708517,-32.37469 z m -2.73002,-0.86415 A 32.874119,32.874119 0 0 1 56.587917,23.4545 32.874119,32.874119 0 0 1 97.602857,2.6689444 32.874119,32.874119 0 0 1 119.27821,43.22067 32.874119,32.874119 0 0 1 79.208967,65.7755 l 8.50844,-31.75397 z m -2.64584,-1.0987 A 32.874119,32.874119 0 0 1 57.631097,20.78039 32.874119,32.874119 0 0 1 100.30154,3.6486044 32.874119,32.874119 0 0 1 118.36009,45.93518 32.874119,32.874119 0 0 1 76.477547,64.9119 L 87.721159,34.02034 Z M 71.289477,62.48931 A 32.874119,32.874119 0 0 1 58.904907,18.2074 32.874119,32.874119 0 0 1 102.90611,4.8597844 32.874119,32.874119 0 0 1 117.21043,48.55933 32.874119,32.874119 0 0 1 73.833338,63.81354 l 13.8932,-29.79405 z M 68.843448,60.96318 A 32.874119,32.874119 0 0 1 60.365437,15.77038 32.874119,32.874119 0 0 1 105.36252,6.3085244 32.874119,32.874119 0 0 1 115.80376,51.0885 32.874119,32.874119 0 0 1 71.262218,62.5041 L 87.699267,34.03428 Z M 66.573627,59.21743 A 32.874119,32.874119 0 0 1 62.066687,13.45769 32.874119,32.874119 0 0 1 107.71722,7.9535744 32.874119,32.874119 0 0 1 114.21587,53.47315 32.874119,32.874119 0 0 1 68.848897,60.96328 l 18.85581,-26.92891 z m -2.1105,-1.93739 A 32.874119,32.874119 0 0 1 63.961557,11.30163 32.874119,32.874119 0 0 1 109.91808,9.7971744 32.874119,32.874119 0 0 1 112.42471,55.70993 32.874119,32.874119 0 0 1 66.577568,59.21756 l 21.13107,-25.18304 z m -1.93218,-2.1134 A 32.874119,32.874119 0 0 1 66.038557,9.3194844 32.874119,32.874119 0 0 1 111.95134,11.82612 32.874119,32.874119 0 0 1 110.44686,57.78265 32.874119,32.874119 0 0 1 64.468467,57.28107 L 87.713988,34.03555 Z m -1.75009,-2.27753 A 32.874119,32.874119 0 0 1 68.270968,7.5221244 32.874119,32.874119 0 0 1 113.79055,14.02079 32.874119,32.874119 0 0 1 108.28644,59.6713 32.874119,32.874119 0 0 1 62.526727,55.16437 L 87.709747,34.0333 Z M 59.244997,50.4723 A 32.874119,32.874119 0 0 1 70.660618,5.9307644 32.874119,32.874119 0 0 1 115.44059,16.37198 32.874119,32.874119 0 0 1 105.97872,61.36908 32.874119,32.874119 0 0 1 60.785937,52.89106 L 87.714838,34.03523 Z m -1.32059,-2.54238 A 32.874119,32.874119 0 0 1 73.178627,4.5528144 32.874119,32.874119 0 0 1 116.87818,18.85714 32.874119,32.874119 0 0 1 103.53055,62.85834 32.874119,32.874119 0 0 1 59.248667,50.47377 L 87.718478,34.03673 Z m -1.09283,-2.64679 A 32.874119,32.874119 0 0 1 75.808297,3.4005844 32.874119,32.874119 0 0 1 118.09487,21.45914 32.874119,32.874119 0 0 1 100.96308,64.12957 32.874119,32.874119 0 0 1 57.929077,47.93272 l 29.794061,-13.8932 z m -0.88129,-2.74667 A 32.874119,32.874119 0 0 1 78.505118,2.4672144 32.874119,32.874119 0 0 1 119.05685,24.14257 32.874119,32.874119 0 0 1 98.271287,65.15752 32.874119,32.874119 0 0 1 56.812687,45.27163 L 87.704238,34.02802 Z m -0.61663,-2.79634 A 32.874119,32.874119 0 0 1 81.294927,1.7891344 32.874119,32.874119 0 0 1 119.80323,26.91632 32.874119,32.874119 0 0 1 95.522078,65.9636 32.874119,32.874119 0 0 1 55.954397,42.54003 L 87.708358,34.03158 Z M 54.962247,36.8994 A 32.874119,32.874119 0 0 1 84.132369,1.3554944 32.874119,32.874119 0 0 1 120.30415,29.74329 32.874119,32.874119 0 0 1 92.712187,66.52574 32.874119,32.874119 0 0 1 55.336587,39.74276 l 32.374681,-5.70853 z m -0.12167,-2.86095 A 32.874119,32.874119 0 0 1 86.997547,1.1721544 32.874119,32.874119 0 0 1 120.55753,32.6045 32.874119,32.874119 0 0 1 89.864757,66.84219 32.874119,32.874119 0 0 1 54.965667,36.90362 l 32.74903,-2.86517 z m 0.12331,-2.86961 A 32.874119,32.874119 0 0 1 89.862987,1.2302544 32.874119,32.874119 0 0 1 120.55574,35.46794 32.874119,32.874119 0 0 1 86.995766,66.9003 32.874119,32.874119 0 0 1 54.838797,34.034 h 32.874112 z m 0.37697,-2.83862 A 32.874119,32.874119 0 0 1 92.716468,1.5472444 32.874119,32.874119 0 0 1 120.30843,38.32969 32.874119,32.874119 0 0 1 84.136647,66.71748 32.874119,32.874119 0 0 1 54.966527,31.17359 l 32.74903,2.86516 z m 0.62257,-2.79644 A 32.874119,32.874119 0 0 1 95.531108,2.1102144 32.874119,32.874119 0 0 1 119.81226,41.15749 32.874119,32.874119 0 0 1 81.303957,66.28468 32.874119,32.874119 0 0 1 55.342707,28.3337 l 32.374681,5.70853 z m 0.86417,-2.73002 A 32.874119,32.874119 0 0 1 98.286199,2.9178844 32.874119,32.874119 0 0 1 119.07177,43.93281 32.874119,32.874119 0 0 1 78.520028,65.60817 32.874119,32.874119 0 0 1 55.965207,25.53893 l 31.753951,8.50846 z m 1.08735,-2.68224 A 32.874119,32.874119 0 0 1 100.94899,3.9246644 32.874119,32.874119 0 0 1 118.08075,46.5951 32.874119,32.874119 0 0 1 75.794187,64.65367 32.874119,32.874119 0 0 1 56.817457,22.77111 l 30.89156,11.24362 z m 1.3251,-2.53849 A 32.874119,32.874119 0 0 1 103.52196,5.1984744 32.874119,32.874119 0 0 1 116.86958,49.19968 32.874119,32.874119 0 0 1 73.170027,63.504 32.874119,32.874119 0 0 1 57.915797,20.1269 l 29.79409,13.8932 z m 1.54146,-2.41486 A 32.874119,32.874119 0 0 1 105.9743,6.6901544 32.874119,32.874119 0 0 1 115.43618,51.68725 32.874119,32.874119 0 0 1 70.656197,62.12846 32.874119,32.874119 0 0 1 59.240597,17.58694 l 28.469812,16.43704 z m 1.74577,-2.26982 A 32.874119,32.874119 0 0 1 108.28701,8.3914144 32.874119,32.874119 0 0 1 113.79112,54.04195 32.874119,32.874119 0 0 1 68.271527,60.54059 32.874119,32.874119 0 0 1 60.781407,15.17361 l 26.92892,18.85582 z m 1.93903,-2.11899 a 32.874119,32.874119 0 0 1 45.978403,-0.501566 32.874119,32.874119 0 0 1 1.50445,45.956506 32.874119,32.874119 0 0 1 -45.912753,2.50665 32.874119,32.874119 0 0 1 -3.50763,-45.84714 l 25.183031,21.13106 z m 2.1134,-1.9321956 A 32.874119,32.874119 0 0 1 112.42686,12.3548 32.874119,32.874119 0 0 1 109.92023,58.26756 32.874119,32.874119 0 0 1 63.963697,56.76311 32.874119,32.874119 0 0 1 64.465277,10.7847 l 23.24551,23.24551 z m 2.274431,-1.742 A 32.874119,32.874119 0 0 1 114.22112,14.59527 32.874119,32.874119 0 0 1 107.72245,60.11487 32.874119,32.874119 0 0 1 62.071947,54.61073 32.874119,32.874119 0 0 1 66.578888,8.8510344 L 87.709959,34.03406 Z m 2.41681,-1.53584 A 32.874119,32.874119 0 0 1 115.81248,16.98492 32.874119,32.874119 0 0 1 105.37126,61.76491 32.874119,32.874119 0 0 1 60.374177,52.30302 32.874119,32.874119 0 0 1 68.852188,7.1102444 L 87.707998,34.03914 Z m 2.551899,-1.34486 A 32.874119,32.874119 0 0 1 117.19997,19.47869 32.874119,32.874119 0 0 1 102.89564,63.17824 32.874119,32.874119 0 0 1 58.894427,49.83063 32.874119,32.874119 0 0 1 71.278987,5.5487144 L 87.716047,34.01854 Z m 2.64679,-1.09284 A 32.874119,32.874119 0 0 1 118.3522,22.10836 32.874119,32.874119 0 0 1 100.29364,64.39493 32.874119,32.874119 0 0 1 57.623187,47.26315 32.874119,32.874119 0 0 1 73.820048,4.2291344 L 87.713258,34.02321 Z m 2.73308,-0.85906 A 32.874119,32.874119 0 0 1 119.27196,24.82739 32.874119,32.874119 0 0 1 97.596597,65.37915 32.874119,32.874119 0 0 1 56.581667,44.59356 32.874119,32.874119 0 0 1 76.467548,3.1349744 L 87.711157,34.02652 Z m 2.79634,-0.61661 A 32.874119,32.874119 0 0 1 119.95006,27.61721 32.874119,32.874119 0 0 1 94.822848,66.12551 32.874119,32.874119 0 0 1 55.775577,41.84435 32.874119,32.874119 0 0 1 79.199138,2.2766744 l 8.50845,31.7539756 z m 2.847451,-0.37687 A 32.874119,32.874119 0 0 1 120.39041,30.44921 32.874119,32.874119 0 0 1 92.002606,66.62099 32.874119,32.874119 0 0 1 55.220157,39.02903 32.874119,32.874119 0 0 1 82.003126,1.6534244 L 87.711668,34.02811 Z m 2.86094,-0.12168 A 32.874119,32.874119 0 0 1 120.57375,33.31438 32.874119,32.874119 0 0 1 89.141386,66.87436 32.874119,32.874119 0 0 1 54.903707,36.1816 32.874119,32.874119 0 0 1 84.842278,1.2825144 l 2.86518,32.7490256 z m 2.862059,0.12752 A 32.874119,32.874119 0 0 1 120.50808,36.18402 32.874119,32.874119 0 0 1 86.270398,66.87678 32.874119,32.874119 0 0 1 54.838047,33.31679 32.874119,32.874119 0 0 1 87.704336,1.1598344 V 34.03394 Z m 2.8386,0.37698 A 32.874119,32.874119 0 0 1 120.1911,39.0375 32.874119,32.874119 0 0 1 83.408649,66.62947 32.874119,32.874119 0 0 1 55.020857,30.45768 32.874119,32.874119 0 0 1 90.564747,1.2875744 L 87.699576,34.03659 Z m 2.82048,0.59749 A 32.874119,32.874119 0 0 1 119.65216,41.82709 32.874119,32.874119 0 0 1 80.604878,66.10823 32.874119,32.874119 0 0 1 55.477677,27.59993 32.874119,32.874119 0 0 1 93.428668,1.6386744 L 87.720137,34.01335 Z m 2.730021,0.86416 A 32.874119,32.874119 0 0 1 118.8445,44.58217 32.874119,32.874119 0 0 1 77.829548,65.36774 32.874119,32.874119 0 0 1 56.154197,24.816 32.874119,32.874119 0 0 1 96.223438,2.2611644 L 87.714996,34.01514 Z m 2.645852,1.09871 A 32.874119,32.874119 0 0 1 117.80132,47.25628 32.874119,32.874119 0 0 1 75.130868,64.38807 32.874119,32.874119 0 0 1 57.072317,22.1015 32.874119,32.874119 0 0 1 98.954859,3.1247744 L 87.711258,34.01633 Z m 2.53848,1.3251 A 32.874119,32.874119 0 0 1 116.52751,49.82927 32.874119,32.874119 0 0 1 72.526287,63.17689 32.874119,32.874119 0 0 1 58.221977,19.47733 32.874119,32.874119 0 0 1 101.59908,4.2231144 L 87.705879,34.01719 Z m 2.42351,1.54161 A 32.874119,32.874119 0 0 1 115.04447,52.28176 32.874119,32.874119 0 0 1 70.047377,61.74362 32.874119,32.874119 0 0 1 59.606147,16.96366 32.874119,32.874119 0 0 1 104.14768,5.5480544 L 87.710628,34.01786 Z m 2.26983,1.74577 A 32.874119,32.874119 0 0 1 113.34321,54.59446 32.874119,32.874119 0 0 1 67.692687,60.09858 32.874119,32.874119 0 0 1 61.194027,14.57899 32.874119,32.874119 0 0 1 106.56101,7.0888844 L 87.705188,34.01778 Z m 2.11049,1.9373756 a 32.874119,32.874119 0 0 1 0.50157,45.9784 32.874119,32.874119 0 0 1 -45.956523,1.50445 32.874119,32.874119 0 0 1 -2.50662,-45.91275 32.874119,32.874119 0 0 1 45.847133,-3.5076156 L 87.701257,34.01763 Z m 1.93218,2.1134 a 32.874119,32.874119 0 0 1 -3.50761,45.84714 32.874119,32.874119 0 0 1 -45.912773,-2.50663 32.874119,32.874119 0 0 1 1.50447,-45.956506 32.874119,32.874119 0 0 1 45.978393,0.501556 L 87.695917,34.01659 Z m 1.76756,2.2796 A 32.874119,32.874119 0 0 1 107.15639,60.53211 32.874119,32.874119 0 0 1 61.636817,54.03344 32.874119,32.874119 0 0 1 67.140917,8.3829244 32.874119,32.874119 0 0 1 112.90064,12.88986 L 87.717608,34.02093 Z m 1.53585,2.41681 A 32.874119,32.874119 0 0 1 104.76675,62.12347 32.874119,32.874119 0 0 1 59.986767,51.68225 32.874119,32.874119 0 0 1 69.448637,6.6851644 32.874119,32.874119 0 0 1 114.64143,15.16317 L 87.712528,34.019 Z m 1.3206,2.54238 A 32.874119,32.874119 0 0 1 102.24874,63.50142 32.874119,32.874119 0 0 1 58.549177,49.19709 32.874119,32.874119 0 0 1 71.896807,5.1958944 32.874119,32.874119 0 0 1 116.1787,17.58045 L 87.708887,34.01751 Z m 1.09283,2.64679 A 32.874119,32.874119 0 0 1 99.619058,64.65366 32.874119,32.874119 0 0 1 57.332487,46.59509 32.874119,32.874119 0 0 1 74.464278,3.9246544 32.874119,32.874119 0 0 1 117.49829,20.1215 L 87.704217,34.01471 Z m 0.86559,2.73874 A 32.874119,32.874119 0 0 1 96.906547,65.57909 32.874119,32.874119 0 0 1 56.354817,43.90373 32.874119,32.874119 0 0 1 77.140377,2.8887944 32.874119,32.874119 0 0 1 118.59898,22.77467 L 87.707419,34.01828 Z m 0.61663,2.79635 A 32.874119,32.874119 0 0 1 94.116738,66.25718 32.874119,32.874119 0 0 1 55.608437,41.12998 32.874119,32.874119 0 0 1 79.889597,2.0827044 32.874119,32.874119 0 0 1 119.45727,25.50627 l -31.753963,8.50846 z m 0.37141,2.84072 A 32.874119,32.874119 0 0 1 91.279296,66.69081 32.874119,32.874119 0 0 1 55.107517,38.30302 32.874119,32.874119 0 0 1 82.699478,1.5205744 32.874119,32.874119 0 0 1 120.07508,28.30355 l -32.374683,5.70853 z m 0.12167,2.86094 A 32.874119,32.874119 0 0 1 88.414118,66.87415 32.874119,32.874119 0 0 1 54.854137,35.4418 32.874119,32.874119 0 0 1 85.546897,1.2041244 32.874119,32.874119 0 0 1 120.44599,31.14268 l -32.749022,2.86517 z"
       style="opacity:1;fill:#ffffff;fill-opacity:0;stroke:#000000;stroke-width:0.397597;stroke-miterlimit:4;stroke-dasharray:none;stroke-dashoffset:13.8784;stroke-opacity:1"
       id="path3923-3-3-8-8-4-2-3-5"
       inkscape:connector-curvature="0" />
    <g
       transform="translate(-2.5781505,64.453761)"
       id="g15508">
      <path
         inkscape:connector-curvature="0"
         d="m 184.91266,141.8033 a 32.874119,32.874119 0 0 1 -34.89912,29.93858 32.874119,32.874119 0 0 1 -30.69273,-34.2377 32.874119,32.874119 0 0 1 33.55997,-31.43235 32.874119,32.874119 0 0 1 32.15697,32.8663 h -32.8741 z m -0.37696,2.83861 a 32.874119,32.874119 0 0 1 -37.37563,26.78298 32.874119,32.874119 0 0 1 -27.59196,-36.78246 32.874119,32.874119 0 0 1 36.17178,-28.38778 32.874119,32.874119 0 0 1 29.17014,35.54387 l -32.74904,-2.86515 z m -0.62258,2.79643 a 32.874119,32.874119 0 0 1 -39.56768,23.42358 32.874119,32.874119 0 0 1 -24.28117,-39.04729 32.874119,32.874119 0 0 1 38.50832,-25.12719 32.874119,32.874119 0 0 1 25.96125,37.95098 l -32.37467,-5.70852 z m -0.86415,2.73002 a 32.874119,32.874119 0 0 1 -41.45862,19.8859 32.874119,32.874119 0 0 1 -20.78558,-41.01496 32.874119,32.874119 0 0 1 40.55176,-21.67535 32.874119,32.874119 0 0 1 22.55483,40.06925 l -31.75397,-8.50845 z m -1.09737,2.6544 a 32.874119,32.874119 0 0 1 -43.03402,16.19685 32.874119,32.874119 0 0 1 -17.13176,-42.67044 32.874119,32.874119 0 0 1 42.28655,-18.05857 32.874119,32.874119 0 0 1 18.97674,41.88254 l -30.89155,-11.24359 z m -1.32508,2.53849 a 32.874119,32.874119 0 0 1 -44.28192,12.38455 32.874119,32.874119 0 0 1 -13.34763,-44.0012 32.874119,32.874119 0 0 1 43.69957,-14.30433 32.874119,32.874119 0 0 1 15.25421,43.3771 l -29.79407,-13.89318 z m -1.54148,2.41485 a 32.874119,32.874119 0 0 1 -45.19278,8.47802 32.874119,32.874119 0 0 1 -9.46187,-44.9971 32.874119,32.874119 0 0 1 44.77997,-10.44121 32.874119,32.874119 0 0 1 11.4156,44.54152 l -28.46982,-16.43705 z m -1.74577,2.26982 a 32.874119,32.874119 0 0 1 -45.75971,4.50694 32.874119,32.874119 0 0 1 -5.50411,-45.65053 32.874119,32.874119 0 0 1 45.51957,-6.49865 32.874119,32.874119 0 0 1 7.49013,45.36698 l -26.92891,-18.85582 z m -1.93803,2.13656 a 32.874119,32.874119 0 0 1 -45.97841,0.50155 32.874119,32.874119 0 0 1 -1.50445,-45.95651 32.874119,32.874119 0 0 1 45.91275,-2.50664 32.874119,32.874119 0 0 1 3.50764,45.84715 l -25.18304,-21.13108 z m -2.1134,1.93218 a 32.874119,32.874119 0 0 1 -45.84715,-3.50763 32.874119,32.874119 0 0 1 2.50664,-45.91277 32.874119,32.874119 0 0 1 45.95651,1.50447 32.874119,32.874119 0 0 1 -0.50156,45.9784 l -23.24552,-23.24552 z m -2.27443,1.74202 a 32.874119,32.874119 0 0 1 -45.36698,-7.49012 32.874119,32.874119 0 0 1 6.49866,-45.51959 32.874119,32.874119 0 0 1 45.65052,5.50412 32.874119,32.874119 0 0 1 -4.50694,45.7597 L 152.1576,138.92778 Z m -2.41681,1.53583 a 32.874119,32.874119 0 0 1 -44.54155,-11.4156 32.874119,32.874119 0 0 1 10.44124,-44.77998 32.874119,32.874119 0 0 1 44.99707,9.46188 32.874119,32.874119 0 0 1 -8.47799,45.19278 l -18.85582,-26.92891 z m -2.54683,1.32802 a 32.874119,32.874119 0 0 1 -43.37711,-15.25422 32.874119,32.874119 0 0 1 14.30433,-43.69955 32.874119,32.874119 0 0 1 44.0012,13.34761 32.874119,32.874119 0 0 1 -12.38454,44.2819 l -16.43707,-28.4698 z m -2.64678,1.09284 a 32.874119,32.874119 0 0 1 -41.88256,-18.97674 32.874119,32.874119 0 0 1 18.05856,-42.28656 32.874119,32.874119 0 0 1 42.67044,17.13178 32.874119,32.874119 0 0 1 -16.19686,43.03402 L 152.15935,138.9218 Z m -2.73307,0.85906 a 32.874119,32.874119 0 0 1 -40.06926,-22.55483 32.874119,32.874119 0 0 1 21.67536,-40.55175 32.874119,32.874119 0 0 1 41.01494,20.78558 32.874119,32.874119 0 0 1 -19.88589,41.45861 l -11.2436,-30.89157 z m -2.79636,0.61661 a 32.874119,32.874119 0 0 1 -37.95099,-25.96125 32.874119,32.874119 0 0 1 25.12719,-38.5083 32.874119,32.874119 0 0 1 39.04728,24.28115 32.874119,32.874119 0 0 1 -23.42356,39.56766 l -8.50844,-31.75395 z m -2.85473,0.4032 a 32.874119,32.874119 0 0 1 -35.54391,-29.17013 32.874119,32.874119 0 0 1 28.38779,-36.17177 32.874119,32.874119 0 0 1 36.78248,27.59195 32.874119,32.874119 0 0 1 -26.78299,37.37561 l -5.70855,-32.37468 z m -2.86094,0.12169 a 32.874119,32.874119 0 0 1 -32.86631,-32.15698 32.874119,32.874119 0 0 1 31.43236,-33.56001 32.874119,32.874119 0 0 1 34.23767,30.69278 32.874119,32.874119 0 0 1 -29.93855,34.8991 l -2.86518,-32.74902 z m -2.86207,-0.12753 a 32.874119,32.874119 0 0 1 -29.93857,-34.89909 32.874119,32.874119 0 0 1 34.23769,-30.69277 32.874119,32.874119 0 0 1 31.43235,33.55998 32.874119,32.874119 0 0 1 -32.86629,32.15697 l -1e-5,-32.87411 z m -2.8386,-0.37697 a 32.874119,32.874119 0 0 1 -26.783,-37.37561 32.874119,32.874119 0 0 1 36.78248,-27.59197 32.874119,32.874119 0 0 1 28.38778,36.1718 32.874119,32.874119 0 0 1 -35.5439,29.17012 l 2.86517,-32.74904 z m -2.80461,-0.61975 a 32.874119,32.874119 0 0 1 -23.42358,-39.56769 32.874119,32.874119 0 0 1 39.04729,-24.28115 32.874119,32.874119 0 0 1 25.12719,38.5083 32.874119,32.874119 0 0 1 -37.95098,25.96127 l 5.70852,-32.37467 z m -2.73004,-0.86416 A 32.874119,32.874119 0 0 1 121.0367,128.3669 32.874119,32.874119 0 0 1 162.05164,107.58133 32.874119,32.874119 0 0 1 183.727,148.13308 32.874119,32.874119 0 0 1 143.65775,170.6879 l 8.50845,-31.75396 z m -2.64584,-1.09871 a 32.874119,32.874119 0 0 1 -16.19685,-43.03402 32.874119,32.874119 0 0 1 42.67045,-17.13178 32.874119,32.874119 0 0 1 18.05853,42.28657 32.874119,32.874119 0 0 1 -41.88253,18.97672 l 11.24362,-30.89156 z m -2.53848,-1.3251 a 32.874119,32.874119 0 0 1 -12.38457,-44.28189 32.874119,32.874119 0 0 1 44.00121,-13.34763 32.874119,32.874119 0 0 1 14.30432,43.69954 32.874119,32.874119 0 0 1 -43.3771,15.25423 l 13.89321,-29.79407 z m -2.44063,-1.53759 a 32.874119,32.874119 0 0 1 -8.47801,-45.1928 32.874119,32.874119 0 0 1 44.99708,-9.46186 32.874119,32.874119 0 0 1 10.44123,44.77999 32.874119,32.874119 0 0 1 -44.54153,11.41559 l 16.43706,-28.46981 z m -2.26982,-1.74576 a 32.874119,32.874119 0 0 1 -4.50694,-45.75972 32.874119,32.874119 0 0 1 45.65053,-5.50412 32.874119,32.874119 0 0 1 6.49866,45.51957 32.874119,32.874119 0 0 1 -45.36699,7.49013 l 18.85583,-26.92891 z m -2.1105,-1.93738 a 32.874119,32.874119 0 0 1 -0.50156,-45.97841 32.874119,32.874119 0 0 1 45.95651,-1.50445 32.874119,32.874119 0 0 1 2.50663,45.91276 32.874119,32.874119 0 0 1 -45.84714,3.50762 l 21.13108,-25.18304 z m -1.93218,-2.1134 a 32.874119,32.874119 0 0 1 3.50762,-45.84715 32.874119,32.874119 0 0 1 45.91276,2.50664 32.874119,32.874119 0 0 1 -1.50447,45.95651 32.874119,32.874119 0 0 1 -45.97839,-0.50156 l 23.24551,-23.24552 z m -1.7501,-2.27752 a 32.874119,32.874119 0 0 1 7.49012,-45.36699 32.874119,32.874119 0 0 1 45.51958,6.49866 32.874119,32.874119 0 0 1 -5.50411,45.65052 32.874119,32.874119 0 0 1 -45.75972,-4.50694 l 25.18304,-21.13108 z m -1.53584,-2.41681 a 32.874119,32.874119 0 0 1 11.41561,-44.54154 32.874119,32.874119 0 0 1 44.77997,10.44122 32.874119,32.874119 0 0 1 -9.46187,44.99709 32.874119,32.874119 0 0 1 -45.19279,-8.47801 l 26.92891,-18.85583 z m -1.32061,-2.54238 a 32.874119,32.874119 0 0 1 15.25423,-43.37712 32.874119,32.874119 0 0 1 43.69954,14.30434 32.874119,32.874119 0 0 1 -13.34762,44.0012 32.874119,32.874119 0 0 1 -44.28189,-12.38457 l 28.46982,-16.43706 z m -1.09283,-2.6468 a 32.874119,32.874119 0 0 1 18.97674,-41.88255 32.874119,32.874119 0 0 1 42.28656,18.05856 32.874119,32.874119 0 0 1 -17.13178,42.67044 32.874119,32.874119 0 0 1 -43.03401,-16.19685 l 29.79407,-13.8932 z m -0.89115,-2.75365 a 32.874119,32.874119 0 0 1 22.55486,-40.06927 32.874119,32.874119 0 0 1 40.55171,21.67538 32.874119,32.874119 0 0 1 -20.78556,41.01495 32.874119,32.874119 0 0 1 -41.45861,-19.8859 l 30.89156,-11.24361 z m -0.61662,-2.79635 a 32.874119,32.874119 0 0 1 25.96127,-37.95099 32.874119,32.874119 0 0 1 38.5083,25.1272 32.874119,32.874119 0 0 1 -24.28116,39.04727 A 32.874119,32.874119 0 0 1 120.3987,147.434 l 31.75398,-8.50847 z m -0.37142,-2.84072 a 32.874119,32.874119 0 0 1 29.17012,-35.54391 32.874119,32.874119 0 0 1 36.17181,28.38779 32.874119,32.874119 0 0 1 -27.59198,36.78246 32.874119,32.874119 0 0 1 -37.3756,-26.78298 l 32.37468,-5.70854 z m -0.12167,-2.86094 a 32.874119,32.874119 0 0 1 32.15698,-32.86631 32.874119,32.874119 0 0 1 33.55999,31.43236 32.874119,32.874119 0 0 1 -30.69278,34.23769 32.874119,32.874119 0 0 1 -34.8991,-29.93857 l 32.74904,-2.86518 z m 0.12332,-2.86963 a 32.874119,32.874119 0 0 1 34.8991,-29.93858 32.874119,32.874119 0 0 1 30.69275,34.23769 32.874119,32.874119 0 0 1 -33.55997,31.43236 32.874119,32.874119 0 0 1 -32.15697,-32.86629 l 32.87411,-1e-5 z m 0.37696,-2.83862 a 32.874119,32.874119 0 0 1 37.37563,-26.78297 32.874119,32.874119 0 0 1 27.59196,36.78245 32.874119,32.874119 0 0 1 -36.17179,28.3878 32.874119,32.874119 0 0 1 -29.17012,-35.54391 l 32.74902,2.86517 z m 0.62259,-2.79643 a 32.874119,32.874119 0 0 1 39.56767,-23.42358 32.874119,32.874119 0 0 1 24.28115,39.0473 32.874119,32.874119 0 0 1 -38.50829,25.12717 32.874119,32.874119 0 0 1 -25.96125,-37.95097 l 32.37468,5.70853 z m 0.86417,-2.73002 a 32.874119,32.874119 0 0 1 41.45859,-19.88588 32.874119,32.874119 0 0 1 20.78558,41.01494 32.874119,32.874119 0 0 1 -40.55175,21.67535 32.874119,32.874119 0 0 1 -22.55482,-40.06924 l 31.75395,8.50845 z m 1.0904,-2.67054 a 32.874119,32.874119 0 0 1 43.03403,-16.19686 32.874119,32.874119 0 0 1 17.13177,42.67044 32.874119,32.874119 0 0 1 -42.28656,18.05857 32.874119,32.874119 0 0 1 -18.97674,-41.88256 l 30.89156,11.24361 z m 1.32509,-2.53849 a 32.874119,32.874119 0 0 1 44.28193,-12.38457 32.874119,32.874119 0 0 1 13.34761,44.00122 32.874119,32.874119 0 0 1 -43.69956,14.30433 32.874119,32.874119 0 0 1 -15.25421,-43.37712 l 29.79408,13.8932 z m 1.54147,-2.41487 a 32.874119,32.874119 0 0 1 45.19279,-8.47801 32.874119,32.874119 0 0 1 9.46187,44.9971 32.874119,32.874119 0 0 1 -44.77998,10.44121 32.874119,32.874119 0 0 1 -11.41559,-44.54153 l 28.4698,16.43706 z m 1.74577,-2.2698 a 32.874119,32.874119 0 0 1 45.75973,-4.50696 32.874119,32.874119 0 0 1 5.50411,45.65053 32.874119,32.874119 0 0 1 -45.51958,6.49866 32.874119,32.874119 0 0 1 -7.49012,-45.36699 l 26.92891,18.85583 z m 1.93903,-2.11901 a 32.874119,32.874119 0 0 1 45.97841,-0.50157 32.874119,32.874119 0 0 1 1.50444,45.95652 32.874119,32.874119 0 0 1 -45.91275,2.50664 32.874119,32.874119 0 0 1 -3.50764,-45.84714 l 25.18305,21.13106 z m 2.1134,-1.93219 a 32.874119,32.874119 0 0 1 45.84715,3.50762 32.874119,32.874119 0 0 1 -2.50665,45.91278 32.874119,32.874119 0 0 1 -45.95651,-1.50446 32.874119,32.874119 0 0 1 0.50158,-45.97841 l 23.24552,23.24551 z m 2.27442,-1.74201 a 32.874119,32.874119 0 0 1 45.36699,7.49012 32.874119,32.874119 0 0 1 -6.49865,45.51957 32.874119,32.874119 0 0 1 -45.65053,-5.50411 32.874119,32.874119 0 0 1 4.50694,-45.75971 l 21.13107,25.18303 z m 2.41681,-1.53583 a 32.874119,32.874119 0 0 1 44.54155,11.41559 32.874119,32.874119 0 0 1 -10.44123,44.77997 32.874119,32.874119 0 0 1 -44.99708,-9.46186 32.874119,32.874119 0 0 1 8.47801,-45.19278 l 18.85581,26.9289 z m 2.54468,-1.35527 a 32.874119,32.874119 0 0 1 43.37711,15.25423 32.874119,32.874119 0 0 1 -14.30432,43.69954 32.874119,32.874119 0 0 1 -44.00122,-13.34761 32.874119,32.874119 0 0 1 12.38458,-44.28191 l 16.43705,28.46983 z m 2.64679,-1.09284 a 32.874119,32.874119 0 0 1 41.88256,18.97673 32.874119,32.874119 0 0 1 -18.05856,42.28658 32.874119,32.874119 0 0 1 -42.67045,-17.13178 32.874119,32.874119 0 0 1 16.19686,-43.03403 l 13.8932,29.79408 z m 2.73307,-0.85905 a 32.874119,32.874119 0 0 1 40.06926,22.55482 32.874119,32.874119 0 0 1 -21.67536,40.55175 32.874119,32.874119 0 0 1 -41.01494,-20.78557 32.874119,32.874119 0 0 1 19.88588,-41.45861 l 11.24362,30.89156 z m 2.79635,-0.61663 a 32.874119,32.874119 0 0 1 37.951,25.96127 32.874119,32.874119 0 0 1 -25.12721,38.50831 32.874119,32.874119 0 0 1 -39.04728,-24.28117 32.874119,32.874119 0 0 1 23.42357,-39.56768 l 8.50846,31.75397 z m 2.84745,-0.37686 a 32.874119,32.874119 0 0 1 35.5439,29.17012 32.874119,32.874119 0 0 1 -28.38781,36.17179 32.874119,32.874119 0 0 1 -36.78245,-27.59195 32.874119,32.874119 0 0 1 26.78298,-37.37561 l 5.70854,32.37467 z m 2.86095,-0.12168 a 32.874119,32.874119 0 0 1 32.86628,32.15699 32.874119,32.874119 0 0 1 -31.43235,33.55998 32.874119,32.874119 0 0 1 -34.23769,-30.69276 32.874119,32.874119 0 0 1 29.93858,-34.8991 l 2.86517,32.74902 z m 2.86205,0.12752 a 32.874119,32.874119 0 0 1 29.93857,34.8991 32.874119,32.874119 0 0 1 -34.2377,30.69276 32.874119,32.874119 0 0 1 -31.43233,-33.55998 32.874119,32.874119 0 0 1 32.86629,-32.15697 v 32.87412 z m 2.83861,0.37698 a 32.874119,32.874119 0 0 1 26.78298,37.3756 32.874119,32.874119 0 0 1 -36.78246,27.59197 32.874119,32.874119 0 0 1 -28.38778,-36.17178 32.874119,32.874119 0 0 1 35.54389,-29.17013 l -2.86517,32.74903 z m 2.81932,0.61011 a 32.874119,32.874119 0 0 1 23.42357,39.56769 32.874119,32.874119 0 0 1 -39.04728,24.28115 32.874119,32.874119 0 0 1 -25.1272,-38.5083 32.874119,32.874119 0 0 1 37.95099,-25.96127 l -5.70853,32.37468 z m 2.73003,0.86416 a 32.874119,32.874119 0 0 1 19.88588,41.45862 32.874119,32.874119 0 0 1 -41.01495,20.78557 32.874119,32.874119 0 0 1 -21.67535,-40.55174 32.874119,32.874119 0 0 1 40.06925,-22.55484 l -8.50844,31.75397 z m 2.64585,1.09871 a 32.874119,32.874119 0 0 1 16.19686,43.03402 32.874119,32.874119 0 0 1 -42.67046,17.13179 32.874119,32.874119 0 0 1 -18.05855,-42.28657 32.874119,32.874119 0 0 1 41.88254,-18.97673 l -11.24361,30.89156 z m 2.53847,1.32511 a 32.874119,32.874119 0 0 1 12.38457,44.28189 32.874119,32.874119 0 0 1 -44.00122,13.34763 32.874119,32.874119 0 0 1 -14.30431,-43.69956 32.874119,32.874119 0 0 1 43.3771,-15.25422 l -13.8932,29.79408 z m 2.42351,1.5416 a 32.874119,32.874119 0 0 1 8.47801,45.19279 32.874119,32.874119 0 0 1 -44.99708,9.46186 32.874119,32.874119 0 0 1 -10.44123,-44.77996 32.874119,32.874119 0 0 1 44.54154,-11.41562 l -16.43706,28.46982 z m 2.26982,1.74577 a 32.874119,32.874119 0 0 1 4.50694,45.75971 32.874119,32.874119 0 0 1 -45.65052,5.50412 32.874119,32.874119 0 0 1 -6.49866,-45.51958 A 32.874119,32.874119 0 0 1 171,111.99673 l -18.85582,26.92891 z m 2.11051,1.93737 a 32.874119,32.874119 0 0 1 0.50156,45.97841 32.874119,32.874119 0 0 1 -45.95652,1.50445 32.874119,32.874119 0 0 1 -2.50662,-45.91276 32.874119,32.874119 0 0 1 45.84714,-3.50762 l -21.13108,25.18304 z m 1.93217,2.11341 a 32.874119,32.874119 0 0 1 -3.50761,45.84714 32.874119,32.874119 0 0 1 -45.91277,-2.50663 32.874119,32.874119 0 0 1 1.50446,-45.95651 32.874119,32.874119 0 0 1 45.97839,0.50156 l -23.2455,23.24551 z m -1.92325,44.38846 a 32.874119,32.874119 0 0 1 -45.97842,0.50156 32.874119,32.874119 0 0 1 -1.50443,-45.95651 32.874119,32.874119 0 0 1 45.91276,-2.50664 32.874119,32.874119 0 0 1 3.50761,45.84715 l -25.18303,-21.13107 z m -2.1134,1.93219 a 32.874119,32.874119 0 0 1 -45.84715,-3.50763 32.874119,32.874119 0 0 1 2.50664,-45.91277 32.874119,32.874119 0 0 1 45.95651,1.50447 32.874119,32.874119 0 0 1 -0.50155,45.97839 L 152.1502,138.93098 Z m -2.27443,1.74201 a 32.874119,32.874119 0 0 1 -45.36698,-7.49011 32.874119,32.874119 0 0 1 6.49866,-45.5196 32.874119,32.874119 0 0 1 45.65052,5.50413 32.874119,32.874119 0 0 1 -4.50695,45.75971 l -21.13107,-25.18302 z m -2.41681,1.53585 a 32.874119,32.874119 0 0 1 -44.54154,-11.41561 32.874119,32.874119 0 0 1 10.44123,-44.77999 32.874119,32.874119 0 0 1 44.99709,9.46189 32.874119,32.874119 0 0 1 -8.47801,45.19279 l -18.85584,-26.92891 z m -2.54683,1.32801 a 32.874119,32.874119 0 0 1 -43.37711,-15.25422 32.874119,32.874119 0 0 1 14.30434,-43.69954 32.874119,32.874119 0 0 1 44.00119,13.3476 32.874119,32.874119 0 0 1 -12.38455,44.2819 l -16.43706,-28.4698 z m -2.64679,1.09285 a 32.874119,32.874119 0 0 1 -41.88255,-18.97675 32.874119,32.874119 0 0 1 18.05855,-42.28657 32.874119,32.874119 0 0 1 42.67046,17.13179 32.874119,32.874119 0 0 1 -16.19687,43.03401 l -13.89321,-29.79406 z m -2.73307,0.85904 a 32.874119,32.874119 0 0 1 -40.06925,-22.55482 32.874119,32.874119 0 0 1 21.67537,-40.55175 32.874119,32.874119 0 0 1 41.01492,20.78558 32.874119,32.874119 0 0 1 -19.88588,41.45859 l -11.24361,-30.89156 z m -2.79635,0.61662 a 32.874119,32.874119 0 0 1 -37.95098,-25.96125 32.874119,32.874119 0 0 1 25.12719,-38.50831 32.874119,32.874119 0 0 1 39.04727,24.28116 32.874119,32.874119 0 0 1 -23.42356,39.56768 l -8.50844,-31.75396 z m -2.85797,0.39096 a 32.874119,32.874119 0 0 1 -35.5439,-29.17014 32.874119,32.874119 0 0 1 28.38779,-36.17177 32.874119,32.874119 0 0 1 36.78246,27.59195 32.874119,32.874119 0 0 1 -26.78298,37.37562 l -5.70853,-32.37469 z m -2.86094,0.12167 a 32.874119,32.874119 0 0 1 -32.8663,-32.15698 32.874119,32.874119 0 0 1 31.43235,-33.55998 32.874119,32.874119 0 0 1 34.23769,30.69276 32.874119,32.874119 0 0 1 -29.93857,34.8991 l -2.86517,-32.74903 z m -2.86207,-0.12751 a 32.874119,32.874119 0 0 1 -29.93856,-34.8991 32.874119,32.874119 0 0 1 34.23769,-30.69277 32.874119,32.874119 0 0 1 31.43234,33.55999 32.874119,32.874119 0 0 1 -32.86629,32.15696 l -1e-5,-32.8741 z m -2.83859,-0.37698 a 32.874119,32.874119 0 0 1 -26.783,-37.37561 32.874119,32.874119 0 0 1 36.78246,-27.59196 32.874119,32.874119 0 0 1 28.38779,36.17178 32.874119,32.874119 0 0 1 -35.54389,29.17013 l 2.86517,-32.74903 z m -2.80463,-0.61975 a 32.874119,32.874119 0 0 1 -23.42356,-39.56768 32.874119,32.874119 0 0 1 39.04727,-24.28115 32.874119,32.874119 0 0 1 25.1272,38.50829 32.874119,32.874119 0 0 1 -37.95097,25.96127 l 5.70852,-32.37468 z m -2.73002,-0.86415 a 32.874119,32.874119 0 0 1 -19.88588,-41.45862 32.874119,32.874119 0 0 1 41.01494,-20.78556 32.874119,32.874119 0 0 1 21.67535,40.55173 32.874119,32.874119 0 0 1 -40.06924,22.55483 l 8.50844,-31.75397 z m -2.64584,-1.09871 a 32.874119,32.874119 0 0 1 -16.19686,-43.03402 32.874119,32.874119 0 0 1 42.67044,-17.13179 32.874119,32.874119 0 0 1 18.05855,42.28657 32.874119,32.874119 0 0 1 -41.88254,18.97673 l 11.24361,-30.89156 z m -2.53848,-1.32511 a 32.874119,32.874119 0 0 1 -12.38457,-44.2819 32.874119,32.874119 0 0 1 44.0012,-13.34762 32.874119,32.874119 0 0 1 14.30432,43.69955 32.874119,32.874119 0 0 1 -43.37709,15.25421 l 13.8932,-29.79406 z m -2.44603,-1.52612 a 32.874119,32.874119 0 0 1 -8.47801,-45.1928 32.874119,32.874119 0 0 1 44.99708,-9.46186 32.874119,32.874119 0 0 1 10.44124,44.77998 32.874119,32.874119 0 0 1 -44.54154,11.4156 l 16.43705,-28.46982 z m -2.26982,-1.74576 a 32.874119,32.874119 0 0 1 -4.50694,-45.75973 32.874119,32.874119 0 0 1 45.65053,-5.50412 32.874119,32.874119 0 0 1 6.49865,45.51958 32.874119,32.874119 0 0 1 -45.36697,7.49013 L 152.1437,138.9339 Z m -2.1105,-1.93739 a 32.874119,32.874119 0 0 1 -0.50157,-45.9784 32.874119,32.874119 0 0 1 45.95652,-1.50446 32.874119,32.874119 0 0 1 2.50663,45.91276 32.874119,32.874119 0 0 1 -45.84714,3.50762 l 21.13107,-25.18303 z m -1.93218,-2.11339 a 32.874119,32.874119 0 0 1 3.50761,-45.84716 32.874119,32.874119 0 0 1 45.91278,2.50664 32.874119,32.874119 0 0 1 -1.50448,45.95652 32.874119,32.874119 0 0 1 -45.97839,-0.50157 l 23.24552,-23.24552 z m -1.75009,-2.27753 a 32.874119,32.874119 0 0 1 7.49011,-45.36699 32.874119,32.874119 0 0 1 45.51958,6.49867 32.874119,32.874119 0 0 1 -5.50411,45.65051 32.874119,32.874119 0 0 1 -45.75971,-4.50693 l 25.18302,-21.13107 z m -1.53586,-2.41682 a 32.874119,32.874119 0 0 1 11.41562,-44.54153 32.874119,32.874119 0 0 1 44.77997,10.44122 32.874119,32.874119 0 0 1 -9.46187,44.99709 32.874119,32.874119 0 0 1 -45.19278,-8.47802 l 26.9289,-18.85582 z m -1.32059,-2.54237 a 32.874119,32.874119 0 0 1 15.25422,-43.37711 32.874119,32.874119 0 0 1 43.69955,14.30433 32.874119,32.874119 0 0 1 -13.34763,44.00119 32.874119,32.874119 0 0 1 -44.28188,-12.38456 l 28.46981,-16.43705 z m -1.09283,-2.64679 a 32.874119,32.874119 0 0 1 18.97672,-41.88255 32.874119,32.874119 0 0 1 42.28657,18.05856 32.874119,32.874119 0 0 1 -17.13179,42.67043 32.874119,32.874119 0 0 1 -43.034,-16.19685 l 29.79406,-13.8932 z m -0.88129,-2.74667 a 32.874119,32.874119 0 0 1 22.55483,-40.06925 32.874119,32.874119 0 0 1 40.55173,21.67536 32.874119,32.874119 0 0 1 -20.78556,41.01495 32.874119,32.874119 0 0 1 -41.4586,-19.88589 l 30.89155,-11.24361 z m -0.61663,-2.79635 a 32.874119,32.874119 0 0 1 25.96127,-37.95098 32.874119,32.874119 0 0 1 38.5083,25.12719 32.874119,32.874119 0 0 1 -24.28115,39.04728 32.874119,32.874119 0 0 1 -39.56768,-23.42357 l 31.75396,-8.50845 z m -0.37141,-2.84072 a 32.874119,32.874119 0 0 1 29.17012,-35.5439 32.874119,32.874119 0 0 1 36.17178,28.3878 32.874119,32.874119 0 0 1 -27.59196,36.78245 32.874119,32.874119 0 0 1 -37.3756,-26.78298 l 32.37468,-5.70854 z m -0.12167,-2.86094 a 32.874119,32.874119 0 0 1 32.15697,-32.8663 32.874119,32.874119 0 0 1 33.55998,31.43235 32.874119,32.874119 0 0 1 -30.69277,34.23768 32.874119,32.874119 0 0 1 -34.89909,-29.93856 l 32.74903,-2.86517 z m 0.12331,-2.86962 a 32.874119,32.874119 0 0 1 34.8991,-29.93858 32.874119,32.874119 0 0 1 30.69275,34.23769 32.874119,32.874119 0 0 1 -33.55997,31.43235 32.874119,32.874119 0 0 1 -32.15697,-32.86629 h 32.87411 z m 0.37697,-2.83861 a 32.874119,32.874119 0 0 1 37.37561,-26.78298 32.874119,32.874119 0 0 1 27.59196,36.78245 32.874119,32.874119 0 0 1 -36.17178,28.38779 32.874119,32.874119 0 0 1 -29.17012,-35.54389 l 32.74903,2.86516 z m 0.62257,-2.79644 a 32.874119,32.874119 0 0 1 39.56768,-23.42357 32.874119,32.874119 0 0 1 24.28115,39.04728 32.874119,32.874119 0 0 1 -38.5083,25.12719 32.874119,32.874119 0 0 1 -25.96125,-37.95098 l 32.37468,5.70853 z m 0.86417,-2.73002 a 32.874119,32.874119 0 0 1 41.4586,-19.88588 32.874119,32.874119 0 0 1 20.78557,41.01493 32.874119,32.874119 0 0 1 -40.55174,21.67536 32.874119,32.874119 0 0 1 -22.55482,-40.06924 l 31.75395,8.50845 z m 1.08735,-2.68224 a 32.874119,32.874119 0 0 1 43.03404,-16.19686 32.874119,32.874119 0 0 1 17.13176,42.67044 32.874119,32.874119 0 0 1 -42.28656,18.05857 32.874119,32.874119 0 0 1 -18.97673,-41.88256 l 30.89156,11.24361 z m 1.3251,-2.53849 a 32.874119,32.874119 0 0 1 44.28191,-12.38456 32.874119,32.874119 0 0 1 13.34762,44.00121 32.874119,32.874119 0 0 1 -43.69955,14.30432 32.874119,32.874119 0 0 1 -15.25423,-43.3771 l 29.79409,13.8932 z m 1.54146,-2.41486 a 32.874119,32.874119 0 0 1 45.19279,-8.47802 32.874119,32.874119 0 0 1 9.46188,44.9971 32.874119,32.874119 0 0 1 -44.77998,10.44121 32.874119,32.874119 0 0 1 -11.4156,-44.54152 l 28.46981,16.43704 z m 1.74577,-2.26982 a 32.874119,32.874119 0 0 1 45.75973,-4.50694 32.874119,32.874119 0 0 1 5.50411,45.65053 32.874119,32.874119 0 0 1 -45.51959,6.49865 32.874119,32.874119 0 0 1 -7.49012,-45.36698 l 26.92892,18.85582 z m 1.93903,-2.11899 a 32.874119,32.874119 0 0 1 45.9784,-0.50157 32.874119,32.874119 0 0 1 1.50445,45.95651 32.874119,32.874119 0 0 1 -45.91275,2.50665 32.874119,32.874119 0 0 1 -3.50763,-45.84714 l 25.18303,21.13106 z m 2.1134,-1.9322 a 32.874119,32.874119 0 0 1 45.84715,3.50764 32.874119,32.874119 0 0 1 -2.50663,45.91276 32.874119,32.874119 0 0 1 -45.95653,-1.50446 32.874119,32.874119 0 0 1 0.50158,-45.9784 l 23.24551,23.24551 z m 2.27443,-1.742 a 32.874119,32.874119 0 0 1 45.36698,7.49011 32.874119,32.874119 0 0 1 -6.49867,45.51959 32.874119,32.874119 0 0 1 -45.6505,-5.50413 32.874119,32.874119 0 0 1 4.50694,-45.7597 l 21.13107,25.18303 z m 2.41681,-1.53584 a 32.874119,32.874119 0 0 1 44.54153,11.4156 32.874119,32.874119 0 0 1 -10.44122,44.77998 32.874119,32.874119 0 0 1 -44.99708,-9.46188 32.874119,32.874119 0 0 1 8.47801,-45.19278 l 18.85581,26.9289 z m 2.5519,-1.34486 a 32.874119,32.874119 0 0 1 43.37712,15.25423 32.874119,32.874119 0 0 1 -14.30433,43.69954 32.874119,32.874119 0 0 1 -44.00121,-13.34761 32.874119,32.874119 0 0 1 12.38456,-44.28191 l 16.43706,28.46982 z m 2.64679,-1.09284 a 32.874119,32.874119 0 0 1 41.88256,18.97674 32.874119,32.874119 0 0 1 -18.05856,42.28657 32.874119,32.874119 0 0 1 -42.67045,-17.13178 32.874119,32.874119 0 0 1 16.19686,-43.03402 l 13.89321,29.79407 z m 2.73308,-0.85906 a 32.874119,32.874119 0 0 1 40.06924,22.55483 32.874119,32.874119 0 0 1 -21.67536,40.55175 32.874119,32.874119 0 0 1 -41.01493,-20.78558 32.874119,32.874119 0 0 1 19.88588,-41.45859 l 11.24361,30.89155 z m 2.79634,-0.61661 a 32.874119,32.874119 0 0 1 37.951,25.96126 32.874119,32.874119 0 0 1 -25.12721,38.5083 32.874119,32.874119 0 0 1 -39.04727,-24.28116 32.874119,32.874119 0 0 1 23.42356,-39.56768 l 8.50845,31.75397 z m 2.84745,-0.37687 a 32.874119,32.874119 0 0 1 35.5439,29.17013 32.874119,32.874119 0 0 1 -28.3878,36.17177 32.874119,32.874119 0 0 1 -36.78245,-27.59195 32.874119,32.874119 0 0 1 26.78297,-37.37561 l 5.70854,32.37468 z m 2.86094,-0.12168 a 32.874119,32.874119 0 0 1 32.8663,32.15698 32.874119,32.874119 0 0 1 -31.43236,33.55998 32.874119,32.874119 0 0 1 -34.23768,-30.69276 32.874119,32.874119 0 0 1 29.93857,-34.89909 l 2.86518,32.74903 z m 2.86206,0.12752 a 32.874119,32.874119 0 0 1 29.93857,34.8991 32.874119,32.874119 0 0 1 -34.23768,30.69276 32.874119,32.874119 0 0 1 -31.43235,-33.55999 32.874119,32.874119 0 0 1 32.86629,-32.15696 v 32.87411 z m 2.8386,0.37698 a 32.874119,32.874119 0 0 1 26.78299,37.3756 32.874119,32.874119 0 0 1 -36.78245,27.59196 32.874119,32.874119 0 0 1 -28.38779,-36.17178 32.874119,32.874119 0 0 1 35.54389,-29.17011 l -2.86517,32.74901 z m 2.82048,0.59749 a 32.874119,32.874119 0 0 1 23.42357,39.56769 32.874119,32.874119 0 0 1 -39.04728,24.28115 32.874119,32.874119 0 0 1 -25.1272,-38.5083 32.874119,32.874119 0 0 1 37.95099,-25.96126 l -5.70853,32.37468 z m 2.73002,0.86416 a 32.874119,32.874119 0 0 1 19.88589,41.45861 32.874119,32.874119 0 0 1 -41.01495,20.78558 32.874119,32.874119 0 0 1 -21.67535,-40.55174 32.874119,32.874119 0 0 1 40.06924,-22.55484 l -8.50844,31.75397 z m 2.64585,1.09871 a 32.874119,32.874119 0 0 1 16.19686,43.03402 32.874119,32.874119 0 0 1 -42.67045,17.13179 32.874119,32.874119 0 0 1 -18.05855,-42.28657 32.874119,32.874119 0 0 1 41.88254,-18.97673 l -11.2436,30.89156 z m 2.53848,1.3251 a 32.874119,32.874119 0 0 1 12.38457,44.28191 32.874119,32.874119 0 0 1 -44.00122,13.34762 32.874119,32.874119 0 0 1 -14.30431,-43.69956 32.874119,32.874119 0 0 1 43.3771,-15.25422 l -13.8932,29.79408 z m 2.42351,1.54161 a 32.874119,32.874119 0 0 1 8.47802,45.19279 32.874119,32.874119 0 0 1 -44.99709,9.46186 32.874119,32.874119 0 0 1 -10.44123,-44.77996 32.874119,32.874119 0 0 1 44.54153,-11.41561 l -16.43705,28.46981 z m 2.26983,1.74577 a 32.874119,32.874119 0 0 1 4.50693,45.75972 32.874119,32.874119 0 0 1 -45.65052,5.50411 32.874119,32.874119 0 0 1 -6.49866,-45.51958 A 32.874119,32.874119 0 0 1 171,111.98841 l -18.85582,26.9289 z m 2.11049,1.93738 a 32.874119,32.874119 0 0 1 0.50157,45.9784 32.874119,32.874119 0 0 1 -45.95652,1.50445 32.874119,32.874119 0 0 1 -2.50662,-45.91275 32.874119,32.874119 0 0 1 45.84713,-3.50762 l -21.13107,25.18303 z m 1.93218,2.1134 a 32.874119,32.874119 0 0 1 -3.50761,45.84714 32.874119,32.874119 0 0 1 -45.91277,-2.50663 32.874119,32.874119 0 0 1 1.50447,-45.95651 32.874119,32.874119 0 0 1 45.97839,0.50156 l -23.24551,23.24551 z m 1.76756,2.2796 a 32.874119,32.874119 0 0 1 -7.49012,45.36699 32.874119,32.874119 0 0 1 -45.51957,-6.49867 32.874119,32.874119 0 0 1 5.5041,-45.65052 32.874119,32.874119 0 0 1 45.75972,4.50694 l -25.18303,21.13107 z m 1.53585,2.41681 a 32.874119,32.874119 0 0 1 -11.41561,44.54154 32.874119,32.874119 0 0 1 -44.77998,-10.44122 32.874119,32.874119 0 0 1 9.46187,-44.99709 32.874119,32.874119 0 0 1 45.19279,8.47801 l -26.9289,18.85583 z m 1.3206,2.54238 a 32.874119,32.874119 0 0 1 -15.25422,43.37711 32.874119,32.874119 0 0 1 -43.69956,-14.30433 32.874119,32.874119 0 0 1 13.34763,-44.0012 32.874119,32.874119 0 0 1 44.28189,12.38456 l -28.46981,16.43706 z m 1.09283,2.64679 a 32.874119,32.874119 0 0 1 -18.97673,41.88255 32.874119,32.874119 0 0 1 -42.28657,-18.05856 32.874119,32.874119 0 0 1 17.13179,-42.67044 32.874119,32.874119 0 0 1 43.03401,16.19685 l -29.79407,13.89321 z m 0.86559,2.73874 a 32.874119,32.874119 0 0 1 -22.55483,40.06925 32.874119,32.874119 0 0 1 -40.55173,-21.67536 32.874119,32.874119 0 0 1 20.78556,-41.01494 32.874119,32.874119 0 0 1 41.4586,19.88588 l -30.89156,11.24361 z m 0.61663,2.79635 a 32.874119,32.874119 0 0 1 -25.96127,37.95098 32.874119,32.874119 0 0 1 -38.5083,-25.12719 32.874119,32.874119 0 0 1 24.28116,-39.04728 32.874119,32.874119 0 0 1 39.56767,23.42357 l -31.75396,8.50845 z m 0.37141,2.84072 a 32.874119,32.874119 0 0 1 -29.17012,35.5439 32.874119,32.874119 0 0 1 -36.17178,-28.3878 32.874119,32.874119 0 0 1 27.59196,-36.78244 32.874119,32.874119 0 0 1 37.3756,26.78298 l -32.37468,5.70853 z m 0.12167,2.86094 a 32.874119,32.874119 0 0 1 -32.15697,32.8663 32.874119,32.874119 0 0 1 -33.55998,-31.43235 32.874119,32.874119 0 0 1 30.69276,-34.23768 32.874119,32.874119 0 0 1 34.89909,29.93856 l -32.74902,2.86517 z"
         style="opacity:1;fill:#ffffff;fill-opacity:0;stroke:#000000;stroke-width:0.397597;stroke-miterlimit:4;stroke-dasharray:none;stroke-dashoffset:13.8784;stroke-opacity:1"
         id="path3923-3-3-8-8-4-2-3" />
      <path
         inkscape:connector-curvature="0"
         d="m 180.45504,155.25969 a 32.697613,32.696856 30 0 1 -40.82943,13.8592 32.697613,32.696856 30 0 1 -19.07091,-38.67094 32.697613,32.696856 30 0 1 35.85092,-23.95436 32.697613,32.696856 30 0 1 28.42988,32.41762 l -32.69742,-3.3e-4 z m -11.9674,11.97457 a 32.697613,32.696856 60 0 1 -42.28891,-8.41229 32.697613,32.696856 60 0 1 2.81957,-43.02549 32.697613,32.696856 60 0 1 43.02498,-2.8196 32.697613,32.696856 60 0 1 8.4122,42.2894 l -28.31666,-16.34894 z m -16.34468,4.37194 a 32.696856,32.697613 0 0 1 -32.41713,-28.42971 32.696856,32.697613 0 0 1 23.95455,-35.85137 32.696856,32.697613 0 0 1 38.67055,19.07063 32.696856,32.697613 0 0 1 -13.85954,40.8298 l -16.34848,-28.31692 z m -16.35397,-4.37677 A 32.696856,32.697613 30 0 1 121.92978,126.4 a 32.696856,32.697613 30 0 1 38.67095,-19.07091 32.696856,32.697613 30 0 1 23.95435,35.85092 32.696856,32.697613 30 0 1 -32.41761,28.42988 l 3.2e-4,-32.69742 z m -11.96692,-11.96707 a 32.696856,32.697613 60 0 1 8.4123,-42.28892 32.696856,32.697613 60 0 1 43.02547,2.81959 32.696856,32.697613 60 0 1 2.81962,43.02497 32.696856,32.697613 60 0 1 -42.28942,8.41219 l 16.349,-28.31663 z m -4.38658,-16.35134 a 32.697613,32.696856 0 0 1 28.42971,-32.41713 32.697613,32.696856 0 0 1 35.85137,23.95457 32.697613,32.696856 0 0 1 -19.07063,38.67052 32.697613,32.696856 0 0 1 -40.8298,-13.85953 l 28.31693,-16.34848 z m 4.38613,-16.34089 a 32.697613,32.696856 30 0 1 40.82941,-13.8592 32.697613,32.696856 30 0 1 19.07092,38.67095 32.697613,32.696856 30 0 1 -35.85092,23.95434 32.697613,32.696856 30 0 1 -28.42987,-32.41761 l 32.69741,3.3e-4 z M 135.789,110.59556 a 32.697613,32.696856 60 0 1 42.28891,8.4123 32.697613,32.696856 60 0 1 -2.81957,43.02547 32.697613,32.696856 60 0 1 -43.02498,2.81961 32.697613,32.696856 60 0 1 -8.41219,-42.28941 l 28.31664,16.349 z m -11.96692,44.66137 a 32.696856,32.697613 60 0 1 8.41229,-42.28892 32.696856,32.697613 60 0 1 43.02547,2.81958 32.696856,32.697613 60 0 1 2.81962,43.02498 32.696856,32.697613 60 0 1 -42.28941,8.41219 l 16.34899,-28.31663 z m -4.38659,-16.35135 a 32.697613,32.696856 0 0 1 28.42972,-32.41713 32.697613,32.696856 0 0 1 35.85137,23.95457 32.697613,32.696856 0 0 1 -19.07063,38.67052 32.697613,32.696856 0 0 1 -40.8298,-13.85952 l 28.31693,-16.34848 z m 4.38613,-16.34088 a 32.697613,32.696856 30 0 1 40.82942,-13.85921 32.697613,32.696856 30 0 1 19.07091,38.67094 32.697613,32.696856 30 0 1 -35.85091,23.95436 32.697613,32.696856 30 0 1 -28.42988,-32.41761 l 32.69742,3.2e-4 z M 135.789,110.59013 a 32.697613,32.696856 60 0 1 42.28892,8.41229 32.697613,32.696856 60 0 1 -2.81958,43.02548 32.697613,32.696856 60 0 1 -43.02497,2.81961 32.697613,32.696856 60 0 1 -8.4122,-42.28941 l 28.31664,16.34898 z m 16.34725,-4.38012 a 32.696856,32.697613 0 0 1 32.41712,28.42972 32.696856,32.697613 0 0 1 -23.95456,35.85136 32.696856,32.697613 0 0 1 -38.67053,-19.07063 32.696856,32.697613 0 0 1 13.85954,-40.8298 l 16.34842,28.31696 z m 16.35396,4.37678 a 32.696856,32.697613 30 0 1 13.8592,40.82942 32.696856,32.697613 30 0 1 -38.67094,19.07091 32.696856,32.697613 30 0 1 -23.95434,-35.85091 32.696856,32.697613 30 0 1 32.4176,-28.42988 l -3.2e-4,32.69742 z m 11.95856,11.96894 a 32.696857,32.697613 60 0 1 -8.41229,42.28891 32.696857,32.697613 60 0 1 -43.02547,-2.81957 32.696857,32.697613 60 0 1 -2.81961,-43.02498 32.696857,32.697613 60 0 1 42.2894,-8.41219 l -16.34899,28.31663 z m 4.38659,16.35134 a 32.697613,32.696857 0 0 1 -28.42972,32.41713 32.697613,32.696857 0 0 1 -35.85136,-23.95456 32.697613,32.696857 0 0 1 19.07063,-38.67053 32.697613,32.696857 0 0 1 40.8298,13.85953 l -28.31696,16.34843 z"
         style="opacity:1;fill:#ffffff;fill-opacity:0;stroke:#000000;stroke-width:0.745966;stroke-miterlimit:4;stroke-dasharray:none;stroke-dashoffset:13.8784;stroke-opacity:1"
         id="path3923-8-4-5-0-1-5" />
      <circle
         r="32.641724"
         cy="138.90625"
         cx="152.13542"
         id="path4171"
         style="opacity:1;fill:#ffffff;fill-opacity:0;stroke:#ffffff;stroke-width:0.862386;stroke-miterlimit:4;stroke-dasharray:none;stroke-dashoffset:13.8784;stroke-opacity:1" />
      <ellipse
         ry="26.237005"
         rx="26.237007"
         cy="138.90625"
         cx="152.13542"
         id="path4173"
         style="opacity:1;fill:#ffffff;fill-opacity:1;stroke:#000000;stroke-width:0.442655;stroke-miterlimit:4;stroke-dasharray:none;stroke-dashoffset:13.8784;stroke-opacity:0" />
    </g>
    <path
       inkscape:connector-curvature="0"
       d="m 186.23439,156.17688 -1.55997,-5.82188 m -2.24169,0.49723 1.04667,5.936 m -2.79029,0.38835 -0.52716,-6.0254 m -2.29213,0.0998 1e-5,6.04866 m 32.16254,-35.15507 -5.96349,0.52174 m 0.0994,2.29748 h 5.98727 m 0.0613,-0.0122 -6.04876,1e-5 m -0.10031,2.29203 6.02599,0.5272 m -0.36823,2.79777 -5.95677,-1.05034 m -0.49622,2.23998 5.84255,1.56551 m -0.84912,2.69137 -5.68381,-2.06873 m -0.87802,2.1196 5.48192,2.55626 m -1.30257,2.50335 -5.23851,-3.02446 m -1.23254,1.93513 4.95429,3.46903 m -1.71721,2.23895 -4.63379,-3.8882 m -1.55004,1.6914 4.27724,4.27724 m -2.08051,1.90649 -3.88822,-4.63379 m -1.81993,1.39694 3.46969,4.95523 m -2.38032,1.5162 -3.02451,-5.23859 m -2.035,1.05949 2.55631,5.482 m 0,0 9e-5,2e-4 m -2.60724,1.07977 -7e-5,-1.7e-4 m 0.0104,0.003 -2.07085,-5.68963 m -2.1874,0.6905 1.56704,5.84827 m -11.20182,0.97656 0.52725,-6.0265 m -2.27471,-0.299 -1.05035,5.95685 m -2.75539,-0.61046 1.56551,-5.84258 m -2.18799,-0.69036 -2.06897,5.68444 m -2.60717,-1.08005 2.55646,-5.48234 m -2.03529,-1.05904 -3.02444,5.23847 m -2.38002,-1.5166 3.46941,-4.95482 m -1.82038,-1.3965 -3.88821,4.63379 m -2.08013,-1.90703 4.27725,-4.27724 m -1.55045,-1.69115 -4.63374,3.88817 m -1.71815,-2.23899 4.95489,-3.46945 m -1.23288,-1.93497 -5.23859,3.0245 m -1.30303,-2.50326 5.48281,-2.55667 m -0.87867,-2.11946 -5.6839,2.06877 m -0.84848,-2.69118 5.84247,-1.5655 m -0.49654,-2.23998 -5.95676,1.05034 m -0.36852,-2.79786 6.02549,-0.52716 m -0.0998,-2.2922 h -6.04875 m 0.12314,-2.81957 6.026,0.52721 m 0.29943,-2.27471 -5.95677,-1.05034 m 0.61048,-2.75522 5.84256,1.5655 m 0.69023,-2.18809 -5.68382,-2.06874 m 1.07963,-2.60674 5.48192,2.55626 m 1.05942,-2.03508 -5.23825,-3.0243 m 1.51627,-2.38002 4.95482,3.4694 m 1.39649,-1.82037 -4.63349,-3.88795 m 1.90635,-2.08107 4.27729,4.27729 m 1.69144,-1.5502 -3.88774,-4.63322 m 2.23858,-1.718324 3.46965,4.955174 m 1.93476,-1.23321 -3.02412,-5.237934 m 2.50264,-1.30348 2.55665,5.482764 m 2.11948,-0.87842 -2.06874,-5.683815 m 2.69131,-0.848821 1.56552,5.842576 m 2.23993,-0.49672 -1.05023,-5.956175 m 2.79801,-0.368589 0.52716,6.025391 m 2.29217,-0.09977 v -6.04866 m 2.81931,0.12316 -0.52716,6.025489 m 2.27472,0.299434 1.05034,-5.956763 m 2.75498,0.61101 -1.56537,5.842063 m 2.18802,0.69027 2.0688,-5.683983 m 2.60713,1.08001 -2.55646,5.482343 m 2.03532,1.05891 3.02448,-5.238542 m 2.37999,1.51675 -3.46923,4.954572 m 1.81999,1.39699 3.88816,-4.63373 m 2.08039,1.90672 -4.27724,4.27724 m 1.55041,1.6912 4.63348,-3.88795 m 1.71807,2.23836 -4.95489,3.46945 m 1.23252,1.93513 5.23854,-3.02448 m 1.30341,2.50297 -5.48277,2.55665 m 0.87843,2.11948 5.68381,-2.06874 m 0.8483,2.69166 -5.84244,1.56548 m 0.49663,2.23991 5.95676,-1.05034"
       style="fill:none;fill-opacity:0;stroke:#060000;stroke-width:0.3;stroke-miterlimit:4;stroke-dasharray:none;stroke-dashoffset:0;stroke-opacity:1"
       id="path14732" />
    <path
       id="path15482"
       style="fill:none;fill-opacity:0;stroke:#060000;stroke-width:0.3;stroke-miterlimit:4;stroke-dasharray:none;stroke-dashoffset:0;stroke-opacity:1"
       d="m 12.172598,70.489774 h 5.98727"
       inkscape:connector-curvature="0" />
    <path
       inkscape:export-ydpi="838.19025"
       inkscape:export-xdpi="838.19025"
       inkscape:connector-curvature="0"
       d="m 67.187849,125.95054 h 6.04866 m -6.14236,2.3315 5.973484,0.59548 m -6.305519,1.7117 5.867618,1.16044 m -6.424643,1.10901 5.731062,1.69487 m -6.499732,0.52343 5.563817,2.19878 m -6.530788,-0.0451 5.365884,2.67218 m -6.517809,-0.59643 5.137259,3.11504 m -6.460794,-1.13071 4.877946,3.52739 m -6.359747,-1.64787 4.587944,3.90921 m -6.214664,-2.14794 4.267251,4.26051 m -6.025547,-2.6309 3.91587,4.58129 m -5.792395,-3.09675 3.533798,4.87154 m -5.515208,-3.54549 3.121037,5.13126 m -5.193987,-3.97713 2.677587,5.36047 m -4.828732,-4.39167 2.203447,5.55916 m -4.419442,-4.7891 1.698618,5.72731 m -3.966118,-5.16942 1.1631,5.86495 m -3.46876,-5.53265 0.596892,5.97207 m -2.927362,-5.87877 v 6.04866 m -2.330478,-6.14196 -0.596903,5.97207 m -1.708756,-6.30438 -1.16311,5.86495 m -1.104389,-6.42284 -1.698628,5.72731 m -0.517366,-6.49737 -2.203457,5.55915 m 0.05231,-6.52796 -2.677596,5.36047 m 0.604648,-6.51461 -3.121046,5.13127 m 1.139637,-6.45731 -3.533805,4.87153 m 1.657282,-6.35607 -3.915876,4.58127 m 2.157583,-6.21089 -4.267257,4.2605 m 2.64054,-6.02178 -4.58795,3.90921 m 3.106152,-5.78872 -4.877951,3.52738 m 3.554419,-5.51172 -5.137264,3.11503 m 3.985342,-5.19078 -5.365888,2.67217 m 4.398921,-4.82589 -5.563821,2.19877 m 4.795155,-4.41707 -5.7310656,1.69486 m 5.1740446,-3.96431 -5.8676203,1.16043 m 5.5355893,-3.46762 -5.9734853,0.59547 m 5.8797893,-2.92696 -6.0486592,-2e-5 M 12.756923,123.619 6.7834408,123.02351 m 6.3055212,-1.71169 -5.8676157,-1.16045 m 6.4246447,-1.109 -5.7310599,-1.69489 m 6.4997339,-0.52341 -5.5638148,-2.19879 m 6.5307878,0.0451 -5.365879,-2.67218 m 6.517808,0.59644 -5.137256,-3.11505 m 6.460794,1.13072 -4.877942,-3.5274 m 6.359745,1.64789 -4.587938,-3.90922 m 6.214661,2.14795 -4.267246,-4.26052 m 6.025543,2.6309 -3.915863,-4.58128 m 5.79239,3.09675 -3.533791,-4.871542 m 5.515203,3.545502 -3.12103,-5.131273 m 5.193982,3.977143 -2.67758,-5.360478 m 4.828726,4.391678 -2.203439,-5.559161 m 4.419435,4.789107 -1.69861,-5.727319 m 3.966111,5.169433 -1.163091,-5.864956 m 3.468751,5.532654 -0.596882,-5.972071 m 2.927357,5.878768 1.6e-5,-6.048658 m 2.330457,6.141972 0.596913,-5.972065 m 1.708746,6.30438 1.16312,-5.864949 m 1.104378,6.422847 1.698637,-5.727311 m 0.517356,6.497369 2.203465,-5.559144 m -0.05232,6.527954 2.677604,-5.360459 m -0.604657,6.514599 3.121053,-5.131253 m -1.139646,6.457303 3.533812,-4.871522 M 57.12724,105.34 l 3.915883,-4.58127 m -2.157592,6.21089 4.267263,-4.2605 m -2.640548,6.02178 4.587955,-3.9092 m -3.10616,5.78871 4.877956,-3.52737 m -3.554426,5.51171 5.137268,-3.11503 m -3.985349,5.19078 5.365891,-2.67216 m -4.398928,4.82589 5.563824,-2.19877 m -4.795161,4.41707 5.731068,-1.69486 m -5.174051,3.96431 5.867622,-1.16042 m -5.535595,3.4676 5.973487,-0.59546"
       style="opacity:1;fill:#ffffff;fill-opacity:0;stroke:#000000;stroke-width:0.366516;stroke-miterlimit:4;stroke-dasharray:none;stroke-dashoffset:13.8784;stroke-opacity:1"
       id="circle15485" />
    <path
       style="fill:none;fill-opacity:0;stroke:#060000;stroke-width:0.3;stroke-miterlimit:4;stroke-dasharray:none;stroke-dashoffset:0;stroke-opacity:1"
       d="m 38.561196,60.477761 v -6.04866"
       id="path15662"
       inkscape:connector-curvature="0" />
    <path
       inkscape:export-ydpi="838.19025"
       inkscape:export-xdpi="838.19025"
       inkscape:connector-curvature="0"
       d="m 67.187628,125.91541 h 6.04866 m -9.95338,13.35662 5.1666,3.14523 m -15.18656,6.86729 3.1412,5.16906 m -16.50145,-1.27615 -0.004,6.04868 m -13.348902,-9.96514 -3.149307,5.16412 m -6.855467,-15.19181 -5.171538,3.13711 m 1.290345,-16.44985 -6.0486517,-0.0104 m 9.9299097,-13.3128 -5.171476,-3.13721 m 15.17634,-6.89045 -3.149274,-5.16414 m 16.503161,1.247595 -0.006,-6.048656 m 13.36514,9.941831 3.14125,-5.169024 m 6.87865,15.181624 5.16663,-3.1452 m -1.262,16.50185 6.04866,2e-5"
       style="opacity:1;fill:#ffffff;fill-opacity:0;stroke:#000000;stroke-width:0.690962;stroke-miterlimit:4;stroke-dasharray:none;stroke-dashoffset:13.8784;stroke-opacity:1"
       id="circle16069" />
    <path
       inkscape:export-ydpi="838.19025"
       inkscape:export-xdpi="838.19025"
       inkscape:connector-curvature="0"
       id="path16164"
       d="m 23.8125,125.79695 h 31.75"
       style="fill:none;stroke:#000000;stroke-width:0.239736px;stroke-linecap:butt;stroke-linejoin:miter;stroke-opacity:1" />
    <path
       inkscape:export-ydpi="838.19025"
       inkscape:export-xdpi="838.19025"
       style="fill:none;stroke:#000000;stroke-width:0.239736px;stroke-linecap:butt;stroke-linejoin:miter;stroke-opacity:1"
       d="m 39.687487,109.93623 v 31.75"
       id="path16166"
       inkscape:connector-curvature="0" />
    <text
       inkscape:export-ydpi="838.19025"
       inkscape:export-xdpi="838.19025"
       id="text16170"
       y="106.77839"
       x="36.308952"
       style="font-style:normal;font-variant:normal;font-weight:bold;font-stretch:normal;font-size:8.46667px;line-height:1.25;font-family:sans-serif;-inkscape-font-specification:'sans-serif, Bold';font-variant-ligatures:normal;font-variant-caps:normal;font-variant-numeric:normal;font-variant-east-asian:normal;fill:#ffffff;fill-opacity:1;stroke:#000000;stroke-width:0.264583;stroke-opacity:1"
       xml:space="preserve"><tspan
         style="font-style:normal;font-variant:normal;font-weight:bold;font-stretch:normal;font-size:8.46667px;font-family:sans-serif;-inkscape-font-specification:'sans-serif, Bold';font-variant-ligatures:normal;font-variant-caps:normal;font-variant-numeric:normal;font-variant-east-asian:normal;fill:#ffffff;fill-opacity:1;stroke:#000000;stroke-width:0.264583;stroke-opacity:1"
         y="106.77839"
         x="36.308952"
         id="tspan16168"
         sodipodi:role="line">N</tspan></text>
    <text
       inkscape:export-ydpi="838.19025"
       inkscape:export-xdpi="838.19025"
       id="text16174"
       y="150.60696"
       x="36.73864"
       style="font-style:normal;font-variant:normal;font-weight:bold;font-stretch:normal;font-size:8.46667px;line-height:1.25;font-family:sans-serif;-inkscape-font-specification:'sans-serif, Bold';font-variant-ligatures:normal;font-variant-caps:normal;font-variant-numeric:normal;font-variant-east-asian:normal;fill:#ffffff;fill-opacity:1;stroke:#000000;stroke-width:0.264583;stroke-opacity:1"
       xml:space="preserve"><tspan
         style="font-style:normal;font-variant:normal;font-weight:bold;font-stretch:normal;font-size:8.46667px;font-family:sans-serif;-inkscape-font-specification:'sans-serif, Bold';font-variant-ligatures:normal;font-variant-caps:normal;font-variant-numeric:normal;font-variant-east-asian:normal;fill:#ffffff;fill-opacity:1;stroke:#000000;stroke-width:0.264583;stroke-opacity:1"
         y="150.60696"
         x="36.73864"
         id="tspan16172"
         sodipodi:role="line">S</tspan></text>
    <text
       inkscape:export-ydpi="838.19025"
       inkscape:export-xdpi="838.19025"
       id="text16178"
       y="129.12238"
       x="59.297459"
       style="font-style:normal;font-variant:normal;font-weight:bold;font-stretch:normal;font-size:8.46667px;line-height:1.25;font-family:sans-serif;-inkscape-font-specification:'sans-serif, Bold';font-variant-ligatures:normal;font-variant-caps:normal;font-variant-numeric:normal;font-variant-east-asian:normal;fill:#ffffff;fill-opacity:1;stroke:#000000;stroke-width:0.264583;stroke-opacity:1"
       xml:space="preserve"><tspan
         style="font-style:normal;font-variant:normal;font-weight:bold;font-stretch:normal;font-size:8.46667px;font-family:sans-serif;-inkscape-font-specification:'sans-serif, Bold';font-variant-ligatures:normal;font-variant-caps:normal;font-variant-numeric:normal;font-variant-east-asian:normal;fill:#ffffff;fill-opacity:1;stroke:#000000;stroke-width:0.264583;stroke-opacity:1"
         y="129.12238"
         x="59.297459"
         id="tspan16176"
         sodipodi:role="line">E</tspan></text>
    <text
       inkscape:export-ydpi="838.19025"
       inkscape:export-xdpi="838.19025"
       id="text16182"
       y="128.90752"
       x="13.535289"
       style="font-style:normal;font-variant:normal;font-weight:bold;font-stretch:normal;font-size:7.76111px;line-height:1.25;font-family:sans-serif;-inkscape-font-specification:'sans-serif, Bold';font-variant-ligatures:normal;font-variant-caps:normal;font-variant-numeric:normal;font-variant-east-asian:normal;fill:#ffffff;fill-opacity:1;stroke:#000000;stroke-width:0.264583;stroke-opacity:1"
       xml:space="preserve"><tspan
         style="font-style:normal;font-variant:normal;font-weight:bold;font-stretch:normal;font-size:7.76111px;font-family:sans-serif;-inkscape-font-specification:'sans-serif, Bold';font-variant-ligatures:normal;font-variant-caps:normal;font-variant-numeric:normal;font-variant-east-asian:normal;fill:#ffffff;fill-opacity:1;stroke:#000000;stroke-width:0.264583;stroke-opacity:1"
         y="128.90752"
         x="13.535289"
         id="tspan16180"
         sodipodi:role="line">W</tspan></text>
    <path
       id="path16184"
       style="opacity:1;fill:#ffffff;fill-opacity:0;stroke:#fbfdff;stroke-width:0.366516;stroke-miterlimit:4;stroke-dasharray:none;stroke-dashoffset:13.8784;stroke-opacity:1"
       d="m 137.30248,125.95054 h 6.04866 m -6.14236,2.3315 5.97348,0.59548 m -6.30552,1.7117 5.86762,1.16044 m -6.42464,1.10901 5.73106,1.69487 m -6.49973,0.52343 5.56381,2.19878 m -6.53078,-0.0451 5.36588,2.67218 m -6.51781,-0.59643 5.13726,3.11504 m -6.46079,-1.13071 4.87794,3.52739 m -6.35975,-1.64787 4.58795,3.90921 m -6.21467,-2.14794 4.26726,4.26051 m -6.02555,-2.6309 3.91587,4.58129 m -5.7924,-3.09675 3.5338,4.87154 m -5.51521,-3.54549 3.12104,5.13126 m -5.19399,-3.97713 2.67759,5.36047 m -4.82873,-4.39167 2.20345,5.55916 m -4.41945,-4.7891 1.69862,5.72731 m -3.96612,-5.16942 1.1631,5.86495 m -3.46876,-5.53265 0.5969,5.97207 m -2.92737,-5.87877 v 6.04866 m -2.33047,-6.14196 -0.59691,5.97207 m -1.70875,-6.30438 -1.16311,5.86495 m -1.10439,-6.42284 -1.69863,5.72731 m -0.51738,-6.49737 -2.203447,5.55915 m 0.0523,-6.52796 -2.6776,5.36047 m 0.60465,-6.51461 -3.12105,5.13127 m 1.13964,-6.45731 -3.53381,4.87153 m 1.65729,-6.35607 -3.91588,4.58127 m 2.15758,-6.21089 -4.26725,4.2605 m 2.64054,-6.02178 -4.58795,3.90921 m 3.10615,-5.78872 -4.87795,3.52738 m 3.55442,-5.51172 -5.137266,3.11503 m 3.985336,-5.19078 -5.365876,2.67217 m 4.398916,-4.82589 -5.563816,2.19877 m 4.795146,-4.41707 -5.731056,1.69486 m 5.174036,-3.96431 -5.867616,1.16043 m 5.535586,-3.46762 -5.973486,0.59547 m 5.87979,-2.92696 -6.04866,-2e-5 m 6.142366,-2.33144 -5.973476,-0.59549 m 6.305516,-1.71169 -5.867616,-1.16045 m 6.424646,-1.109 -5.731056,-1.69489 m 6.499726,-0.52341 -5.563806,-2.19879 m 6.530786,0.0451 -5.365876,-2.67218 m 6.517796,0.59644 -5.137246,-3.11505 m 6.460786,1.13072 -4.87794,-3.5274 m 6.35975,1.64789 -4.58794,-3.90922 m 6.21466,2.14795 -4.26725,-4.26052 m 6.02555,2.6309 -3.91587,-4.58128 m 5.79239,3.09675 -3.53379,-4.871542 m 5.5152,3.545502 -3.12103,-5.131273 m 5.19399,3.977143 -2.67758,-5.360478 m 4.828717,4.391678 -2.203437,-5.559161 m 4.419447,4.789107 -1.69861,-5.727319 m 3.96611,5.169433 -1.16309,-5.864956 m 3.46875,5.532654 -0.59688,-5.972071 m 2.92735,5.878768 2e-5,-6.048658 m 2.33046,6.141972 0.59691,-5.972065 m 1.70875,6.30438 1.16312,-5.864949 m 1.10437,6.422847 1.69864,-5.727311 m 0.51736,6.497369 2.20346,-5.559144 m -0.0523,6.527954 2.67761,-5.360459 m -0.60466,6.514599 3.12105,-5.131253 m -1.13964,6.457303 3.53381,-4.871522 m -1.65729,6.356072 3.91588,-4.58127 m -2.15759,6.21089 4.26726,-4.2605 m -2.64055,6.02178 4.58796,-3.9092 m -3.10616,5.78871 4.87795,-3.52737 m -3.55442,5.51171 5.13727,-3.11503 m -3.98535,5.19078 5.36589,-2.67216 m -4.39893,4.82589 5.56382,-2.19877 m -4.79516,4.41707 5.73107,-1.69486 m -5.17405,3.96431 5.86762,-1.16042 m -5.53559,3.4676 5.97348,-0.59546"
       inkscape:connector-curvature="0"
       inkscape:export-xdpi="852.34515"
       inkscape:export-ydpi="852.34515" />
    <path
       id="path16186"
       style="opacity:1;fill:#ffffff;fill-opacity:0;stroke:#fbfdff;stroke-width:0.690962;stroke-miterlimit:4;stroke-dasharray:none;stroke-dashoffset:13.8784;stroke-opacity:1"
       d="m 137.30226,125.91541 h 6.04866 m -9.95338,13.35662 5.1666,3.14523 m -15.18656,6.86729 3.1412,5.16906 m -16.50145,-1.27615 -0.004,6.04868 m -13.348917,-9.96514 -3.1493,5.16412 m -6.85547,-15.19181 -5.171536,3.13711 m 1.29035,-16.44985 -6.04866,-0.0104 m 9.929906,-13.3128 -5.171466,-3.13721 m 15.176336,-6.89045 -3.14928,-5.16414 m 16.503177,1.247595 -0.006,-6.048656 m 13.36514,9.941831 3.14125,-5.169024 m 6.87865,15.181624 5.16663,-3.1452 m -1.262,16.50185 6.04866,2e-5"
       inkscape:connector-curvature="0"
       inkscape:export-xdpi="852.34515"
       inkscape:export-ydpi="852.34515" />
  </g>
</svg>
