<?xml version="1.0" encoding="UTF-8" standalone="no"?>
<svg
   xmlns:osb="http://www.openswatchbook.org/uri/2009/osb"
   xmlns:dc="http://purl.org/dc/elements/1.1/"
   xmlns:cc="http://creativecommons.org/ns#"
   xmlns:rdf="http://www.w3.org/1999/02/22-rdf-syntax-ns#"
   xmlns:svg="http://www.w3.org/2000/svg"
   xmlns="http://www.w3.org/2000/svg"
   xmlns:sodipodi="http://sodipodi.sourceforge.net/DTD/sodipodi-0.dtd"
   xmlns:inkscape="http://www.inkscape.org/namespaces/inkscape"
   width="210mm"
   height="297mm"
   viewBox="0 0 210 297"
   version="1.1"
   id="svg16"
   inkscape:version="1.0rc1 (09960d6, 2020-04-09)"
   sodipodi:docname="speedo_wht_0.svg">
  <defs
     id="defs10">
    <marker
       inkscape:stockid="DiamondL"
       orient="auto"
       refY="0.0"
       refX="0.0"
       id="DiamondL"
       style="overflow:visible"
       inkscape:isstock="true">
      <path
         id="path3354"
         d="M 0,-7.0710768 L -7.0710894,0 L 0,7.0710589 L 7.0710462,0 L 0,-7.0710768 z "
         style="fill-rule:evenodd;stroke:#000000;stroke-width:1pt;stroke-opacity:0.99;fill:#ffffff;fill-opacity:1"
         transform="scale(0.8)" />
    </marker>
    <marker
       inkscape:stockid="Arrow1Mend"
       orient="auto"
       refY="0.0"
       refX="0.0"
       id="Arrow1Mend"
       style="overflow:visible;"
       inkscape:isstock="true">
      <path
         id="path3284"
         d="M 0.0,0.0 L 5.0,-5.0 L -12.5,0.0 L 5.0,5.0 L 0.0,0.0 z "
         style="fill-rule:evenodd;stroke:#000000;stroke-width:1pt;stroke-opacity:0.99;fill:#ffffff;fill-opacity:1"
         transform="scale(0.4) rotate(180) translate(10,0)" />
    </marker>
    <linearGradient
       id="linearGradient3041"
       osb:paint="solid">
      <stop
         style="stop-color:#ffffff;stop-opacity:1;"
         offset="0"
         id="stop3039" />
    </linearGradient>
    <linearGradient
       id="linearGradient2936"
       osb:paint="solid">
      <stop
         style="stop-color:#0000ff;stop-opacity:1;"
         offset="0"
         id="stop2934" />
    </linearGradient>
    <inkscape:perspective
       sodipodi:type="inkscape:persp3d"
       inkscape:vp_x="58.571016 : 176.23412 : 1"
       inkscape:vp_y="-992.30947 : 562.14418 : 0"
       inkscape:vp_z="134.75114 : 379.40061 : 1"
       inkscape:persp3d-origin="147.65872 : 159.82758 : 1"
       id="perspective880" />
    <linearGradient
       id="linearGradient874"
       osb:paint="solid">
      <stop
         style="stop-color:#000000;stop-opacity:1;"
         offset="0"
         id="stop872" />
    </linearGradient>
  </defs>
  <sodipodi:namedview
     id="base"
     pagecolor="#ffffff"
     bordercolor="#666666"
     borderopacity="1.0"
     inkscape:pageopacity="0.0"
     inkscape:pageshadow="2"
     inkscape:zoom="0.98994949"
     inkscape:cx="434.85026"
     inkscape:cy="366.16864"
     inkscape:document-units="mm"
     inkscape:current-layer="layer1"
     inkscape:document-rotation="0"
     showgrid="false"
     showguides="false"
     inkscape:window-width="1252"
     inkscape:window-height="943"
     inkscape:window-x="0"
     inkscape:window-y="23"
     inkscape:window-maximized="0" />
  <metadata
     id="metadata13">
    <rdf:RDF>
      <cc:Work
         rdf:about="">
        <dc:format>image/svg+xml</dc:format>
        <dc:type
           rdf:resource="http://purl.org/dc/dcmitype/StillImage" />
        <dc:title></dc:title>
      </cc:Work>
    </rdf:RDF>
  </metadata>
  <g
     inkscape:label="Layer 1"
     inkscape:groupmode="layer"
     id="layer1">
    <g
       id="g3837"
       style="opacity:1" />
    <circle
       r="32.874119"
       cy="37.150463"
       cx="165.17256"
       id="path3923-8"
       style="opacity:1;fill:#ffffff;fill-opacity:1;stroke:#000000;stroke-width:0.397597;stroke-miterlimit:4;stroke-dasharray:none;stroke-dashoffset:13.8784;stroke-opacity:1" />
    <path
       d="M 108.92449,43.230627 A 32.874119,32.874119 0 0 1 74.025366,73.169207 32.874119,32.874119 0 0 1 43.332637,38.931507 32.874119,32.874119 0 0 1 76.892608,7.4991609 32.874119,32.874119 0 0 1 109.04958,40.365457 H 76.175476 Z m -0.37696,2.83861 A 32.874119,32.874119 0 0 1 71.171899,72.852227 32.874119,32.874119 0 0 1 43.579937,36.069757 32.874119,32.874119 0 0 1 79.751717,7.6819809 32.874119,32.874119 0 0 1 108.92186,43.225847 l -32.749043,-2.86515 z m -0.62258,2.79643 A 32.874119,32.874119 0 0 1 68.357267,72.289257 32.874119,32.874119 0 0 1 44.076097,33.241957 32.874119,32.874119 0 0 1 82.584418,8.1147709 32.874119,32.874119 0 0 1 108.54567,46.065747 l -32.374673,-5.70851 z m -0.86415,2.73002 A 32.874119,32.874119 0 0 1 65.602178,71.481587 32.874119,32.874119 0 0 1 44.816597,30.466627 32.874119,32.874119 0 0 1 85.368358,8.7912809 32.874119,32.874119 0 0 1 107.92319,48.860527 l -31.753971,-8.50845 z m -1.09737,2.6544 A 32.874119,32.874119 0 0 1 62.929408,70.446937 32.874119,32.874119 0 0 1 45.797647,27.776497 32.874119,32.874119 0 0 1 88.084198,9.7179309 32.874119,32.874119 0 0 1 107.06094,51.600467 L 76.169388,40.356877 Z m -1.32508,2.5385 A 32.874119,32.874119 0 0 1 60.356428,69.173127 32.874119,32.874119 0 0 1 47.008797,25.171927 32.874119,32.874119 0 0 1 90.708367,10.867601 32.874119,32.874119 0 0 1 105.96258,54.244697 L 76.168507,40.351517 Z m -1.54148,2.41484 a 32.874119,32.874119 0 0 1 -45.192783,8.47802 32.874119,32.874119 0 0 1 -9.46187,-44.9971 32.874119,32.874119 0 0 1 44.779968,-10.441206 32.874119,32.874119 0 0 1 11.415605,44.541516 L 76.167967,40.347617 Z m -1.74577,2.26983 a 32.874119,32.874119 0 0 1 -45.759712,4.50693 32.874119,32.874119 0 0 1 -5.504111,-45.65053 32.874119,32.874119 0 0 1 45.519568,-6.498646 32.874119,32.874119 0 0 1 7.490135,45.366976 L 76.168068,40.342177 Z m -1.938035,2.13655 a 32.874119,32.874119 0 0 1 -45.978408,0.50156 32.874119,32.874119 0 0 1 -1.50445,-45.95652 32.874119,32.874119 0 0 1 45.912748,-2.506636 32.874119,32.874119 0 0 1 3.507645,45.847146 L 76.167557,40.364277 Z m -2.1134,1.93218 a 32.874119,32.874119 0 0 1 -45.847148,-3.50762 32.874119,32.874119 0 0 1 2.50664,-45.912776 32.874119,32.874119 0 0 1 45.956508,1.504466 32.874119,32.874119 0 0 1 -0.50156,45.9784 L 76.168587,40.358937 Z m -2.27443,1.74202 a 32.874119,32.874119 0 0 1 -45.366978,-7.49012 32.874119,32.874119 0 0 1 6.49866,-45.519586 32.874119,32.874119 0 0 1 45.650523,5.504116 32.874119,32.874119 0 0 1 -4.506945,45.7597 L 76.169428,40.355107 Z m -2.41681,1.53584 a 32.874119,32.874119 0 0 1 -44.541548,-11.41561 32.874119,32.874119 0 0 1 10.44124,-44.779976 32.874119,32.874119 0 0 1 44.997073,9.461876 32.874119,32.874119 0 0 1 -8.477995,45.19279 L 76.171378,40.350007 Z m -2.546827,1.32801 A 32.874119,32.874119 0 0 1 46.684487,54.893637 32.874119,32.874119 0 0 1 60.988817,11.194091 32.874119,32.874119 0 0 1 104.99002,24.541697 32.874119,32.874119 0 0 1 92.605475,68.823607 L 76.168407,40.353797 Z m -2.64678,1.09284 A 32.874119,32.874119 0 0 1 45.532257,52.263957 32.874119,32.874119 0 0 1 63.590817,9.9774009 32.874119,32.874119 0 0 1 106.26126,27.109177 32.874119,32.874119 0 0 1 90.064397,70.143197 l -13.89322,-29.79407 z m -2.73307,0.85906 A 32.874119,32.874119 0 0 1 44.612487,49.544927 32.874119,32.874119 0 0 1 66.287847,8.9931809 32.874119,32.874119 0 0 1 107.30279,29.778757 32.874119,32.874119 0 0 1 87.416897,71.237377 L 76.173299,40.345807 Z m -2.79636,0.61661 A 32.874119,32.874119 0 0 1 43.934397,46.755117 32.874119,32.874119 0 0 1 69.061587,8.2468209 32.874119,32.874119 0 0 1 108.10887,32.527967 32.874119,32.874119 0 0 1 84.685307,72.095627 l -8.508439,-31.75395 z m -2.854729,0.4032 A 32.874119,32.874119 0 0 1 43.486747,43.949437 32.874119,32.874119 0 0 1 71.874537,7.7776709 32.874119,32.874119 0 0 1 108.65702,35.369627 32.874119,32.874119 0 0 1 81.874027,72.745237 l -5.708549,-32.37469 z m -2.860943,0.12169 A 32.874119,32.874119 0 0 1 43.303407,41.084277 32.874119,32.874119 0 0 1 74.735767,7.5242709 32.874119,32.874119 0 0 1 108.97344,38.217057 32.874119,32.874119 0 0 1 79.034887,73.116157 l -2.865179,-32.74903 z m -2.862069,-0.12753 A 32.874119,32.874119 0 0 1 43.369077,38.214637 32.874119,32.874119 0 0 1 77.606766,7.5218709 32.874119,32.874119 0 0 1 109.03912,41.081847 32.874119,32.874119 0 0 1 76.172828,73.238817 l -1.1e-5,-32.8741 z m -2.838598,-0.37697 A 32.874119,32.874119 0 0 1 43.686047,35.361147 32.874119,32.874119 0 0 1 80.468529,7.7691809 32.874119,32.874119 0 0 1 108.85631,43.940977 32.874119,32.874119 0 0 1 73.312407,73.111097 l 2.86517,-32.74904 z m -2.804612,-0.61975 A 32.874119,32.874119 0 0 1 44.240857,32.549317 32.874119,32.874119 0 0 1 83.288148,8.2681709 32.874119,32.874119 0 0 1 108.41534,46.776467 32.874119,32.874119 0 0 1 70.464358,72.737747 l 5.70852,-32.37468 z m -2.730039,-0.86416 A 32.874119,32.874119 0 0 1 45.048527,29.794227 32.874119,32.874119 0 0 1 86.063469,9.0086609 32.874119,32.874119 0 0 1 107.73883,49.560407 32.874119,32.874119 0 0 1 67.669578,72.115227 l 8.508449,-31.75396 z m -2.645841,-1.09871 A 32.874119,32.874119 0 0 1 46.091707,27.120117 32.874119,32.874119 0 0 1 88.762158,9.9883409 32.874119,32.874119 0 0 1 106.82069,52.274917 32.874119,32.874119 0 0 1 64.938158,71.251627 l 11.243621,-30.89156 z m -2.53848,-1.32509 a 32.874119,32.874119 0 0 1 -12.38457,-44.2819 32.874119,32.874119 0 0 1 44.001212,-13.347626 32.874119,32.874119 0 0 1 14.304321,43.699536 32.874119,32.874119 0 0 1 -43.377103,15.25424 l 13.89321,-29.79408 z m -2.44063,-1.5376 a 32.874119,32.874119 0 0 1 -8.47801,-45.1928 32.874119,32.874119 0 0 1 44.997078,-9.461856 32.874119,32.874119 0 0 1 10.441235,44.779996 32.874119,32.874119 0 0 1 -44.541532,11.41558 l 16.437059,-28.46981 z m -2.26982,-1.74575 a 32.874119,32.874119 0 0 1 -4.50694,-45.75973 32.874119,32.874119 0 0 1 45.650528,-5.504116 32.874119,32.874119 0 0 1 6.498665,45.519566 32.874119,32.874119 0 0 1 -45.366993,7.49013 l 18.855829,-26.92891 z m -2.1105,-1.93739 a 32.874119,32.874119 0 0 1 -0.50156,-45.97841 32.874119,32.874119 0 0 1 45.956508,-1.504446 32.874119,32.874119 0 0 1 2.506635,45.912756 32.874119,32.874119 0 0 1 -45.847143,3.50762 l 21.131081,-25.18304 z m -1.93218,-2.1134 a 32.874119,32.874119 0 0 1 3.50762,-45.847146 32.874119,32.874119 0 0 1 45.912763,2.506636 32.874119,32.874119 0 0 1 -1.504475,45.95651 32.874119,32.874119 0 0 1 -45.978388,-0.50156 l 23.24551,-23.24552 z m -1.7501,-2.27752 a 32.874119,32.874119 0 0 1 7.49012,-45.366986 32.874119,32.874119 0 0 1 45.519583,6.498656 32.874119,32.874119 0 0 1 -5.504115,45.65052 32.874119,32.874119 0 0 1 -45.759718,-4.50694 l 25.18304,-21.13108 z m -1.53584,-2.41681 a 32.874119,32.874119 0 0 1 11.41561,-44.541536 32.874119,32.874119 0 0 1 44.779973,10.441216 32.874119,32.874119 0 0 1 -9.461875,44.99709 32.874119,32.874119 0 0 1 -45.192788,-8.47801 l 26.92891,-18.85583 z m -1.32061,-2.54237 a 32.874119,32.874119 0 0 1 15.25423,-43.377126 32.874119,32.874119 0 0 1 43.699543,14.304336 32.874119,32.874119 0 0 1 -13.347625,44.0012 32.874119,32.874119 0 0 1 -44.281888,-12.38456 l 28.46982,-16.43707 z m -1.09283,-2.64681 A 32.874119,32.874119 0 0 1 64.274307,9.7288509 32.874119,32.874119 0 0 1 106.56087,27.787407 32.874119,32.874119 0 0 1 89.429088,70.457847 32.874119,32.874119 0 0 1 46.395077,54.260997 l 29.79407,-13.8932 z m -0.89115,-2.75364 A 32.874119,32.874119 0 0 1 66.961278,8.7884809 32.874119,32.874119 0 0 1 107.51299,30.463857 32.874119,32.874119 0 0 1 86.727427,71.478817 32.874119,32.874119 0 0 1 45.268817,51.592907 l 30.89156,-11.24361 z m -0.61662,-2.79636 A 32.874119,32.874119 0 0 1 69.751068,8.1104109 32.874119,32.874119 0 0 1 108.25937,33.237607 32.874119,32.874119 0 0 1 83.978208,72.284877 32.874119,32.874119 0 0 1 44.410527,48.861337 l 31.75398,-8.50848 z m -0.37142,-2.84072 A 32.874119,32.874119 0 0 1 72.588496,7.6767709 32.874119,32.874119 0 0 1 108.76031,36.064557 32.874119,32.874119 0 0 1 81.168328,72.847017 32.874119,32.874119 0 0 1 43.792727,46.064037 l 32.37468,-5.70854 z m -0.12167,-2.86094 A 32.874119,32.874119 0 0 1 75.453688,7.4934309 32.874119,32.874119 0 0 1 109.01368,38.925787 32.874119,32.874119 0 0 1 78.320898,73.163477 32.874119,32.874119 0 0 1 43.421797,43.224907 l 32.749041,-2.86518 z m 0.12332,-2.86962 A 32.874119,32.874119 0 0 1 78.319128,7.5515309 32.874119,32.874119 0 0 1 109.01188,41.789217 32.874119,32.874119 0 0 1 75.451907,73.221577 32.874119,32.874119 0 0 1 43.294937,40.355287 h 32.87411 z m 0.37696,-2.83863 A 32.874119,32.874119 0 0 1 81.172617,7.8685209 32.874119,32.874119 0 0 1 108.76458,44.650967 32.874119,32.874119 0 0 1 72.592788,73.038777 32.874119,32.874119 0 0 1 43.422667,37.494857 l 32.749021,2.86517 z m 0.62259,-2.79643 A 32.874119,32.874119 0 0 1 83.987249,8.4314809 32.874119,32.874119 0 0 1 108.2684,47.478777 32.874119,32.874119 0 0 1 69.760108,72.605947 32.874119,32.874119 0 0 1 43.798857,34.654977 l 32.37468,5.70853 z m 0.86417,-2.73002 A 32.874119,32.874119 0 0 1 86.742337,9.2391609 32.874119,32.874119 0 0 1 107.52792,50.254097 32.874119,32.874119 0 0 1 66.976168,71.929447 32.874119,32.874119 0 0 1 44.421347,31.860207 l 31.753949,8.50846 z m 1.0904,-2.67054 A 32.874119,32.874119 0 0 1 89.408178,10.257641 32.874119,32.874119 0 0 1 106.53995,52.928077 32.874119,32.874119 0 0 1 64.253388,70.986647 32.874119,32.874119 0 0 1 45.276647,29.104087 l 30.891561,11.24362 z m 1.32509,-2.53849 A 32.874119,32.874119 0 0 1 91.981165,11.531441 32.874119,32.874119 0 0 1 105.32878,55.532657 32.874119,32.874119 0 0 1 61.629218,69.836987 32.874119,32.874119 0 0 1 46.375007,26.459867 l 29.79408,13.8932 z m 1.54147,-2.41487 a 32.874119,32.874119 0 0 1 45.192788,-8.478006 32.874119,32.874119 0 0 1 9.461875,44.997096 32.874119,32.874119 0 0 1 -44.779983,10.44121 32.874119,32.874119 0 0 1 -11.41559,-44.54153 l 28.4698,16.43706 z m 1.74577,-2.2698 a 32.874119,32.874119 0 0 1 45.759728,-4.506956 32.874119,32.874119 0 0 1 5.504115,45.650526 32.874119,32.874119 0 0 1 -45.519583,6.49866 32.874119,32.874119 0 0 1 -7.49012,-45.36699 l 26.928912,18.85583 z m 1.93903,-2.11901 a 32.874119,32.874119 0 0 1 45.978408,-0.501566 32.874119,32.874119 0 0 1 1.504445,45.956516 32.874119,32.874119 0 0 1 -45.912753,2.50665 32.874119,32.874119 0 0 1 -3.50764,-45.84715 l 25.183051,21.13106 z m 2.1134,-1.932186 a 32.874119,32.874119 0 0 1 45.847153,3.507616 32.874119,32.874119 0 0 1 -2.506655,45.91278 32.874119,32.874119 0 0 1 -45.956508,-1.50445 32.874119,32.874119 0 0 1 0.50158,-45.97842 l 23.24552,23.24551 z m 2.27442,-1.74201 a 32.874119,32.874119 0 0 1 45.366993,7.490116 32.874119,32.874119 0 0 1 -6.498655,45.51957 32.874119,32.874119 0 0 1 -45.650528,-5.50411 32.874119,32.874119 0 0 1 4.50694,-45.759706 l 21.131071,25.183026 z m 2.41681,-1.53583 a 32.874119,32.874119 0 0 1 44.541553,11.415586 32.874119,32.874119 0 0 1 -10.441235,44.77997 32.874119,32.874119 0 0 1 -44.997078,-9.46186 32.874119,32.874119 0 0 1 8.47801,-45.192776 l 18.855811,26.928896 z m 2.544681,-1.35527 A 32.874119,32.874119 0 0 1 105.65193,25.801257 32.874119,32.874119 0 0 1 91.347608,69.500797 32.874119,32.874119 0 0 1 47.346387,56.153187 32.874119,32.874119 0 0 1 59.730967,11.871281 l 16.437051,28.469826 z m 2.64679,-1.0928401 A 32.874119,32.874119 0 0 1 106.80417,28.430917 32.874119,32.874119 0 0 1 88.745608,70.717497 32.874119,32.874119 0 0 1 46.075157,53.585717 32.874119,32.874119 0 0 1 62.272017,10.551691 l 13.893201,29.794076 z m 2.73307,-0.85905 A 32.874119,32.874119 0 0 1 107.72394,31.149957 32.874119,32.874119 0 0 1 86.048578,71.701707 32.874119,32.874119 0 0 1 45.033637,50.916137 32.874119,32.874119 0 0 1 64.919517,9.4575309 L 76.163139,40.349087 Z m 2.79635,-0.61663 A 32.874119,32.874119 0 0 1 108.40203,33.939787 32.874119,32.874119 0 0 1 83.274819,72.448097 32.874119,32.874119 0 0 1 44.227537,48.166917 32.874119,32.874119 0 0 1 67.651108,8.5992409 l 8.508459,31.7539661 z m 2.847449,-0.37686 A 32.874119,32.874119 0 0 1 108.84238,36.771767 32.874119,32.874119 0 0 1 80.454567,72.943557 32.874119,32.874119 0 0 1 43.672117,45.351607 32.874119,32.874119 0 0 1 70.455097,7.9760009 l 5.708542,32.3746661 z m 2.86095,-0.12168 A 32.874119,32.874119 0 0 1 109.02571,39.636957 32.874119,32.874119 0 0 1 77.593357,73.196947 32.874119,32.874119 0 0 1 43.355667,42.504177 32.874119,32.874119 0 0 1 73.294249,7.6050809 l 2.86517,32.7490261 z m 2.862051,0.12752 A 32.874119,32.874119 0 0 1 108.96005,42.506587 32.874119,32.874119 0 0 1 74.722348,73.199347 32.874119,32.874119 0 0 1 43.290017,39.639367 32.874119,32.874119 0 0 1 76.156307,7.4824009 V 40.356517 Z m 2.838611,0.37698 A 32.874119,32.874119 0 0 1 108.64307,45.360067 32.874119,32.874119 0 0 1 71.860606,72.952037 32.874119,32.874119 0 0 1 43.472827,36.780257 32.874119,32.874119 0 0 1 79.016718,7.6101309 L 76.151547,40.359157 Z m 2.819318,0.61011 A 32.874119,32.874119 0 0 1 108.10298,48.162267 32.874119,32.874119 0 0 1 69.055698,72.443427 32.874119,32.874119 0 0 1 43.928497,33.935117 32.874119,32.874119 0 0 1 81.879488,7.9738509 L 76.170957,40.348527 Z m 2.730032,0.86416 A 32.874119,32.874119 0 0 1 107.29532,50.917357 32.874119,32.874119 0 0 1 66.280368,71.702927 32.874119,32.874119 0 0 1 44.605017,31.151187 32.874119,32.874119 0 0 1 84.674269,8.5963509 L 76.165827,40.350317 Z m 2.645849,1.0987101 A 32.874119,32.874119 0 0 1 106.25215,53.591467 32.874119,32.874119 0 0 1 63.581688,70.723257 32.874119,32.874119 0 0 1 45.523137,28.436687 32.874119,32.874119 0 0 1 87.405679,9.4599609 L 76.162067,40.351517 Z m 2.538467,1.32511 A 32.874119,32.874119 0 0 1 104.97833,56.164447 32.874119,32.874119 0 0 1 60.977107,69.512087 32.874119,32.874119 0 0 1 46.672797,25.812517 32.874119,32.874119 0 0 1 90.049898,10.558301 L 76.156699,40.352377 Z m 2.42351,1.5416 a 32.874119,32.874119 0 0 1 8.478015,45.192786 32.874119,32.874119 0 0 1 -44.997083,9.46186 32.874119,32.874119 0 0 1 -10.44123,-44.77996 32.874119,32.874119 0 0 1 44.541538,-11.415616 L 76.161448,40.353047 Z m 2.26982,1.74577 a 32.874119,32.874119 0 0 1 4.506945,45.759716 32.874119,32.874119 0 0 1 -45.650523,5.50411 32.874119,32.874119 0 0 1 -6.49866,-45.51958 32.874119,32.874119 0 0 1 45.366978,-7.490116 L 76.156008,40.352967 Z m 2.11051,1.937366 a 32.874119,32.874119 0 0 1 0.50156,45.97841 32.874119,32.874119 0 0 1 -45.956518,1.50445 32.874119,32.874119 0 0 1 -2.50662,-45.91276 32.874119,32.874119 0 0 1 45.847138,-3.507616 L 76.152077,40.352817 Z m 1.932175,2.11341 a 32.874119,32.874119 0 0 1 -3.507615,45.84715 32.874119,32.874119 0 0 1 -45.912768,-2.50664 32.874119,32.874119 0 0 1 1.50446,-45.956506 32.874119,32.874119 0 0 1 45.978388,0.501556 l -23.245498,23.24551 z m -1.923255,44.38846 a 32.874119,32.874119 0 0 1 -45.978418,0.50156 32.874119,32.874119 0 0 1 -1.50443,-45.95651 32.874119,32.874119 0 0 1 45.912758,-2.506636 32.874119,32.874119 0 0 1 3.507615,45.847146 L 76.161009,40.363657 Z m -2.1134,1.93219 a 32.874119,32.874119 0 0 1 -45.847148,-3.50762 32.874119,32.874119 0 0 1 2.50664,-45.912776 32.874119,32.874119 0 0 1 45.956508,1.504466 32.874119,32.874119 0 0 1 -0.50155,45.97839 L 76.162028,40.358307 Z m -2.27443,1.74201 a 32.874119,32.874119 0 0 1 -45.366978,-7.4901 32.874119,32.874119 0 0 1 6.49866,-45.519606 32.874119,32.874119 0 0 1 45.650523,5.504126 32.874119,32.874119 0 0 1 -4.506955,45.75971 L 76.162869,40.354477 Z m -2.41681,1.53585 a 32.874119,32.874119 0 0 1 -44.541538,-11.41561 32.874119,32.874119 0 0 1 10.44123,-44.779986 32.874119,32.874119 0 0 1 44.997093,9.461886 32.874119,32.874119 0 0 1 -8.478015,45.19279 L 76.164808,40.349387 Z m -2.546828,1.32801 A 32.874119,32.874119 0 0 1 46.677937,54.893017 32.874119,32.874119 0 0 1 60.982277,11.193471 32.874119,32.874119 0 0 1 104.98347,24.541067 32.874119,32.874119 0 0 1 92.598915,68.822977 L 76.161858,40.353167 Z m -2.646788,1.09285 A 32.874119,32.874119 0 0 1 45.525707,52.263327 32.874119,32.874119 0 0 1 63.584257,9.9767609 32.874119,32.874119 0 0 1 106.25472,27.108547 32.874119,32.874119 0 0 1 90.057849,70.142557 L 76.164636,40.348497 Z m -2.733072,0.85904 A 32.874119,32.874119 0 0 1 44.605937,49.544297 32.874119,32.874119 0 0 1 66.281307,8.9925509 32.874119,32.874119 0 0 1 107.29623,29.778127 32.874119,32.874119 0 0 1 87.410349,71.236717 L 76.166737,40.345167 Z m -2.79635,0.61663 A 32.874119,32.874119 0 0 1 43.927857,46.754497 32.874119,32.874119 0 0 1 69.055048,8.2461809 32.874119,32.874119 0 0 1 108.10232,32.527337 32.874119,32.874119 0 0 1 84.678759,72.095017 l -8.508442,-31.75396 z m -2.857971,0.39095 A 32.874119,32.874119 0 0 1 43.476967,43.936557 32.874119,32.874119 0 0 1 71.864758,7.7647909 32.874119,32.874119 0 0 1 108.64722,35.356747 32.874119,32.874119 0 0 1 81.864238,72.732357 l -5.708531,-32.37469 z m -2.860939,0.12168 A 32.874119,32.874119 0 0 1 43.293627,41.071387 32.874119,32.874119 0 0 1 74.725978,7.5114109 32.874119,32.874119 0 0 1 108.96367,38.204177 32.874119,32.874119 0 0 1 79.025097,73.103277 l -2.86517,-32.74904 z m -2.86207,-0.12752 A 32.874119,32.874119 0 0 1 43.359297,38.201757 32.874119,32.874119 0 0 1 77.596987,7.5089909 32.874119,32.874119 0 0 1 109.02933,41.068977 32.874119,32.874119 0 0 1 76.163038,73.225937 l -1e-5,-32.8741 z m -2.83859,-0.37698 A 32.874119,32.874119 0 0 1 43.676267,35.348267 32.874119,32.874119 0 0 1 80.458729,7.7563109 32.874119,32.874119 0 0 1 108.84652,43.928087 32.874119,32.874119 0 0 1 73.302628,73.098217 l 2.86517,-32.74903 z m -2.804629,-0.61975 A 32.874119,32.874119 0 0 1 44.231077,32.536447 32.874119,32.874119 0 0 1 83.278348,8.2553009 32.874119,32.874119 0 0 1 108.40555,46.763587 32.874119,32.874119 0 0 1 70.454579,72.724867 l 5.708517,-32.37469 z m -2.73002,-0.86415 A 32.874119,32.874119 0 0 1 45.038737,29.781357 32.874119,32.874119 0 0 1 86.053677,8.9958009 32.874119,32.874119 0 0 1 107.72903,49.547527 32.874119,32.874119 0 0 1 67.659787,72.102357 l 8.50844,-31.75397 z m -2.64584,-1.0987 A 32.874119,32.874119 0 0 1 46.081917,27.107247 32.874119,32.874119 0 0 1 88.752358,9.9754609 32.874119,32.874119 0 0 1 106.81091,52.262037 32.874119,32.874119 0 0 1 64.928367,71.238757 l 11.243612,-30.89156 z m -2.538481,-1.32511 a 32.874119,32.874119 0 0 1 -12.38457,-44.28191 32.874119,32.874119 0 0 1 44.0012,-13.347616 32.874119,32.874119 0 0 1 14.304323,43.699546 32.874119,32.874119 0 0 1 -43.377092,15.25421 l 13.8932,-29.79405 z m -2.446029,-1.52613 a 32.874119,32.874119 0 0 1 -8.478011,-45.1928 32.874119,32.874119 0 0 1 44.997078,-9.461856 32.874119,32.874119 0 0 1 10.441245,44.779976 32.874119,32.874119 0 0 1 -44.541542,11.4156 l 16.437049,-28.46982 z m -2.269821,-1.74575 a 32.874119,32.874119 0 0 1 -4.50694,-45.75974 32.874119,32.874119 0 0 1 45.650528,-5.504116 32.874119,32.874119 0 0 1 6.498655,45.519576 32.874119,32.874119 0 0 1 -45.366973,7.49013 l 18.85581,-26.92891 z m -2.1105,-1.93739 a 32.874119,32.874119 0 0 1 -0.50157,-45.97841 32.874119,32.874119 0 0 1 45.956518,-1.504456 32.874119,32.874119 0 0 1 2.506635,45.912756 32.874119,32.874119 0 0 1 -45.847142,3.50763 l 21.13107,-25.18304 z m -1.93218,-2.1134 a 32.874119,32.874119 0 0 1 3.50761,-45.847156 32.874119,32.874119 0 0 1 45.912783,2.506636 32.874119,32.874119 0 0 1 -1.504485,45.95653 32.874119,32.874119 0 0 1 -45.978388,-0.50158 l 23.245521,-23.24552 z m -1.75009,-2.27753 a 32.874119,32.874119 0 0 1 7.490111,-45.366986 32.874119,32.874119 0 0 1 45.519582,6.498666 32.874119,32.874119 0 0 1 -5.504115,45.65051 32.874119,32.874119 0 0 1 -45.759708,-4.50693 l 25.18302,-21.13107 z m -1.53586,-2.41681 a 32.874119,32.874119 0 0 1 11.415621,-44.541536 32.874119,32.874119 0 0 1 44.779972,10.441216 32.874119,32.874119 0 0 1 -9.461875,44.9971 32.874119,32.874119 0 0 1 -45.192778,-8.47802 l 26.928901,-18.85583 z m -1.32059,-2.54238 A 32.874119,32.874119 0 0 1 61.629447,10.879671 32.874119,32.874119 0 0 1 105.329,25.183997 32.874119,32.874119 0 0 1 91.981365,69.185197 32.874119,32.874119 0 0 1 47.699487,56.800627 l 28.469811,-16.43704 z m -1.09283,-2.64679 A 32.874119,32.874119 0 0 1 64.259117,9.7274409 32.874119,32.874119 0 0 1 106.54569,27.785997 32.874119,32.874119 0 0 1 89.413898,70.456427 32.874119,32.874119 0 0 1 46.379897,54.259577 l 29.794061,-13.8932 z m -0.88129,-2.74667 A 32.874119,32.874119 0 0 1 66.955938,8.7940709 32.874119,32.874119 0 0 1 107.50767,30.469427 32.874119,32.874119 0 0 1 86.722107,71.484377 32.874119,32.874119 0 0 1 45.263507,51.598487 l 30.891551,-11.24361 z m -0.61663,-2.79634 A 32.874119,32.874119 0 0 1 69.745747,8.1159909 32.874119,32.874119 0 0 1 108.25405,33.243177 32.874119,32.874119 0 0 1 83.972898,72.290457 32.874119,32.874119 0 0 1 44.405217,48.866887 l 31.753961,-8.50845 z m -0.37141,-2.84072 A 32.874119,32.874119 0 0 1 72.583189,7.6823509 32.874119,32.874119 0 0 1 108.75497,36.070147 32.874119,32.874119 0 0 1 81.163007,72.852597 32.874119,32.874119 0 0 1 43.787407,46.069617 l 32.374681,-5.70853 z m -0.12167,-2.86095 A 32.874119,32.874119 0 0 1 75.448367,7.4990109 32.874119,32.874119 0 0 1 109.00835,38.931357 32.874119,32.874119 0 0 1 78.315577,73.169047 32.874119,32.874119 0 0 1 43.416487,43.230477 l 32.74903,-2.86517 z m 0.12331,-2.86961 A 32.874119,32.874119 0 0 1 78.313807,7.5571109 32.874119,32.874119 0 0 1 109.00656,41.794797 32.874119,32.874119 0 0 1 75.446586,73.227157 32.874119,32.874119 0 0 1 43.289617,40.360857 h 32.874112 z m 0.37697,-2.83862 A 32.874119,32.874119 0 0 1 81.167288,7.8741009 32.874119,32.874119 0 0 1 108.75925,44.656547 32.874119,32.874119 0 0 1 72.587467,73.044337 32.874119,32.874119 0 0 1 43.417347,37.500447 l 32.74903,2.86516 z m 0.62257,-2.79644 A 32.874119,32.874119 0 0 1 83.981928,8.4370709 32.874119,32.874119 0 0 1 108.26308,47.484347 32.874119,32.874119 0 0 1 69.754777,72.611537 32.874119,32.874119 0 0 1 43.793527,34.660557 l 32.374681,5.70853 z m 0.86417,-2.73002 A 32.874119,32.874119 0 0 1 86.737019,9.2447409 32.874119,32.874119 0 0 1 107.52259,50.259667 32.874119,32.874119 0 0 1 66.970848,71.935027 32.874119,32.874119 0 0 1 44.416027,31.865787 l 31.753951,8.50846 z m 1.08735,-2.68224 A 32.874119,32.874119 0 0 1 89.399809,10.251521 32.874119,32.874119 0 0 1 106.53157,52.921957 32.874119,32.874119 0 0 1 64.245007,70.980527 32.874119,32.874119 0 0 1 45.268277,29.097967 l 30.89156,11.24362 z m 1.3251,-2.53849 A 32.874119,32.874119 0 0 1 91.972775,11.525331 32.874119,32.874119 0 0 1 105.3204,55.526537 32.874119,32.874119 0 0 1 61.620847,69.830857 32.874119,32.874119 0 0 1 46.366617,26.453757 l 29.79409,13.8932 z m 1.54146,-2.41486 a 32.874119,32.874119 0 0 1 45.192788,-8.478016 32.874119,32.874119 0 0 1 9.461885,44.997096 32.874119,32.874119 0 0 1 -44.779983,10.44121 32.874119,32.874119 0 0 1 -11.4156,-44.54152 l 28.469812,16.43704 z m 1.74577,-2.26982 a 32.874119,32.874119 0 0 1 45.759728,-4.506936 32.874119,32.874119 0 0 1 5.504115,45.650536 32.874119,32.874119 0 0 1 -45.519593,6.49864 32.874119,32.874119 0 0 1 -7.49012,-45.36698 l 26.92892,18.85582 z m 1.93903,-2.11899 a 32.874119,32.874119 0 0 1 45.978398,-0.501566 32.874119,32.874119 0 0 1 1.504455,45.956506 32.874119,32.874119 0 0 1 -45.912753,2.50665 32.874119,32.874119 0 0 1 -3.50763,-45.84714 l 25.183031,21.13106 z m 2.1134,-1.932196 a 32.874119,32.874119 0 0 1 45.847153,3.507636 32.874119,32.874119 0 0 1 -2.506635,45.91276 32.874119,32.874119 0 0 1 -45.956528,-1.50445 32.874119,32.874119 0 0 1 0.50158,-45.97841 l 23.24551,23.24551 z m 2.274431,-1.742 a 32.874119,32.874119 0 0 1 45.366982,7.490106 32.874119,32.874119 0 0 1 -6.498675,45.5196 32.874119,32.874119 0 0 1 -45.650498,-5.50414 32.874119,32.874119 0 0 1 4.506941,-45.759696 l 21.131071,25.183026 z m 2.41681,-1.53584 A 32.874119,32.874119 0 0 1 104.2633,23.311777 32.874119,32.874119 0 0 1 93.822075,68.091767 32.874119,32.874119 0 0 1 48.824997,58.629877 32.874119,32.874119 0 0 1 57.303008,13.437101 l 18.85581,26.928896 z m 2.551899,-1.34486 a 32.874119,32.874119 0 0 1 43.377123,15.254226 32.874119,32.874119 0 0 1 -14.304333,43.69955 32.874119,32.874119 0 0 1 -44.00121,-13.34761 32.874119,32.874119 0 0 1 12.38456,-44.281916 l 16.43706,28.469826 z m 2.64679,-1.0928401 A 32.874119,32.874119 0 0 1 106.80302,28.435217 32.874119,32.874119 0 0 1 88.744457,70.721787 32.874119,32.874119 0 0 1 46.074007,53.590007 32.874119,32.874119 0 0 1 62.270868,10.555991 l 13.89321,29.794076 z m 2.73308,-0.85906 A 32.874119,32.874119 0 0 1 107.72278,31.154247 32.874119,32.874119 0 0 1 86.047417,71.706007 32.874119,32.874119 0 0 1 45.032487,50.920417 32.874119,32.874119 0 0 1 64.918368,9.4618309 L 76.161977,40.353377 Z m 2.79634,-0.61661 A 32.874119,32.874119 0 0 1 108.40088,33.944067 32.874119,32.874119 0 0 1 83.273668,72.452367 32.874119,32.874119 0 0 1 44.226397,48.171207 32.874119,32.874119 0 0 1 67.649958,8.6035309 l 8.50845,31.7539761 z m 2.847451,-0.37687 A 32.874119,32.874119 0 0 1 108.84123,36.776067 32.874119,32.874119 0 0 1 80.453426,72.947847 32.874119,32.874119 0 0 1 43.670977,45.355887 32.874119,32.874119 0 0 1 70.453946,7.9802809 l 5.708542,32.3746861 z m 2.86094,-0.12168 A 32.874119,32.874119 0 0 1 109.02457,39.641237 32.874119,32.874119 0 0 1 77.592206,73.201217 32.874119,32.874119 0 0 1 43.354527,42.508457 32.874119,32.874119 0 0 1 73.293098,7.6093709 l 2.86518,32.7490261 z m 2.862059,0.12752 A 32.874119,32.874119 0 0 1 108.9589,42.510877 32.874119,32.874119 0 0 1 74.721218,73.203637 32.874119,32.874119 0 0 1 43.288867,39.643647 32.874119,32.874119 0 0 1 76.155156,7.4866909 V 40.360797 Z m 2.8386,0.37698 A 32.874119,32.874119 0 0 1 108.64192,45.364357 32.874119,32.874119 0 0 1 71.859469,72.956327 32.874119,32.874119 0 0 1 43.471677,36.784537 32.874119,32.874119 0 0 1 79.015567,7.6144309 L 76.150396,40.363447 Z m 2.82048,0.59749 A 32.874119,32.874119 0 0 1 108.10298,48.153947 32.874119,32.874119 0 0 1 69.055698,72.435087 32.874119,32.874119 0 0 1 43.928497,33.926787 32.874119,32.874119 0 0 1 81.879488,7.9655309 L 76.170957,40.340207 Z m 2.730021,0.86416 A 32.874119,32.874119 0 0 1 107.29532,50.909027 32.874119,32.874119 0 0 1 66.280368,71.694597 32.874119,32.874119 0 0 1 44.605017,31.142857 32.874119,32.874119 0 0 1 84.674258,8.5880209 L 76.165816,40.341997 Z m 2.645849,1.0987101 A 32.874119,32.874119 0 0 1 106.25214,53.583137 32.874119,32.874119 0 0 1 63.581688,70.714927 32.874119,32.874119 0 0 1 45.523137,28.428357 32.874119,32.874119 0 0 1 87.405679,9.4516309 L 76.162078,40.343187 Z m 2.538478,1.3251 A 32.874119,32.874119 0 0 1 104.97833,56.156127 32.874119,32.874119 0 0 1 60.977107,69.503747 32.874119,32.874119 0 0 1 46.672797,25.804187 32.874119,32.874119 0 0 1 90.049898,10.549971 L 76.156699,40.344047 Z m 2.42351,1.54161 a 32.874119,32.874119 0 0 1 8.478025,45.192786 32.874119,32.874119 0 0 1 -44.997093,9.46186 32.874119,32.874119 0 0 1 -10.44123,-44.77996 32.874119,32.874119 0 0 1 44.541528,-11.415606 L 76.161448,40.344717 Z m 2.26983,1.74577 a 32.874119,32.874119 0 0 1 4.506935,45.759716 32.874119,32.874119 0 0 1 -45.650523,5.50412 32.874119,32.874119 0 0 1 -6.49866,-45.51959 32.874119,32.874119 0 0 1 45.366978,-7.490106 L 76.156008,40.344637 Z m 2.11049,1.937376 a 32.874119,32.874119 0 0 1 0.50157,45.9784 32.874119,32.874119 0 0 1 -45.956518,1.50445 32.874119,32.874119 0 0 1 -2.50662,-45.91275 32.874119,32.874119 0 0 1 45.847128,-3.507616 L 76.152077,40.344487 Z m 1.932185,2.1134 a 32.874119,32.874119 0 0 1 -3.507615,45.84714 32.874119,32.874119 0 0 1 -45.912768,-2.50663 32.874119,32.874119 0 0 1 1.50447,-45.956506 32.874119,32.874119 0 0 1 45.978388,0.501556 l -23.245508,23.24551 z m 1.76756,2.2796 a 32.874119,32.874119 0 0 1 -7.490125,45.36699 32.874119,32.874119 0 0 1 -45.519568,-6.49867 32.874119,32.874119 0 0 1 5.5041,-45.650516 32.874119,32.874119 0 0 1 45.759723,4.506936 l -25.183032,21.13107 z m 1.53585,2.41681 a 32.874119,32.874119 0 0 1 -11.415615,44.54154 32.874119,32.874119 0 0 1 -44.779978,-10.44122 32.874119,32.874119 0 0 1 9.46187,-44.997086 32.874119,32.874119 0 0 1 45.192793,8.478006 l -26.928902,18.85583 z m 1.3206,2.54238 A 32.874119,32.874119 0 0 1 90.699559,69.828277 32.874119,32.874119 0 0 1 46.999997,55.523947 32.874119,32.874119 0 0 1 60.347627,11.522751 32.874119,32.874119 0 0 1 104.62952,23.907307 l -28.469813,16.43706 z m 1.09283,2.64679 A 32.874119,32.874119 0 0 1 88.069878,70.980517 32.874119,32.874119 0 0 1 45.783307,52.921947 32.874119,32.874119 0 0 1 62.915098,10.251511 32.874119,32.874119 0 0 1 105.94911,26.448357 l -29.794073,13.89321 z m 0.86559,2.73874 A 32.874119,32.874119 0 0 1 85.357367,71.905947 32.874119,32.874119 0 0 1 44.805637,50.230587 32.874119,32.874119 0 0 1 65.591197,9.2156509 32.874119,32.874119 0 0 1 107.0498,29.101527 l -30.891561,11.24361 z m 0.61663,2.79635 A 32.874119,32.874119 0 0 1 82.567558,72.584037 32.874119,32.874119 0 0 1 44.059257,47.456837 32.874119,32.874119 0 0 1 68.340417,8.4095609 32.874119,32.874119 0 0 1 107.90809,31.833127 l -31.753963,8.50846 z m 0.37141,2.84072 A 32.874119,32.874119 0 0 1 79.730116,73.017667 32.874119,32.874119 0 0 1 43.558337,44.629877 32.874119,32.874119 0 0 1 71.150298,7.8474309 32.874119,32.874119 0 0 1 108.5259,34.630407 l -32.374683,5.70853 z m 0.12167,2.86094 A 32.874119,32.874119 0 0 1 76.864938,73.201007 32.874119,32.874119 0 0 1 43.304957,41.768657 32.874119,32.874119 0 0 1 73.997717,7.5309809 32.874119,32.874119 0 0 1 108.89681,37.469537 l -32.749022,2.86517 z"
       style="opacity:1;fill:#b9ffff;fill-opacity:0.55132;stroke:#000000;stroke-width:0.397597;stroke-miterlimit:4;stroke-dasharray:none;stroke-dashoffset:13.8784;stroke-opacity:1"
       id="path3923-3-3-8-8-4-2-3-5"
       inkscape:connector-curvature="0" />
    <path
       id="path3923-3-3-8-8-4-2-3"
       style="fill:#ffffff;fill-opacity:1;stroke:#000000;stroke-width:0.397597;stroke-miterlimit:4;stroke-dasharray:none;stroke-dashoffset:13.8784;stroke-opacity:1"
       d="m 171.68349,141.80329 a 32.874119,32.874119 0 0 1 -34.89912,29.93858 32.874119,32.874119 0 0 1 -30.69273,-34.2377 32.874119,32.874119 0 0 1 33.55997,-31.43235 32.874119,32.874119 0 0 1 32.15697,32.8663 h -32.8741 z m -0.37696,2.83861 a 32.874119,32.874119 0 0 1 -37.37563,26.78298 32.874119,32.874119 0 0 1 -27.59196,-36.78246 32.874119,32.874119 0 0 1 36.17178,-28.38778 32.874119,32.874119 0 0 1 29.17014,35.54387 l -32.74904,-2.86515 z m -0.62258,2.79643 a 32.874119,32.874119 0 0 1 -39.56768,23.42358 32.874119,32.874119 0 0 1 -24.28117,-39.04729 32.874119,32.874119 0 0 1 38.50832,-25.12719 32.874119,32.874119 0 0 1 25.96125,37.95098 L 138.93,138.92989 Z m -0.86415,2.73002 a 32.874119,32.874119 0 0 1 -41.45862,19.8859 32.874119,32.874119 0 0 1 -20.78558,-41.01496 32.874119,32.874119 0 0 1 40.55176,-21.67535 32.874119,32.874119 0 0 1 22.55483,40.06925 l -31.75397,-8.50845 z m -1.09737,2.6544 a 32.874119,32.874119 0 0 1 -43.03402,16.19685 32.874119,32.874119 0 0 1 -17.13176,-42.67044 32.874119,32.874119 0 0 1 42.28655,-18.05857 32.874119,32.874119 0 0 1 18.97674,41.88254 l -30.89155,-11.24359 z m -1.32508,2.53849 a 32.874119,32.874119 0 0 1 -44.28192,12.38455 32.874119,32.874119 0 0 1 -13.34763,-44.0012 32.874119,32.874119 0 0 1 43.69957,-14.30433 32.874119,32.874119 0 0 1 15.25421,43.3771 l -29.79407,-13.89318 z m -1.54148,2.41485 a 32.874119,32.874119 0 0 1 -45.19278,8.47802 32.874119,32.874119 0 0 1 -9.46187,-44.9971 32.874119,32.874119 0 0 1 44.77997,-10.44121 32.874119,32.874119 0 0 1 11.4156,44.54152 l -28.46982,-16.43705 z m -1.74577,2.26982 a 32.874119,32.874119 0 0 1 -45.75971,4.50694 32.874119,32.874119 0 0 1 -5.50411,-45.65053 32.874119,32.874119 0 0 1 45.51957,-6.49865 32.874119,32.874119 0 0 1 7.49013,45.36698 l -26.92891,-18.85582 z m -1.93803,2.13656 a 32.874119,32.874119 0 0 1 -45.97841,0.50155 32.874119,32.874119 0 0 1 -1.50445,-45.95651 32.874119,32.874119 0 0 1 45.91275,-2.50664 32.874119,32.874119 0 0 1 3.50764,45.84715 l -25.18304,-21.13108 z m -2.1134,1.93218 a 32.874119,32.874119 0 0 1 -45.84715,-3.50763 32.874119,32.874119 0 0 1 2.50664,-45.91277 32.874119,32.874119 0 0 1 45.95651,1.50447 32.874119,32.874119 0 0 1 -0.50156,45.9784 L 138.92759,138.9316 Z m -2.27443,1.74202 a 32.874119,32.874119 0 0 1 -45.36698,-7.49012 32.874119,32.874119 0 0 1 6.49866,-45.51959 32.874119,32.874119 0 0 1 45.65052,5.50412 32.874119,32.874119 0 0 1 -4.50694,45.7597 l -21.13107,-25.18301 z m -2.41681,1.53583 a 32.874119,32.874119 0 0 1 -44.54155,-11.4156 32.874119,32.874119 0 0 1 10.44124,-44.77998 32.874119,32.874119 0 0 1 44.99707,9.46188 32.874119,32.874119 0 0 1 -8.47799,45.19278 l -18.85582,-26.92891 z m -2.54683,1.32802 a 32.874119,32.874119 0 0 1 -43.37711,-15.25422 32.874119,32.874119 0 0 1 14.30433,-43.69955 32.874119,32.874119 0 0 1 44.0012,13.34761 32.874119,32.874119 0 0 1 -12.38454,44.2819 l -16.43707,-28.4698 z m -2.64678,1.09284 a 32.874119,32.874119 0 0 1 -41.88256,-18.97674 32.874119,32.874119 0 0 1 18.05856,-42.28656 32.874119,32.874119 0 0 1 42.67044,17.13178 32.874119,32.874119 0 0 1 -16.19686,43.03402 l -13.89322,-29.79407 z m -2.73307,0.85906 a 32.874119,32.874119 0 0 1 -40.06926,-22.55483 32.874119,32.874119 0 0 1 21.67536,-40.55175 32.874119,32.874119 0 0 1 41.01494,20.78558 32.874119,32.874119 0 0 1 -19.88589,41.45861 l -11.2436,-30.89157 z m -2.79636,0.61661 a 32.874119,32.874119 0 0 1 -37.95099,-25.96125 32.874119,32.874119 0 0 1 25.12719,-38.5083 32.874119,32.874119 0 0 1 39.04728,24.28115 32.874119,32.874119 0 0 1 -23.42356,39.56766 l -8.50844,-31.75395 z m -2.85473,0.4032 a 32.874119,32.874119 0 0 1 -35.54391,-29.17013 32.874119,32.874119 0 0 1 28.38779,-36.17177 32.874119,32.874119 0 0 1 36.78248,27.59195 32.874119,32.874119 0 0 1 -26.78299,37.37561 l -5.70855,-32.37468 z m -2.86094,0.12169 a 32.874119,32.874119 0 0 1 -32.86631,-32.15698 32.874119,32.874119 0 0 1 31.43236,-33.56001 32.874119,32.874119 0 0 1 34.23767,30.69278 32.874119,32.874119 0 0 1 -29.93855,34.8991 l -2.86518,-32.74902 z m -2.86207,-0.12753 a 32.874119,32.874119 0 0 1 -29.93857,-34.89909 32.874119,32.874119 0 0 1 34.23769,-30.69277 32.874119,32.874119 0 0 1 31.43235,33.55998 32.874119,32.874119 0 0 1 -32.86629,32.15697 l -1e-5,-32.87411 z m -2.8386,-0.37697 a 32.874119,32.874119 0 0 1 -26.783,-37.37561 32.874119,32.874119 0 0 1 36.78248,-27.59197 32.874119,32.874119 0 0 1 28.38778,36.1718 32.874119,32.874119 0 0 1 -35.5439,29.17012 l 2.86517,-32.74904 z m -2.80461,-0.61975 a 32.874119,32.874119 0 0 1 -23.42358,-39.56769 32.874119,32.874119 0 0 1 39.04729,-24.28115 32.874119,32.874119 0 0 1 25.12719,38.5083 32.874119,32.874119 0 0 1 -37.95098,25.96127 l 5.70852,-32.37467 z m -2.73004,-0.86416 a 32.874119,32.874119 0 0 1 -19.88587,-41.45862 32.874119,32.874119 0 0 1 41.01494,-20.78557 32.874119,32.874119 0 0 1 21.67536,40.55175 32.874119,32.874119 0 0 1 -40.06925,22.55482 l 8.50845,-31.75396 z m -2.64584,-1.09871 a 32.874119,32.874119 0 0 1 -16.19685,-43.03402 32.874119,32.874119 0 0 1 42.67045,-17.13178 32.874119,32.874119 0 0 1 18.05853,42.28657 32.874119,32.874119 0 0 1 -41.88253,18.97672 l 11.24362,-30.89156 z m -2.53848,-1.3251 a 32.874119,32.874119 0 0 1 -12.38457,-44.28189 32.874119,32.874119 0 0 1 44.00121,-13.34763 32.874119,32.874119 0 0 1 14.30432,43.69954 32.874119,32.874119 0 0 1 -43.3771,15.25423 l 13.89321,-29.79407 z m -2.44063,-1.53759 a 32.874119,32.874119 0 0 1 -8.47801,-45.1928 32.874119,32.874119 0 0 1 44.99708,-9.46186 32.874119,32.874119 0 0 1 10.44123,44.77999 32.874119,32.874119 0 0 1 -44.54153,11.41559 l 16.43706,-28.46981 z m -2.26982,-1.74576 a 32.874119,32.874119 0 0 1 -4.50694,-45.75972 32.874119,32.874119 0 0 1 45.65053,-5.50412 32.874119,32.874119 0 0 1 6.49866,45.51957 32.874119,32.874119 0 0 1 -45.36699,7.49013 l 18.85583,-26.92891 z m -2.1105,-1.93738 a 32.874119,32.874119 0 0 1 -0.50156,-45.97841 32.874119,32.874119 0 0 1 45.95651,-1.50445 32.874119,32.874119 0 0 1 2.50663,45.91276 32.874119,32.874119 0 0 1 -45.84714,3.50762 l 21.13108,-25.18304 z m -1.93218,-2.1134 a 32.874119,32.874119 0 0 1 3.50762,-45.84715 32.874119,32.874119 0 0 1 45.91276,2.50664 32.874119,32.874119 0 0 1 -1.50447,45.95651 32.874119,32.874119 0 0 1 -45.97839,-0.50156 l 23.24551,-23.24552 z m -1.7501,-2.27752 a 32.874119,32.874119 0 0 1 7.49012,-45.36699 32.874119,32.874119 0 0 1 45.51958,6.49866 32.874119,32.874119 0 0 1 -5.50411,45.65052 32.874119,32.874119 0 0 1 -45.75972,-4.50694 l 25.18304,-21.13108 z m -1.53584,-2.41681 a 32.874119,32.874119 0 0 1 11.41561,-44.54154 32.874119,32.874119 0 0 1 44.77997,10.44122 32.874119,32.874119 0 0 1 -9.46187,44.99709 32.874119,32.874119 0 0 1 -45.19279,-8.47801 l 26.92891,-18.85583 z m -1.32061,-2.54238 a 32.874119,32.874119 0 0 1 15.25423,-43.37712 32.874119,32.874119 0 0 1 43.69954,14.30434 32.874119,32.874119 0 0 1 -13.34762,44.0012 32.874119,32.874119 0 0 1 -44.28189,-12.38457 l 28.46982,-16.43706 z m -1.09283,-2.6468 a 32.874119,32.874119 0 0 1 18.97674,-41.88255 32.874119,32.874119 0 0 1 42.28656,18.05856 32.874119,32.874119 0 0 1 -17.13178,42.67044 32.874119,32.874119 0 0 1 -43.03401,-16.19685 l 29.79407,-13.8932 z m -0.89115,-2.75365 a 32.874119,32.874119 0 0 1 22.55486,-40.06927 32.874119,32.874119 0 0 1 40.55171,21.67538 32.874119,32.874119 0 0 1 -20.78556,41.01495 32.874119,32.874119 0 0 1 -41.45861,-19.8859 l 30.89156,-11.24361 z m -0.61662,-2.79635 a 32.874119,32.874119 0 0 1 25.96127,-37.95099 32.874119,32.874119 0 0 1 38.5083,25.1272 32.874119,32.874119 0 0 1 -24.28116,39.04727 32.874119,32.874119 0 0 1 -39.56768,-23.42355 l 31.75398,-8.50847 z m -0.37142,-2.84072 a 32.874119,32.874119 0 0 1 29.17012,-35.54391 32.874119,32.874119 0 0 1 36.17181,28.38779 32.874119,32.874119 0 0 1 -27.59198,36.78246 32.874119,32.874119 0 0 1 -37.3756,-26.78298 l 32.37468,-5.70854 z m -0.12167,-2.86094 a 32.874119,32.874119 0 0 1 32.15698,-32.86631 32.874119,32.874119 0 0 1 33.55999,31.43236 32.874119,32.874119 0 0 1 -30.69278,34.23769 32.874119,32.874119 0 0 1 -34.8991,-29.93857 l 32.74904,-2.86518 z m 0.12332,-2.86963 a 32.874119,32.874119 0 0 1 34.8991,-29.93858 32.874119,32.874119 0 0 1 30.69275,34.23769 32.874119,32.874119 0 0 1 -33.55997,31.43236 32.874119,32.874119 0 0 1 -32.15697,-32.86629 l 32.87411,-1e-5 z m 0.37696,-2.83862 a 32.874119,32.874119 0 0 1 37.37563,-26.78297 32.874119,32.874119 0 0 1 27.59196,36.78245 32.874119,32.874119 0 0 1 -36.17179,28.3878 32.874119,32.874119 0 0 1 -29.17012,-35.54391 l 32.74902,2.86517 z m 0.62259,-2.79643 a 32.874119,32.874119 0 0 1 39.56767,-23.42358 32.874119,32.874119 0 0 1 24.28115,39.0473 32.874119,32.874119 0 0 1 -38.50829,25.12717 32.874119,32.874119 0 0 1 -25.96125,-37.95097 l 32.37468,5.70853 z m 0.86417,-2.73002 a 32.874119,32.874119 0 0 1 41.45859,-19.88588 32.874119,32.874119 0 0 1 20.78558,41.01494 32.874119,32.874119 0 0 1 -40.55175,21.67535 32.874119,32.874119 0 0 1 -22.55482,-40.06924 l 31.75395,8.50845 z m 1.0904,-2.67054 a 32.874119,32.874119 0 0 1 43.03403,-16.19686 32.874119,32.874119 0 0 1 17.13177,42.67044 32.874119,32.874119 0 0 1 -42.28656,18.05857 32.874119,32.874119 0 0 1 -18.97674,-41.88256 l 30.89156,11.24361 z m 1.32509,-2.53849 a 32.874119,32.874119 0 0 1 44.28193,-12.38457 32.874119,32.874119 0 0 1 13.34761,44.00122 32.874119,32.874119 0 0 1 -43.69956,14.30433 32.874119,32.874119 0 0 1 -15.25421,-43.37712 l 29.79408,13.8932 z m 1.54147,-2.41487 a 32.874119,32.874119 0 0 1 45.19279,-8.47801 32.874119,32.874119 0 0 1 9.46187,44.9971 32.874119,32.874119 0 0 1 -44.77998,10.44121 32.874119,32.874119 0 0 1 -11.41559,-44.54153 l 28.4698,16.43706 z m 1.74577,-2.2698 a 32.874119,32.874119 0 0 1 45.75973,-4.50696 32.874119,32.874119 0 0 1 5.50411,45.65053 32.874119,32.874119 0 0 1 -45.51958,6.49866 32.874119,32.874119 0 0 1 -7.49012,-45.36699 l 26.92891,18.85583 z m 1.93903,-2.11901 a 32.874119,32.874119 0 0 1 45.97841,-0.50157 32.874119,32.874119 0 0 1 1.50444,45.95652 32.874119,32.874119 0 0 1 -45.91275,2.50664 32.874119,32.874119 0 0 1 -3.50764,-45.84714 l 25.18305,21.13106 z m 2.1134,-1.93219 a 32.874119,32.874119 0 0 1 45.84715,3.50762 32.874119,32.874119 0 0 1 -2.50665,45.91278 32.874119,32.874119 0 0 1 -45.95651,-1.50446 32.874119,32.874119 0 0 1 0.50158,-45.97841 l 23.24552,23.24551 z m 2.27442,-1.74201 a 32.874119,32.874119 0 0 1 45.36699,7.49012 32.874119,32.874119 0 0 1 -6.49865,45.51957 32.874119,32.874119 0 0 1 -45.65053,-5.50411 32.874119,32.874119 0 0 1 4.50694,-45.75971 l 21.13107,25.18303 z m 2.41681,-1.53583 a 32.874119,32.874119 0 0 1 44.54155,11.41559 32.874119,32.874119 0 0 1 -10.44123,44.77997 32.874119,32.874119 0 0 1 -44.99708,-9.46186 32.874119,32.874119 0 0 1 8.47801,-45.19278 l 18.85581,26.9289 z m 2.54468,-1.35527 a 32.874119,32.874119 0 0 1 43.37711,15.25423 32.874119,32.874119 0 0 1 -14.30432,43.69954 32.874119,32.874119 0 0 1 -44.00122,-13.34761 32.874119,32.874119 0 0 1 12.38458,-44.28191 l 16.43705,28.46983 z m 2.64679,-1.09284 a 32.874119,32.874119 0 0 1 41.88256,18.97673 32.874119,32.874119 0 0 1 -18.05856,42.28658 32.874119,32.874119 0 0 1 -42.67045,-17.13178 32.874119,32.874119 0 0 1 16.19686,-43.03403 l 13.8932,29.79408 z m 2.73307,-0.85905 a 32.874119,32.874119 0 0 1 40.06926,22.55482 32.874119,32.874119 0 0 1 -21.67536,40.55175 32.874119,32.874119 0 0 1 -41.01494,-20.78557 32.874119,32.874119 0 0 1 19.88588,-41.45861 l 11.24362,30.89156 z m 2.79635,-0.61663 a 32.874119,32.874119 0 0 1 37.951,25.96127 32.874119,32.874119 0 0 1 -25.12721,38.50831 32.874119,32.874119 0 0 1 -39.04728,-24.28117 32.874119,32.874119 0 0 1 23.42357,-39.56768 l 8.50846,31.75397 z m 2.84745,-0.37686 a 32.874119,32.874119 0 0 1 35.5439,29.17012 32.874119,32.874119 0 0 1 -28.38781,36.17179 32.874119,32.874119 0 0 1 -36.78245,-27.59195 32.874119,32.874119 0 0 1 26.78298,-37.37561 l 5.70854,32.37467 z m 2.86095,-0.12168 a 32.874119,32.874119 0 0 1 32.86628,32.15699 32.874119,32.874119 0 0 1 -31.43235,33.55998 32.874119,32.874119 0 0 1 -34.23769,-30.69276 32.874119,32.874119 0 0 1 29.93858,-34.8991 l 2.86517,32.74902 z m 2.86205,0.12752 a 32.874119,32.874119 0 0 1 29.93857,34.8991 32.874119,32.874119 0 0 1 -34.2377,30.69276 32.874119,32.874119 0 0 1 -31.43233,-33.55998 32.874119,32.874119 0 0 1 32.86629,-32.15697 v 32.87412 z m 2.83861,0.37698 a 32.874119,32.874119 0 0 1 26.78298,37.3756 32.874119,32.874119 0 0 1 -36.78246,27.59197 32.874119,32.874119 0 0 1 -28.38778,-36.17178 32.874119,32.874119 0 0 1 35.54389,-29.17013 l -2.86517,32.74903 z m 2.81932,0.61011 a 32.874119,32.874119 0 0 1 23.42357,39.56769 32.874119,32.874119 0 0 1 -39.04728,24.28115 32.874119,32.874119 0 0 1 -25.1272,-38.5083 32.874119,32.874119 0 0 1 37.95099,-25.96127 l -5.70853,32.37468 z m 2.73003,0.86416 a 32.874119,32.874119 0 0 1 19.88588,41.45862 32.874119,32.874119 0 0 1 -41.01495,20.78557 32.874119,32.874119 0 0 1 -21.67535,-40.55174 32.874119,32.874119 0 0 1 40.06925,-22.55484 l -8.50844,31.75397 z m 2.64585,1.09871 a 32.874119,32.874119 0 0 1 16.19686,43.03402 32.874119,32.874119 0 0 1 -42.67046,17.13179 32.874119,32.874119 0 0 1 -18.05855,-42.28657 32.874119,32.874119 0 0 1 41.88254,-18.97673 l -11.24361,30.89156 z m 2.53847,1.32511 a 32.874119,32.874119 0 0 1 12.38457,44.28189 32.874119,32.874119 0 0 1 -44.00122,13.34763 32.874119,32.874119 0 0 1 -14.30431,-43.69956 32.874119,32.874119 0 0 1 43.3771,-15.25422 l -13.8932,29.79408 z m 2.42351,1.5416 a 32.874119,32.874119 0 0 1 8.47801,45.19279 32.874119,32.874119 0 0 1 -44.99708,9.46186 32.874119,32.874119 0 0 1 -10.44123,-44.77996 32.874119,32.874119 0 0 1 44.54154,-11.41562 l -16.43706,28.46982 z m 2.26982,1.74577 a 32.874119,32.874119 0 0 1 4.50694,45.75971 32.874119,32.874119 0 0 1 -45.65052,5.50412 32.874119,32.874119 0 0 1 -6.49866,-45.51958 32.874119,32.874119 0 0 1 45.36698,-7.49012 l -18.85582,26.92891 z m 2.11051,1.93737 a 32.874119,32.874119 0 0 1 0.50156,45.97841 32.874119,32.874119 0 0 1 -45.95652,1.50445 32.874119,32.874119 0 0 1 -2.50662,-45.91276 32.874119,32.874119 0 0 1 45.84714,-3.50762 l -21.13108,25.18304 z m 1.93217,2.11341 a 32.874119,32.874119 0 0 1 -3.50761,45.84714 32.874119,32.874119 0 0 1 -45.91277,-2.50663 32.874119,32.874119 0 0 1 1.50446,-45.95651 32.874119,32.874119 0 0 1 45.97839,0.50156 l -23.2455,23.24551 z m -1.92325,44.38846 a 32.874119,32.874119 0 0 1 -45.97842,0.50156 32.874119,32.874119 0 0 1 -1.50443,-45.95651 32.874119,32.874119 0 0 1 45.91276,-2.50664 32.874119,32.874119 0 0 1 3.50761,45.84715 l -25.18303,-21.13107 z m -2.1134,1.93219 a 32.874119,32.874119 0 0 1 -45.84715,-3.50763 32.874119,32.874119 0 0 1 2.50664,-45.91277 32.874119,32.874119 0 0 1 45.95651,1.50447 32.874119,32.874119 0 0 1 -0.50155,45.97839 l -23.24554,-23.24551 z m -2.27443,1.74201 a 32.874119,32.874119 0 0 1 -45.36698,-7.49011 32.874119,32.874119 0 0 1 6.49866,-45.5196 32.874119,32.874119 0 0 1 45.65052,5.50413 32.874119,32.874119 0 0 1 -4.50695,45.75971 l -21.13107,-25.18302 z m -2.41681,1.53585 a 32.874119,32.874119 0 0 1 -44.54154,-11.41561 32.874119,32.874119 0 0 1 10.44123,-44.77999 32.874119,32.874119 0 0 1 44.99709,9.46189 32.874119,32.874119 0 0 1 -8.47801,45.19279 l -18.85584,-26.92891 z m -2.54683,1.32801 a 32.874119,32.874119 0 0 1 -43.37711,-15.25422 32.874119,32.874119 0 0 1 14.30434,-43.69954 32.874119,32.874119 0 0 1 44.00119,13.3476 32.874119,32.874119 0 0 1 -12.38455,44.2819 l -16.43706,-28.4698 z m -2.64679,1.09285 a 32.874119,32.874119 0 0 1 -41.88255,-18.97675 32.874119,32.874119 0 0 1 18.05855,-42.28657 32.874119,32.874119 0 0 1 42.67046,17.13179 32.874119,32.874119 0 0 1 -16.19687,43.03401 l -13.89321,-29.79406 z m -2.73307,0.85904 a 32.874119,32.874119 0 0 1 -40.06925,-22.55482 32.874119,32.874119 0 0 1 21.67537,-40.55175 32.874119,32.874119 0 0 1 41.01492,20.78558 32.874119,32.874119 0 0 1 -19.88588,41.45859 l -11.24361,-30.89156 z m -2.79635,0.61662 a 32.874119,32.874119 0 0 1 -37.95098,-25.96125 32.874119,32.874119 0 0 1 25.12719,-38.50831 32.874119,32.874119 0 0 1 39.04727,24.28116 32.874119,32.874119 0 0 1 -23.42356,39.56768 l -8.50844,-31.75396 z m -2.85797,0.39096 a 32.874119,32.874119 0 0 1 -35.5439,-29.17014 32.874119,32.874119 0 0 1 28.38779,-36.17177 32.874119,32.874119 0 0 1 36.78246,27.59195 32.874119,32.874119 0 0 1 -26.78298,37.37562 l -5.70853,-32.37469 z m -2.86094,0.12167 a 32.874119,32.874119 0 0 1 -32.8663,-32.15698 32.874119,32.874119 0 0 1 31.43235,-33.55998 32.874119,32.874119 0 0 1 34.23769,30.69276 32.874119,32.874119 0 0 1 -29.93857,34.8991 l -2.86517,-32.74903 z m -2.86207,-0.12751 a 32.874119,32.874119 0 0 1 -29.93856,-34.8991 32.874119,32.874119 0 0 1 34.23769,-30.69277 32.874119,32.874119 0 0 1 31.43234,33.55999 32.874119,32.874119 0 0 1 -32.86629,32.15696 l -1e-5,-32.8741 z m -2.83859,-0.37698 a 32.874119,32.874119 0 0 1 -26.783,-37.37561 32.874119,32.874119 0 0 1 36.78246,-27.59196 32.874119,32.874119 0 0 1 28.38779,36.17178 32.874119,32.874119 0 0 1 -35.54389,29.17013 l 2.86517,-32.74903 z m -2.80463,-0.61975 a 32.874119,32.874119 0 0 1 -23.42356,-39.56768 32.874119,32.874119 0 0 1 39.04727,-24.28115 32.874119,32.874119 0 0 1 25.1272,38.50829 32.874119,32.874119 0 0 1 -37.95097,25.96127 l 5.70852,-32.37468 z m -2.73002,-0.86415 a 32.874119,32.874119 0 0 1 -19.88588,-41.45862 32.874119,32.874119 0 0 1 41.01494,-20.78556 32.874119,32.874119 0 0 1 21.67535,40.55173 32.874119,32.874119 0 0 1 -40.06924,22.55483 l 8.50844,-31.75397 z m -2.64584,-1.09871 a 32.874119,32.874119 0 0 1 -16.19686,-43.03402 32.874119,32.874119 0 0 1 42.67044,-17.13179 32.874119,32.874119 0 0 1 18.05855,42.28657 32.874119,32.874119 0 0 1 -41.88254,18.97673 l 11.24361,-30.89156 z m -2.53848,-1.32511 a 32.874119,32.874119 0 0 1 -12.38457,-44.2819 32.874119,32.874119 0 0 1 44.0012,-13.34762 32.874119,32.874119 0 0 1 14.30432,43.69955 32.874119,32.874119 0 0 1 -43.37709,15.25421 l 13.8932,-29.79406 z m -2.44603,-1.52612 a 32.874119,32.874119 0 0 1 -8.47801,-45.1928 32.874119,32.874119 0 0 1 44.99708,-9.46186 32.874119,32.874119 0 0 1 10.44124,44.77998 32.874119,32.874119 0 0 1 -44.54154,11.4156 l 16.43705,-28.46982 z m -2.26982,-1.74576 a 32.874119,32.874119 0 0 1 -4.50694,-45.75973 32.874119,32.874119 0 0 1 45.65053,-5.50412 32.874119,32.874119 0 0 1 6.49865,45.51958 32.874119,32.874119 0 0 1 -45.36697,7.49013 l 18.85581,-26.92891 z m -2.1105,-1.93739 a 32.874119,32.874119 0 0 1 -0.50157,-45.9784 32.874119,32.874119 0 0 1 45.95652,-1.50446 32.874119,32.874119 0 0 1 2.50663,45.91276 32.874119,32.874119 0 0 1 -45.84714,3.50762 l 21.13107,-25.18303 z m -1.93218,-2.11339 a 32.874119,32.874119 0 0 1 3.50761,-45.84716 32.874119,32.874119 0 0 1 45.91278,2.50664 32.874119,32.874119 0 0 1 -1.50448,45.95652 32.874119,32.874119 0 0 1 -45.97839,-0.50157 l 23.24552,-23.24552 z m -1.75009,-2.27753 a 32.874119,32.874119 0 0 1 7.49011,-45.36699 32.874119,32.874119 0 0 1 45.51958,6.49867 32.874119,32.874119 0 0 1 -5.50411,45.65051 32.874119,32.874119 0 0 1 -45.75971,-4.50693 l 25.18302,-21.13107 z m -1.53586,-2.41682 a 32.874119,32.874119 0 0 1 11.41562,-44.54153 32.874119,32.874119 0 0 1 44.77997,10.44122 32.874119,32.874119 0 0 1 -9.46187,44.99709 32.874119,32.874119 0 0 1 -45.19278,-8.47802 l 26.9289,-18.85582 z m -1.32059,-2.54237 a 32.874119,32.874119 0 0 1 15.25422,-43.37711 32.874119,32.874119 0 0 1 43.69955,14.30433 32.874119,32.874119 0 0 1 -13.34763,44.00119 32.874119,32.874119 0 0 1 -44.28188,-12.38456 l 28.46981,-16.43705 z m -1.09283,-2.64679 a 32.874119,32.874119 0 0 1 18.97672,-41.88255 32.874119,32.874119 0 0 1 42.28657,18.05856 32.874119,32.874119 0 0 1 -17.13179,42.67043 32.874119,32.874119 0 0 1 -43.034,-16.19685 l 29.79406,-13.8932 z m -0.88129,-2.74667 a 32.874119,32.874119 0 0 1 22.55483,-40.06925 32.874119,32.874119 0 0 1 40.55173,21.67536 32.874119,32.874119 0 0 1 -20.78556,41.01495 32.874119,32.874119 0 0 1 -41.4586,-19.88589 l 30.89155,-11.24361 z m -0.61663,-2.79635 a 32.874119,32.874119 0 0 1 25.96127,-37.95098 32.874119,32.874119 0 0 1 38.5083,25.12719 32.874119,32.874119 0 0 1 -24.28115,39.04728 32.874119,32.874119 0 0 1 -39.56768,-23.42357 l 31.75396,-8.50845 z m -0.37141,-2.84072 a 32.874119,32.874119 0 0 1 29.17012,-35.5439 32.874119,32.874119 0 0 1 36.17178,28.3878 32.874119,32.874119 0 0 1 -27.59196,36.78245 32.874119,32.874119 0 0 1 -37.3756,-26.78298 l 32.37468,-5.70854 z m -0.12167,-2.86094 a 32.874119,32.874119 0 0 1 32.15697,-32.8663 32.874119,32.874119 0 0 1 33.55998,31.43235 32.874119,32.874119 0 0 1 -30.69277,34.23768 32.874119,32.874119 0 0 1 -34.89909,-29.93856 l 32.74903,-2.86517 z m 0.12331,-2.86962 a 32.874119,32.874119 0 0 1 34.8991,-29.93858 32.874119,32.874119 0 0 1 30.69275,34.23769 32.874119,32.874119 0 0 1 -33.55997,31.43235 32.874119,32.874119 0 0 1 -32.15697,-32.86629 h 32.87411 z m 0.37697,-2.83861 a 32.874119,32.874119 0 0 1 37.37561,-26.78298 32.874119,32.874119 0 0 1 27.59196,36.78245 32.874119,32.874119 0 0 1 -36.17178,28.38779 32.874119,32.874119 0 0 1 -29.17012,-35.54389 l 32.74903,2.86516 z m 0.62257,-2.79644 a 32.874119,32.874119 0 0 1 39.56768,-23.42357 32.874119,32.874119 0 0 1 24.28115,39.04728 32.874119,32.874119 0 0 1 -38.5083,25.12719 32.874119,32.874119 0 0 1 -25.96125,-37.95098 l 32.37468,5.70853 z m 0.86417,-2.73002 a 32.874119,32.874119 0 0 1 41.4586,-19.88588 32.874119,32.874119 0 0 1 20.78557,41.01493 32.874119,32.874119 0 0 1 -40.55174,21.67536 32.874119,32.874119 0 0 1 -22.55482,-40.06924 l 31.75395,8.50845 z m 1.08735,-2.68224 a 32.874119,32.874119 0 0 1 43.03404,-16.19686 32.874119,32.874119 0 0 1 17.13176,42.67044 32.874119,32.874119 0 0 1 -42.28656,18.05857 32.874119,32.874119 0 0 1 -18.97673,-41.88256 l 30.89156,11.24361 z m 1.3251,-2.53849 a 32.874119,32.874119 0 0 1 44.28191,-12.38456 32.874119,32.874119 0 0 1 13.34762,44.00121 32.874119,32.874119 0 0 1 -43.69955,14.30432 32.874119,32.874119 0 0 1 -15.25423,-43.3771 l 29.79409,13.8932 z m 1.54146,-2.41486 a 32.874119,32.874119 0 0 1 45.19279,-8.47802 32.874119,32.874119 0 0 1 9.46188,44.9971 32.874119,32.874119 0 0 1 -44.77998,10.44121 32.874119,32.874119 0 0 1 -11.4156,-44.54152 l 28.46981,16.43704 z m 1.74577,-2.26982 a 32.874119,32.874119 0 0 1 45.75973,-4.50694 32.874119,32.874119 0 0 1 5.50411,45.65053 32.874119,32.874119 0 0 1 -45.51959,6.49865 32.874119,32.874119 0 0 1 -7.49012,-45.36698 l 26.92892,18.85582 z m 1.93903,-2.11899 a 32.874119,32.874119 0 0 1 45.9784,-0.50157 32.874119,32.874119 0 0 1 1.50445,45.95651 32.874119,32.874119 0 0 1 -45.91275,2.50665 32.874119,32.874119 0 0 1 -3.50763,-45.84714 l 25.18303,21.13106 z m 2.1134,-1.9322 a 32.874119,32.874119 0 0 1 45.84715,3.50764 32.874119,32.874119 0 0 1 -2.50663,45.91276 32.874119,32.874119 0 0 1 -45.95653,-1.50446 32.874119,32.874119 0 0 1 0.50158,-45.9784 l 23.24551,23.24551 z m 2.27443,-1.742 a 32.874119,32.874119 0 0 1 45.36698,7.49011 32.874119,32.874119 0 0 1 -6.49867,45.51959 32.874119,32.874119 0 0 1 -45.6505,-5.50413 32.874119,32.874119 0 0 1 4.50694,-45.7597 l 21.13107,25.18303 z m 2.41681,-1.53584 a 32.874119,32.874119 0 0 1 44.54153,11.4156 32.874119,32.874119 0 0 1 -10.44122,44.77998 32.874119,32.874119 0 0 1 -44.99708,-9.46188 32.874119,32.874119 0 0 1 8.47801,-45.19278 l 18.85581,26.9289 z m 2.5519,-1.34486 a 32.874119,32.874119 0 0 1 43.37712,15.25423 32.874119,32.874119 0 0 1 -14.30433,43.69954 32.874119,32.874119 0 0 1 -44.00121,-13.34761 32.874119,32.874119 0 0 1 12.38456,-44.28191 l 16.43706,28.46982 z m 2.64679,-1.09284 a 32.874119,32.874119 0 0 1 41.88256,18.97674 32.874119,32.874119 0 0 1 -18.05856,42.28657 32.874119,32.874119 0 0 1 -42.67045,-17.13178 32.874119,32.874119 0 0 1 16.19686,-43.03402 l 13.89321,29.79407 z m 2.73308,-0.85906 a 32.874119,32.874119 0 0 1 40.06924,22.55483 32.874119,32.874119 0 0 1 -21.67536,40.55175 32.874119,32.874119 0 0 1 -41.01493,-20.78558 32.874119,32.874119 0 0 1 19.88588,-41.45859 l 11.24361,30.89155 z m 2.79634,-0.61661 a 32.874119,32.874119 0 0 1 37.951,25.96126 32.874119,32.874119 0 0 1 -25.12721,38.5083 32.874119,32.874119 0 0 1 -39.04727,-24.28116 32.874119,32.874119 0 0 1 23.42356,-39.56768 l 8.50845,31.75397 z m 2.84745,-0.37687 a 32.874119,32.874119 0 0 1 35.5439,29.17013 32.874119,32.874119 0 0 1 -28.3878,36.17177 32.874119,32.874119 0 0 1 -36.78245,-27.59195 32.874119,32.874119 0 0 1 26.78297,-37.37561 l 5.70854,32.37468 z m 2.86094,-0.12168 a 32.874119,32.874119 0 0 1 32.8663,32.15698 32.874119,32.874119 0 0 1 -31.43236,33.55998 32.874119,32.874119 0 0 1 -34.23768,-30.69276 32.874119,32.874119 0 0 1 29.93857,-34.89909 l 2.86518,32.74903 z m 2.86206,0.12752 a 32.874119,32.874119 0 0 1 29.93857,34.8991 32.874119,32.874119 0 0 1 -34.23768,30.69276 32.874119,32.874119 0 0 1 -31.43235,-33.55999 32.874119,32.874119 0 0 1 32.86629,-32.15696 v 32.87411 z m 2.8386,0.37698 a 32.874119,32.874119 0 0 1 26.78299,37.3756 32.874119,32.874119 0 0 1 -36.78245,27.59196 32.874119,32.874119 0 0 1 -28.38779,-36.17178 32.874119,32.874119 0 0 1 35.54389,-29.17011 l -2.86517,32.74901 z m 2.82048,0.59749 a 32.874119,32.874119 0 0 1 23.42357,39.56769 32.874119,32.874119 0 0 1 -39.04728,24.28115 32.874119,32.874119 0 0 1 -25.1272,-38.5083 32.874119,32.874119 0 0 1 37.95099,-25.96126 l -5.70853,32.37468 z m 2.73002,0.86416 a 32.874119,32.874119 0 0 1 19.88589,41.45861 32.874119,32.874119 0 0 1 -41.01495,20.78558 32.874119,32.874119 0 0 1 -21.67535,-40.55174 32.874119,32.874119 0 0 1 40.06924,-22.55484 l -8.50844,31.75397 z m 2.64585,1.09871 a 32.874119,32.874119 0 0 1 16.19686,43.03402 32.874119,32.874119 0 0 1 -42.67045,17.13179 32.874119,32.874119 0 0 1 -18.05855,-42.28657 32.874119,32.874119 0 0 1 41.88254,-18.97673 l -11.2436,30.89156 z m 2.53848,1.3251 a 32.874119,32.874119 0 0 1 12.38457,44.28191 32.874119,32.874119 0 0 1 -44.00122,13.34762 32.874119,32.874119 0 0 1 -14.30431,-43.69956 32.874119,32.874119 0 0 1 43.3771,-15.25422 l -13.8932,29.79408 z m 2.42351,1.54161 a 32.874119,32.874119 0 0 1 8.47802,45.19279 32.874119,32.874119 0 0 1 -44.99709,9.46186 32.874119,32.874119 0 0 1 -10.44123,-44.77996 32.874119,32.874119 0 0 1 44.54153,-11.41561 l -16.43705,28.46981 z m 2.26983,1.74577 a 32.874119,32.874119 0 0 1 4.50693,45.75972 32.874119,32.874119 0 0 1 -45.65052,5.50411 32.874119,32.874119 0 0 1 -6.49866,-45.51958 32.874119,32.874119 0 0 1 45.36698,-7.49011 l -18.85582,26.9289 z m 2.11049,1.93738 a 32.874119,32.874119 0 0 1 0.50157,45.9784 32.874119,32.874119 0 0 1 -45.95652,1.50445 32.874119,32.874119 0 0 1 -2.50662,-45.91275 32.874119,32.874119 0 0 1 45.84713,-3.50762 l -21.13107,25.18303 z m 1.93218,2.1134 a 32.874119,32.874119 0 0 1 -3.50761,45.84714 32.874119,32.874119 0 0 1 -45.91277,-2.50663 32.874119,32.874119 0 0 1 1.50447,-45.95651 32.874119,32.874119 0 0 1 45.97839,0.50156 l -23.24551,23.24551 z m 1.76756,2.2796 a 32.874119,32.874119 0 0 1 -7.49012,45.36699 32.874119,32.874119 0 0 1 -45.51957,-6.49867 32.874119,32.874119 0 0 1 5.5041,-45.65052 32.874119,32.874119 0 0 1 45.75972,4.50694 l -25.18303,21.13107 z m 1.53585,2.41681 a 32.874119,32.874119 0 0 1 -11.41561,44.54154 32.874119,32.874119 0 0 1 -44.77998,-10.44122 32.874119,32.874119 0 0 1 9.46187,-44.99709 32.874119,32.874119 0 0 1 45.19279,8.47801 l -26.9289,18.85583 z m 1.3206,2.54238 a 32.874119,32.874119 0 0 1 -15.25422,43.37711 32.874119,32.874119 0 0 1 -43.69956,-14.30433 32.874119,32.874119 0 0 1 13.34763,-44.0012 32.874119,32.874119 0 0 1 44.28189,12.38456 l -28.46981,16.43706 z m 1.09283,2.64679 a 32.874119,32.874119 0 0 1 -18.97673,41.88255 32.874119,32.874119 0 0 1 -42.28657,-18.05856 32.874119,32.874119 0 0 1 17.13179,-42.67044 32.874119,32.874119 0 0 1 43.03401,16.19685 l -29.79407,13.89321 z m 0.86559,2.73874 a 32.874119,32.874119 0 0 1 -22.55483,40.06925 32.874119,32.874119 0 0 1 -40.55173,-21.67536 32.874119,32.874119 0 0 1 20.78556,-41.01494 32.874119,32.874119 0 0 1 41.4586,19.88588 l -30.89156,11.24361 z m 0.61663,2.79635 a 32.874119,32.874119 0 0 1 -25.96127,37.95098 32.874119,32.874119 0 0 1 -38.5083,-25.12719 32.874119,32.874119 0 0 1 24.28116,-39.04728 32.874119,32.874119 0 0 1 39.56767,23.42357 l -31.75396,8.50845 z m 0.37141,2.84072 a 32.874119,32.874119 0 0 1 -29.17012,35.5439 32.874119,32.874119 0 0 1 -36.17178,-28.3878 32.874119,32.874119 0 0 1 27.59196,-36.78244 32.874119,32.874119 0 0 1 37.3756,26.78298 l -32.37468,5.70853 z m 0.12167,2.86094 a 32.874119,32.874119 0 0 1 -32.15697,32.8663 32.874119,32.874119 0 0 1 -33.55998,-31.43235 32.874119,32.874119 0 0 1 30.69276,-34.23768 32.874119,32.874119 0 0 1 34.89909,29.93856 l -32.74902,2.86517 z"
       inkscape:connector-curvature="0" />
    <path
       id="path3923-8-4-5-0-1-5"
       style="fill:#ffffff;fill-opacity:0;stroke:#000000;stroke-width:0.745966;stroke-miterlimit:4;stroke-dasharray:none;stroke-dashoffset:13.8784;stroke-opacity:1"
       d="m 167.22587,155.25968 a 32.697613,32.696856 30 0 1 -40.82943,13.8592 32.697613,32.696856 30 0 1 -19.07091,-38.67094 32.697613,32.696856 30 0 1 35.85092,-23.95436 32.697613,32.696856 30 0 1 28.42988,32.41762 l -32.69742,-3.3e-4 z m -11.9674,11.97457 a 32.697613,32.696856 60 0 1 -42.28891,-8.41229 32.697613,32.696856 60 0 1 2.81957,-43.02549 32.697613,32.696856 60 0 1 43.02498,-2.8196 32.697613,32.696856 60 0 1 8.4122,42.2894 l -28.31666,-16.34894 z m -16.34468,4.37194 a 32.696856,32.697613 0 0 1 -32.41713,-28.42971 32.696856,32.697613 0 0 1 23.95455,-35.85137 32.696856,32.697613 0 0 1 38.67055,19.07063 32.696856,32.697613 0 0 1 -13.85954,40.8298 l -16.34848,-28.31692 z m -16.35397,-4.37677 a 32.696856,32.697613 30 0 1 -13.85921,-40.82943 32.696856,32.697613 30 0 1 38.67095,-19.07091 32.696856,32.697613 30 0 1 23.95435,35.85092 32.696856,32.697613 30 0 1 -32.41761,28.42988 l 3.2e-4,-32.69742 z M 110.5929,155.26235 a 32.696856,32.697613 60 0 1 8.4123,-42.28892 32.696856,32.697613 60 0 1 43.02547,2.81959 32.696856,32.697613 60 0 1 2.81962,43.02497 32.696856,32.697613 60 0 1 -42.28942,8.41219 l 16.349,-28.31663 z m -4.38658,-16.35134 a 32.697613,32.696856 0 0 1 28.42971,-32.41713 32.697613,32.696856 0 0 1 35.85137,23.95457 32.697613,32.696856 0 0 1 -19.07063,38.67052 32.697613,32.696856 0 0 1 -40.8298,-13.85953 l 28.31693,-16.34848 z m 4.38613,-16.34089 a 32.697613,32.696856 30 0 1 40.82941,-13.8592 32.697613,32.696856 30 0 1 19.07092,38.67095 32.697613,32.696856 30 0 1 -35.85092,23.95434 32.697613,32.696856 30 0 1 -28.42987,-32.41761 l 32.69741,3.3e-4 z m 11.96738,-11.97457 a 32.697613,32.696856 60 0 1 42.28891,8.4123 32.697613,32.696856 60 0 1 -2.81957,43.02547 32.697613,32.696856 60 0 1 -43.02498,2.81961 32.697613,32.696856 60 0 1 -8.41219,-42.28941 l 28.31664,16.349 z m -11.96692,44.66137 a 32.696856,32.697613 60 0 1 8.41229,-42.28892 32.696856,32.697613 60 0 1 43.02547,2.81958 32.696856,32.697613 60 0 1 2.81962,43.02498 32.696856,32.697613 60 0 1 -42.28941,8.41219 l 16.34899,-28.31663 z m -4.38659,-16.35135 a 32.697613,32.696856 0 0 1 28.42972,-32.41713 32.697613,32.696856 0 0 1 35.85137,23.95457 32.697613,32.696856 0 0 1 -19.07063,38.67052 32.697613,32.696856 0 0 1 -40.8298,-13.85952 l 28.31693,-16.34848 z m 4.38613,-16.34088 a 32.697613,32.696856 30 0 1 40.82942,-13.85921 32.697613,32.696856 30 0 1 19.07091,38.67094 32.697613,32.696856 30 0 1 -35.85091,23.95436 32.697613,32.696856 30 0 1 -28.42988,-32.41761 l 32.69742,3.2e-4 z m 11.96738,-11.97457 a 32.697613,32.696856 60 0 1 42.28892,8.41229 32.697613,32.696856 60 0 1 -2.81958,43.02548 32.697613,32.696856 60 0 1 -43.02497,2.81961 32.697613,32.696856 60 0 1 -8.4122,-42.28941 l 28.31664,16.34898 z M 138.90708,106.21 a 32.696856,32.697613 0 0 1 32.41712,28.42972 32.696856,32.697613 0 0 1 -23.95456,35.85136 32.696856,32.697613 0 0 1 -38.67053,-19.07063 32.696856,32.697613 0 0 1 13.85954,-40.8298 l 16.34842,28.31696 z m 16.35396,4.37678 a 32.696856,32.697613 30 0 1 13.8592,40.82942 32.696856,32.697613 30 0 1 -38.67094,19.07091 32.696856,32.697613 30 0 1 -23.95434,-35.85091 32.696856,32.697613 30 0 1 32.4176,-28.42988 l -3.2e-4,32.69742 z m 11.95856,11.96894 a 32.696857,32.697613 60 0 1 -8.41229,42.28891 32.696857,32.697613 60 0 1 -43.02547,-2.81957 32.696857,32.697613 60 0 1 -2.81961,-43.02498 32.696857,32.697613 60 0 1 42.2894,-8.41219 l -16.34899,28.31663 z m 4.38659,16.35134 a 32.697613,32.696857 0 0 1 -28.42972,32.41713 32.697613,32.696857 0 0 1 -35.85136,-23.95456 32.697613,32.696857 0 0 1 19.07063,-38.67053 32.697613,32.696857 0 0 1 40.8298,13.85953 l -28.31696,16.34843 z"
       inkscape:connector-curvature="0" />
    <circle
       inkscape:export-ydpi="95.930054"
       inkscape:export-xdpi="95.930054"
       style="fill:#ffffff;fill-opacity:0;stroke:#ffffff;stroke-width:0.862386;stroke-miterlimit:4;stroke-dasharray:none;stroke-dashoffset:13.8784;stroke-opacity:1"
       id="path4171"
       cx="138.90625"
       cy="138.90625"
       r="32.641724" />
    <ellipse
       style="fill:#ffffff;fill-opacity:1;stroke:#000000;stroke-width:0.442655;stroke-miterlimit:4;stroke-dasharray:none;stroke-dashoffset:13.8784;stroke-opacity:0"
       id="path4173"
       cx="138.90625"
       cy="138.90625"
       rx="26.237007"
       ry="26.237005" />
    <path
       transform="rotate(30)"
       d="m 222.65331,51.091118 a 32.874119,32.874119 0 0 1 -16.43706,28.469822 32.874119,32.874119 0 0 1 -32.87412,0 l 16.43706,-28.469822 z"
       sodipodi:arc-type="slice"
       sodipodi:end="2.0943951"
       sodipodi:start="0"
       sodipodi:ry="32.874119"
       sodipodi:rx="32.874119"
       sodipodi:cy="51.091118"
       sodipodi:cx="189.77919"
       sodipodi:type="arc"
       style="opacity:1;fill:#ffffff;fill-opacity:1;stroke:#000000;stroke-width:0.397597;stroke-miterlimit:4;stroke-dasharray:none;stroke-dashoffset:13.8784;stroke-opacity:0"
       id="path3923-8-9" />
  </g>
</svg>
